<svg id="Calque_1" data-name="Calque 1" xmlns="http://www.w3.org/2000/svg" viewBox="0 0 800.66 199.69"><defs><style>.cls-1{fill:#221f20;}</style></defs><title>Plan de travail 1</title><path d="M268.8,46.79c-.37,1.42-.76,2.86-1.2,4.29-2.11,5.83-7.19,14.37-18.3,14.37-13.74,0-22.88-18-22.88-31.42,0-11.69,4.65-33.55,23.29-32.31a22.54,22.54,0,0,1,8.58,2.17,18.06,18.06,0,0,1,9.2,11.72.88.88,0,0,0,.05.15h.57V9.47c0-.61-.59-1.42-1.57-2.34A26.65,26.65,0,0,0,248.33,0l-.9,0C229.42.53,216,16.23,216,34a33.93,33.93,0,0,0,10.4,24.54,29.47,29.47,0,0,0,21.28,8.86c9.48,0,21.68-6,21.68-6.49V46.79h-.58"/><path d="M293,64.71V1.52h-13.1v.55c.52,0,5.31,1,5.31,4V64.71a2,2,0,0,1-2.05,2.08v.56H295v-.56a1.92,1.92,0,0,1-2-2.08"/><path d="M747,64.71V1.52H733.9v.55c.54,0,5.33,1,5.33,4V64.71a2,2,0,0,1-2.07,2.08v.56H749v-.56a1.93,1.93,0,0,1-2-2.08"/><path d="M86.41,2.34v.55c2.62,0,3.83,1.67,3.09,3.6L71,55.39,52.79,7.72c-1.39-3.65,1-4.83,3.94-4.83V2.34H34v.55a9.84,9.84,0,0,1,9.55,6.25L65.79,67.43h2.27L90.82,7.09a6.88,6.88,0,0,1,6.05-4.2V2.34H86.41"/><path d="M774,67.35c-7.24,0-14.15-5-14.15-5.4V53.4h.48c1.62,5.7,5.15,12.67,14.3,12.67,3.89,0,7.42-2.25,7.42-7.5,0-4.62-2.81-6-5.89-7.06l-7.05-2.46c-3.71-1.26-9-3.07-9-11,0-6.79,5.53-12,13-12,5.61,0,10.67,3.41,10.67,3.88v7.62h-.52c-1.73-5.44-4-10.24-10.15-10.24-5.79,0-9.14,2.81-9.14,7.15,0,3.9,2.8,5.53,8.06,7.16l6.61,2.16c5.61,1.91,9.68,5.17,9.68,10.69,0,6.6-5.25,12.86-14.39,12.86"/><path d="M588.71,62.82a.05.05,0,0,0,0,0L565.6,2h-2.17L540,64a.06.06,0,0,0,0,0c-.87,2.29-3.6,2.71-4.61,2.71v.56h8.86v-.56c-.69,0-3.62-.53-2.68-3l7.91-21h21.9L579,62.92c1.14,3-2.13,3.87-2.86,3.87v.56h18.37v-.56a6.88,6.88,0,0,1-5.78-4M570.13,39.68H550.74L560.44,14l9.69,25.66"/><path d="M625,26.26c-7.6,0-10.86,6.6-11.86,10.13H613V27.25h-9.58v.55c.42,0,2,.5,2,1.72v35.7c0,1.26-1.49,1.57-2,1.57v.56H615v-.56c-.53,0-1.88-.21-1.88-1.41V44.08c0-10,5.62-16,9.42-16,2.09,0,3.17,1.4,3.17,3.9v4.25c0,1.53,1,2.52,3.66,2.52,2.36,0,3.67-1,3.67-2.52,0-7.07-2.44-9.95-8.06-9.95"/><path d="M135.39,64.6a6.87,6.87,0,0,1-4.52.68c-1.94-.45-3.18-1.34-3.18-4.77V38.57c0-6.44-3.89-12.5-15-12.5-9.24,0-15.75,4.7-15.75,10,0,2.26-.09,3.89,3.89,3.89,2.26,0,3.53-1.36,3.53-3V32.9c0-4.4,4.35-5.56,8.33-5.56,6,0,7.52,3.53,7.52,9.32,0,1.94,0,5,0,8.18h-.32c-8.55-.47-23.76,1.9-23.76,13.22,0,6.07,4.18,9.21,9.89,9.21a18.12,18.12,0,0,0,13.87-6.75l.1-.44c0,.12,0,.21,0,.21,1,4.43,3.17,7.06,9,7.06a10.84,10.84,0,0,0,6.79-2.26l-.36-.49m-15.82-6.47c-1.14,3-3.95,5.61-7.27,5.61-4.46,0-8.34-2.88-8.34-8.62,0-7.75,10.4-9,16.28-9v4.56c0,.19,0,.37,0,.55,0,1.42,0,2.7,0,3.83a9.69,9.69,0,0,1-.61,3.08"/><path d="M182,64.71V38.38c0-8.41-5.52-12.12-13.49-12.12-.57,0-1.14,0-1.69.07l-.52.05c-.36,0-.74.09-1.11.16l-.51.09-1.06.25a3.17,3.17,0,0,1-.41.12c-.4.13-.77.26-1.16.41l-.2.08a14.76,14.76,0,0,0-4.47,2.89s0,0,0,0a10.11,10.11,0,0,0-.79.81.52.52,0,0,0-.1.11,17.73,17.73,0,0,0-1.88,2.48.62.62,0,0,1-.11.17c-.12.21-.26.41-.37.63V27.25H143.32v.55c.31,0,1.85.21,1.85,1.67V65c0,1.35-1.52,1.84-1.85,1.84v.56h11.52v-.56A2.36,2.36,0,0,1,153,64.67V44.35c0-.67,0-1.33.1-2,0-.24.06-.46.09-.69.06-.42.12-.83.19-1.24,0-.17.09-.37.14-.55,1.78-7.57,8-11.4,12.8-11.3h.22c5.67.05,7.16,1.76,7.52,7.55a29.06,29.06,0,0,1,.21,3.3V64.67a2.17,2.17,0,0,1-2,2.12v.56h11.65v-.56A1.94,1.94,0,0,1,182,64.71"/><path d="M419.79.23c-5.25,0-10.22,3.44-13.4,7.43-2.34,3-4.06,6.6-4.06,15V25c-.43,1.86-2.4,4.64-4.39,4.64,0,0,3.22,0,4.39-1.2V65.41c0,1.1-1.45,1.61-1.89,1.61v.56H411.9V67h0c-.35,0-1.78-.23-1.79-1.53V29.92H419V27.47H410.1V14.89c0-9.23,4.17-13.4,9.16-13.4,2.25,0,5,.91,5,4.17v4.71c0,1.53,1,2.53,3.66,2.53,2.35,0,3.67-1,3.67-2.53C431.57,5,429.65.23,419.79.23"/><path d="M511.57,40V39.2h-12.5a40.75,40.75,0,0,1-4.46,15.94c-.33.5-.66,1-1,1.46-4-4.67-7-8.66-11-13.88l-3.17-4.06c3.11-.93,6.15-2,8.62-4.82a7.63,7.63,0,0,0,.85-1,4.59,4.59,0,0,0,.33-.52l.06-.09a9.22,9.22,0,0,0,.89-2.28.66.66,0,0,1,0-.15c0-.2.08-.4.1-.6a9.28,9.28,0,0,0,.08-1.07c0-6.4-4.42-10.66-11.85-10.66-7,0-12.41,4.86-12.41,12a13.13,13.13,0,0,0,3.78,8.92l1.18,1.45c-.29.08-.61.15-.91.24s-.86.21-1.38.37l-.1,0v0c-4,1.29-10.58,5-10.58,13,0,5.86,3.78,15,18.17,14.44,7-.3,10.35-2.4,13.37-5.08.16.17.32.33.49.49l0,0h0a13,13,0,0,0,10.08,4.18c4.41,0,7-1.92,9.26-3.81l-.35-.62c-5,3.73-10-.17-14.72-5.55,1.69-2.63,4.41-7.46,5.75-9.24,2.82-3.81,7.53-8.32,11.33-8.38m-35.65-5.76c-7.29-9.06-3.23-15.13.7-15.74.22,0,.42-.05.66-.05,4.64,0,7.32,5.06,7.32,9.57-.53,5.54-2.1,7.8-6.06,9.51-.83-1-1.69-2.14-2.62-3.29m12.31,28.53a17,17,0,0,1-1.46,1c-.23.14-.46.29-.68.41l-.26.14c-5.84,3.11-11.4.94-14.91-2.46-2.76-3.32-4.83-7.49-4.85-10.43a14.68,14.68,0,0,1,.6-4.4l0-.06s0,0,0,0A9.79,9.79,0,0,1,469.52,43a13.83,13.83,0,0,1,2.67-1.76c2.34,2.87,7.06,8.69,16.65,20.53l.2.3c-.31.29-.58.54-.81.73"/><path d="M339.79,58.8a14.39,14.39,0,0,1-3.5,4.72,10.94,10.94,0,0,1-6.25,2c-7.24,0-13-7.52-14.14-15.88a53.29,53.29,0,0,1-.42-5.45h28.08v-.36c0-9.44-5.74-15.24-13.44-17l-.12,0a21.77,21.77,0,0,0-3.48-.49h-.12c-.48,0-1-.06-1.46-.06a16.74,16.74,0,0,0-4.09.54h-.05l0,0c-8.33,2.25-14.24,11-14.24,20.25,0,12.31,9,20.46,18.41,20.46,10.08,0,14.83-4.81,17.18-8.78h-2.33M319.14,32.43c1.53-2.83,3.73-4.37,6.05-4.65v0c.13,0,.28,0,.4,0s.24,0,.36,0H326l.18,0h.07c7,0,9.41,8.28,9.49,14.57H317a31.85,31.85,0,0,1,2.11-9.86"/><path d="M385,58.8a14.25,14.25,0,0,1-3.5,4.72,10.94,10.94,0,0,1-6.25,2c-7.23,0-13-7.52-14.14-15.88a53.29,53.29,0,0,1-.42-5.45h28.08v-.36c0-9.44-5.73-15.24-13.44-17h0l-.13,0a21.61,21.61,0,0,0-3.48-.49h-.11c-.5,0-1-.06-1.47-.06a16.74,16.74,0,0,0-4.09.54H366l0,0c-8.34,2.25-14.25,11-14.25,20.25,0,12.31,9,20.46,18.41,20.46,10.08,0,14.83-4.81,17.18-8.78H385M364.36,32.43c1.52-2.83,3.72-4.37,6.05-4.65v0c.13,0,.28,0,.4,0l.36,0h.06l.18,0h.07c7,0,9.41,8.28,9.5,14.57H362.25a31.28,31.28,0,0,1,2.11-9.86"/><path d="M723.68,58.52a14.72,14.72,0,0,1-3.5,4.72,11,11,0,0,1-6.26,2c-7.24,0-13-7.51-14.15-15.87-.23-1.72-.39-4.15-.41-5.45h28.08v-.36c0-9.45-5.74-15.23-13.44-17h-.11a22.06,22.06,0,0,0-3.49-.5h-.12c-.47,0-1-.06-1.46-.06a15.35,15.35,0,0,0-4.09.55h-.07c-8.33,2.25-14.25,11-14.25,20.25,0,12.31,9,20.46,18.41,20.46,10.07,0,14.83-4.81,17.17-8.77h-2.31M703,32.13c1.53-2.8,3.72-4.36,6.05-4.65h0c.14,0,.28,0,.41,0l.35,0h.06a1.09,1.09,0,0,1,.18,0h.07c7,0,9.4,8.28,9.51,14.56H700.91A32.28,32.28,0,0,1,703,32.13"/><path d="M675.86,32.74c-2.84-3.42-7.09-5.7-11.27-5.61-6.49,0-11.1,3.29-12.62,5.28V27.64h-9.38v.55c.43,0,1.79,0,1.79,1.38V87.26c0,3.06-4.79,4-5.33,4h0v.55h13.12V62.54a8.38,8.38,0,0,0,4.33,3.8,15.47,15.47,0,0,0,4.17,1c.35,0,.71,0,1.1,0,10.44.08,18.66-8.61,18.66-20.73a22.29,22.29,0,0,0-4.55-13.88M659.43,65.23a5.54,5.54,0,0,1-2.3-.46,7.27,7.27,0,0,1-4.46-4.93,12.09,12.09,0,0,1-.53-2.4L652,38.78c0-.4,0-.8.11-1.2h0c0-4.58,5.29-7.73,8.16-7.73,3.35,0,5.81.76,8.12,3.58,2.76,3.42,4,8.16,4,12.82,0,9.13-4.32,19-12.9,19"/><path class="cls-1" d="M11.48,166.67l7.73,22.25h.09l7.87-22.25H38.34v.63H34.22v30.56h4.12v.63H23.68v-.63h4.07V167.3h-.09l-11,31.19H16l-11-31.19H4.83v30.56H8.94v.63H0v-.63H4.11V167.3H0v-.63Z"/><path class="cls-1" d="M75.91,166.67v.63H72.38l9.12,15.59,8.22-15.59H85.83v-.63h8.53v.63H90.48l-8.63,16.4v14.16H86v.63H71.26v-.63h4.12V185.39L65,167.3H61.52v-.63Z"/><path class="cls-1" d="M167.5,166.67v.63h-4.11v30.56h7.38a9.43,9.43,0,0,0,3-.49,8.31,8.31,0,0,0,2.81-1.63,11.36,11.36,0,0,0,2.37-3,15.6,15.6,0,0,0,1.63-4.4h.58v10.1H152.8v-.63h4.12V167.3H152.8v-.63Z"/><path class="cls-1" d="M221.79,166.67v.63h-4.11v30.56h4.11v.63h-14.7v-.63h4.11V167.3h-4.11v-.63Z"/><path class="cls-1" d="M256.77,167.3a12,12,0,0,0-2.95.33,6.28,6.28,0,0,0-2.32,1.17,7.55,7.55,0,0,0-1.83,2.3,19.12,19.12,0,0,0-1.48,3.75h-.58v-8.18h28v8.18h-.58a19.12,19.12,0,0,0-1.48-3.75,7.26,7.26,0,0,0-1.83-2.3,6.2,6.2,0,0,0-2.32-1.17,12,12,0,0,0-2.95-.33h-1.61v30.56H269v.63h-14.7v-.63h4.11V167.3Z"/><path class="cls-1" d="M310.61,167.3a12,12,0,0,0-2.95.33,6.2,6.2,0,0,0-2.32,1.17,7.26,7.26,0,0,0-1.83,2.3,19.12,19.12,0,0,0-1.48,3.75h-.58v-8.18h28v8.18h-.58a19.12,19.12,0,0,0-1.48-3.75,7.26,7.26,0,0,0-1.83-2.3,6.28,6.28,0,0,0-2.32-1.17,12,12,0,0,0-2.95-.33H318.7v30.56h4.11v.63h-14.7v-.63h4.11V167.3Z"/><path class="cls-1" d="M370.3,166.67v.63h-4.11v30.56h7.38a9.43,9.43,0,0,0,3-.49,8.31,8.31,0,0,0,2.81-1.63,11.36,11.36,0,0,0,2.37-3,15.6,15.6,0,0,0,1.63-4.4h.58v10.1H355.6v-.63h4.11V167.3H355.6v-.63Z"/><path class="cls-1" d="M436.52,166.67v7.64h-.58a15.89,15.89,0,0,0-.76-1.94,9.64,9.64,0,0,0-1.5-2.3,8.81,8.81,0,0,0-2.48-1.94,7.68,7.68,0,0,0-3.71-.83h-7.1v13.81h2.5a7.39,7.39,0,0,0,2.79-.47,5,5,0,0,0,1.9-1.34,7.13,7.13,0,0,0,1.25-2.1,16.24,16.24,0,0,0,.81-2.75h.58v13.89h-.58c-.21-.86-.46-1.69-.74-2.5a7.3,7.3,0,0,0-1.14-2.12,5.15,5.15,0,0,0-1.76-1.45,5.68,5.68,0,0,0-2.62-.54h-3v16.13h7.33a9.58,9.58,0,0,0,3.71-.69,9.12,9.12,0,0,0,2.92-1.95,11,11,0,0,0,2.12-2.92,15.9,15.9,0,0,0,1.3-3.6h.58v9.79H409.8v-.63h4.11V167.3H409.8v-.63Z"/><path class="cls-1" d="M514.33,192.14a8.25,8.25,0,0,1-1,3.2,7.26,7.26,0,0,1-2.66,2.65,9.69,9.69,0,0,1-5.11,1.12,15.56,15.56,0,0,1-2.41-.2,7.19,7.19,0,0,1-2.28-.74,4.65,4.65,0,0,1-1.7-1.47,4,4,0,0,1-.67-2.37c0-.15,0-.39,0-.74a2.44,2.44,0,0,1,.38-1.05,3.29,3.29,0,0,1,1-1,4.12,4.12,0,0,1,2.06-.42,5.13,5.13,0,0,1,.82.07,2.64,2.64,0,0,1,.9.29,1.84,1.84,0,0,1,1,1.78,4.72,4.72,0,0,1-.09.81c-.06.33-.13.67-.22,1s-.16.69-.22,1a3.72,3.72,0,0,0-.09.62,1.85,1.85,0,0,0,.24,1,1.48,1.48,0,0,0,.56.51,1.55,1.55,0,0,0,.65.18l.51,0a1.81,1.81,0,0,0,1.14-.3,1.62,1.62,0,0,0,.56-.73,2.79,2.79,0,0,0,.2-1c0-.34,0-.65,0-.92V167.3H503.9v-.63h14.69v.63h-4.11v22.07C514.48,190.12,514.43,191,514.33,192.14Z"/><path class="cls-1" d="M570.56,166.67v7.64H570a17.73,17.73,0,0,0-.76-1.94,9.64,9.64,0,0,0-1.5-2.3,8.81,8.81,0,0,0-2.48-1.94,7.68,7.68,0,0,0-3.71-.83h-7.1v13.81h2.5a7.39,7.39,0,0,0,2.79-.47,5.12,5.12,0,0,0,1.9-1.34,7.35,7.35,0,0,0,1.25-2.1,16.24,16.24,0,0,0,.81-2.75h.58v13.89h-.58c-.21-.86-.46-1.69-.74-2.5a7.3,7.3,0,0,0-1.14-2.12,5.19,5.19,0,0,0-1.77-1.45,5.67,5.67,0,0,0-2.61-.54h-3v16.13h7.32a9.54,9.54,0,0,0,3.71-.69,9.16,9.16,0,0,0,2.93-1.95,11,11,0,0,0,2.12-2.92,15.9,15.9,0,0,0,1.3-3.6h.58v9.79H543.84v-.63H548V167.3h-4.11v-.63Z"/><path class="cls-1" d="M610,166.67v.63H606.7l8,23.55h.09l4.7-13.32L616,167.3h-2.41v-.63H627v.63h-4.16l8.09,23.59H631l8.26-23.59h-3.84v-.63h8.22v.63H640l-11.48,32.39h-1.29l-7.33-21.13h-.09l-7.51,21.13H611L600,167.3h-3.67v-.63Z"/><path class="cls-1" d="M693.83,166.67v7.64h-.58a17.73,17.73,0,0,0-.76-1.94,9.64,9.64,0,0,0-1.5-2.3,8.81,8.81,0,0,0-2.48-1.94,7.68,7.68,0,0,0-3.71-.83h-7.1v13.81h2.5a7.39,7.39,0,0,0,2.79-.47,5.12,5.12,0,0,0,1.9-1.34,7.35,7.35,0,0,0,1.25-2.1,16.24,16.24,0,0,0,.81-2.75h.58v13.89H687c-.21-.86-.46-1.69-.74-2.5a7.3,7.3,0,0,0-1.14-2.12,5.25,5.25,0,0,0-1.76-1.45,5.74,5.74,0,0,0-2.62-.54h-3v16.13H685a9.51,9.51,0,0,0,3.71-.69,9.05,9.05,0,0,0,2.93-1.95,11,11,0,0,0,2.12-2.92,15.9,15.9,0,0,0,1.3-3.6h.58v9.79H667.11v-.63h4.11V167.3h-4.11v-.63Z"/><path class="cls-1" d="M736.81,166.67v.63H732.7v30.56h7.37a9.43,9.43,0,0,0,3-.49,8.26,8.26,0,0,0,2.82-1.63,11.79,11.79,0,0,0,2.37-3,15.91,15.91,0,0,0,1.63-4.4h.58v10.1H722.11v-.63h4.11V167.3h-4.11v-.63Z"/><path class="cls-1" d="M778.14,188.57c.06.35.16.82.31,1.4a12.42,12.42,0,0,0,.65,1.88,15.07,15.07,0,0,0,1.07,2.06,9.66,9.66,0,0,0,1.59,1.94,9,9,0,0,0,2,1.56,8.29,8.29,0,0,0,1.84.78,6.31,6.31,0,0,0,1.65.27l1.45,0a8.93,8.93,0,0,0,3.89-.74,7,7,0,0,0,2.39-1.81,6.7,6.7,0,0,0,1.23-2.26,7.26,7.26,0,0,0,.36-2.07,4.53,4.53,0,0,0-.79-2.73,6.37,6.37,0,0,0-2.07-1.79,15,15,0,0,0-3-1.2l-3.4-1a31.21,31.21,0,0,1-3.4-1.21,11.15,11.15,0,0,1-2.94-1.78,8,8,0,0,1-2.08-2.71,9.17,9.17,0,0,1-.78-4,7.74,7.74,0,0,1,.8-3.44,9.39,9.39,0,0,1,2.24-2.92,11.25,11.25,0,0,1,3.41-2.06,11.74,11.74,0,0,1,4.31-.78,11.17,11.17,0,0,1,2.6.27,20.1,20.1,0,0,1,2,.56c.57.19,1.07.38,1.5.55a3.11,3.11,0,0,0,1.18.27,1.23,1.23,0,0,0,.83-.2,2.44,2.44,0,0,0,.42-.74h.72v8.49h-.58c-.36-1-.74-2.07-1.14-3.08a11.68,11.68,0,0,0-1.54-2.75,7.29,7.29,0,0,0-2.37-2,7.74,7.74,0,0,0-3.62-.76,9.21,9.21,0,0,0-3.15.5,7.18,7.18,0,0,0-2.3,1.29,5.71,5.71,0,0,0-1.43,1.79,4.38,4.38,0,0,0-.49,2,4,4,0,0,0,.82,2.59,7.4,7.4,0,0,0,2.17,1.77,17.27,17.27,0,0,0,3.06,1.27l3.53,1.12c1.21.38,2.38.81,3.53,1.27a12.05,12.05,0,0,1,3.06,1.76,8.38,8.38,0,0,1,2.17,2.6,7.76,7.76,0,0,1,.83,3.75,9.84,9.84,0,0,1-.9,4.15,10.28,10.28,0,0,1-2.52,3.44,12.33,12.33,0,0,1-3.89,2.35,14.64,14.64,0,0,1-7.77.6c-.91-.18-1.76-.36-2.55-.56s-1.49-.38-2.1-.55a5.43,5.43,0,0,0-1.36-.27,1.5,1.5,0,0,0-.9.2,1.76,1.76,0,0,0-.49.83h-.71v-9.92Z"/></svg>