<svg id="Calque_1" data-name="Calque 1" xmlns="http://www.w3.org/2000/svg" viewBox="0 0 1600 304.89"><defs><style>.cls-1{fill:#1C1717;}</style></defs><title>icons</title><path class="cls-1" d="M158.14,246.32H3.8a3.8,3.8,0,1,1,0-7.59H158.14a3.8,3.8,0,0,1,0,7.59Z"/><path class="cls-1" d="M81,175.67a19,19,0,1,1,19-19A19,19,0,0,1,81,175.67Zm0-30.43a11.42,11.42,0,1,0,11.42,11.42A11.43,11.43,0,0,0,81,145.24Z"/><path class="cls-1" d="M97.36,245.41H64.57a3.8,3.8,0,0,1-3.75-4.33L71,170a3.79,3.79,0,0,1,5.32-2.92,11.35,11.35,0,0,0,9.37,0A3.79,3.79,0,0,1,91,170l10.14,71.1a3.8,3.8,0,0,1-3.75,4.33ZM69,237.82H93l-8.9-62.41a19.15,19.15,0,0,1-6.23,0Z"/><path class="cls-1" d="M135.14,198.47a35.66,35.66,0,0,1-6.1-.57c-7.6-1.31-16.59-4.81-25.33-9.85a84,84,0,0,1-19.33-14.92,3.8,3.8,0,0,1,1.23-6,11.36,11.36,0,0,0,6.33-13.56,3.79,3.79,0,0,1,4.35-4.77c7.46,1.41,16.17,4.84,24.53,9.66,8.74,5.05,16.26,11.09,21.2,17,7.36,8.84,6.69,14.54,4.83,17.77C145.36,195.77,142.14,198.47,135.14,198.47ZM93.21,171.19a84.43,84.43,0,0,0,14.29,10.29c8,4.6,16.09,7.78,22.83,8.94,5.85,1,9.25.18,9.94-1s-.29-4.56-4.09-9.12C131.81,175,125,169.6,117,165h0A80.78,80.78,0,0,0,100,157.46,19.07,19.07,0,0,1,93.21,171.19Z"/><path class="cls-1" d="M90.33,148.47a3.79,3.79,0,0,1-2.34-.8,11.51,11.51,0,0,0-14,0A3.79,3.79,0,0,1,68.05,146c-2.71-7.25-4.19-16.83-4.19-27,0-19.84,5.87-39.93,17.11-39.93S98.08,99.18,98.08,119c0,10.15-1.49,19.73-4.19,27a3.82,3.82,0,0,1-2.53,2.33A3.65,3.65,0,0,1,90.33,148.47ZM81,137.64a18.87,18.87,0,0,1,7.16,1.4,79.6,79.6,0,0,0,2.35-20C90.48,99,84.32,86.68,81,86.68S71.45,99,71.45,119a79.6,79.6,0,0,0,2.35,20A18.89,18.89,0,0,1,81,137.64Z"/><path class="cls-1" d="M26.79,198.47c-7,0-10.22-2.7-11.71-5.27-5.61-9.73,8.85-24.86,26-34.79,8.36-4.82,17.07-8.25,24.53-9.66A3.79,3.79,0,0,1,70,153.52a11.72,11.72,0,0,0-.44,3.14,11.44,11.44,0,0,0,6.77,10.42,3.8,3.8,0,0,1,1.23,6,83.76,83.76,0,0,1-19.33,14.92c-8.73,5-17.73,8.54-25.33,9.85A35.66,35.66,0,0,1,26.79,198.47Zm35.18-41A81.58,81.58,0,0,0,44.91,165C27.54,175,20,186.5,21.66,189.4c.69,1.2,4.09,2,9.94,1,6.74-1.16,14.85-4.34,22.83-8.94a84.43,84.43,0,0,0,14.29-10.29A19.08,19.08,0,0,1,62,157.45Z"/><path class="cls-1" d="M397.81,246.32H243.47a3.8,3.8,0,0,1,0-7.59H397.81a3.8,3.8,0,1,1,0,7.59Z"/><path class="cls-1" d="M385.16,246.32H370a3.79,3.79,0,0,1-3.79-3.79V221H323.33a3.8,3.8,0,0,1-3.8-3.79V190.79a3.82,3.82,0,0,1,1.52-3c.53-.39,13.11-9.65,33.2-9.65s32.67,9.26,33.19,9.65a3.79,3.79,0,0,1,1.52,3v51.74A3.8,3.8,0,0,1,385.16,246.32Zm-11.38-7.59h7.59V192.85a54.94,54.94,0,0,0-54.24,0v20.6H370a3.8,3.8,0,0,1,3.8,3.8Z"/><path class="cls-1" d="M304.2,246.32H258.65a3.79,3.79,0,0,1-3.56-5.09c14.41-39.46,17.51-59.6,15.78-102.61a3.79,3.79,0,0,1,3.79-4h59.16a3.79,3.79,0,0,1,3.79,4c-.77,19.17-.46,33.38,1,46.09a3.79,3.79,0,0,1-2.52,4,47.33,47.33,0,0,0-9,4.12v24.4a3.8,3.8,0,0,1-3.8,3.79H308v21.49A3.79,3.79,0,0,1,304.2,246.32Zm-40.15-7.59H300.4V217.25a3.8,3.8,0,0,1,3.8-3.8h15.33V190.79a3.78,3.78,0,0,1,1.53-3,46.74,46.74,0,0,1,9.7-5.13c-1.15-11.44-1.43-24.15-.88-40.35H278.6C279.93,181.53,276.73,203,264.05,238.73Z"/><path class="cls-1" d="M637.49,246.32H483.15a3.8,3.8,0,0,1,0-7.59H637.49a3.8,3.8,0,1,1,0,7.59Z"/><path class="cls-1" d="M586.89,246.32H502.28a3.79,3.79,0,0,1-3.79-3.79V200.17a3.8,3.8,0,0,1,2.19-3.44L543,177a3.83,3.83,0,0,1,3.21,0l42.3,19.71a3.8,3.8,0,0,1,2.19,3.44v42.36A3.79,3.79,0,0,1,586.89,246.32Zm-80.81-7.59h77V202.59l-38.51-17.94-38.5,17.94Z"/><path class="cls-1" d="M619.78,246.32H586.89a3.8,3.8,0,0,1-3.8-3.79V212.8a3.79,3.79,0,0,1,4.92-3.62L620.9,219.3a3.8,3.8,0,0,1,2.68,3.62v19.61A3.8,3.8,0,0,1,619.78,246.32Zm-29.1-7.59H616v-13l-25.31-7.79Z"/><path class="cls-1" d="M877.17,246.32H722.83a3.8,3.8,0,1,1,0-7.59H877.17a3.8,3.8,0,1,1,0,7.59Z"/><path class="cls-1" d="M768.37,162.83H753.19a3.8,3.8,0,0,1-3.79-3.8V138.79a3.79,3.79,0,0,1,3.79-3.79h15.18a3.8,3.8,0,0,1,3.8,3.79V159A3.8,3.8,0,0,1,768.37,162.83ZM757,155.24h7.59V142.59H757Z"/><path class="cls-1" d="M803.8,162.83H788.61a3.8,3.8,0,0,1-3.79-3.8V138.79a3.79,3.79,0,0,1,3.79-3.79H803.8a3.79,3.79,0,0,1,3.79,3.79V159A3.8,3.8,0,0,1,803.8,162.83Zm-11.39-7.59H800V142.59h-7.59Z"/><path class="cls-1" d="M803.8,213.43H788.61a3.79,3.79,0,0,1-3.79-3.79V189.39a3.79,3.79,0,0,1,3.79-3.79H803.8a3.79,3.79,0,0,1,3.79,3.79v20.25A3.79,3.79,0,0,1,803.8,213.43Zm-11.39-7.59H800V193.19h-7.59Z"/><path class="cls-1" d="M768.37,213.43H753.19a3.79,3.79,0,0,1-3.79-3.79V189.39a3.79,3.79,0,0,1,3.79-3.79h15.18a3.8,3.8,0,0,1,3.8,3.79v20.25A3.8,3.8,0,0,1,768.37,213.43ZM757,205.84h7.59V193.19H757Z"/><path class="cls-1" d="M839.22,213.43H824a3.8,3.8,0,0,1-3.8-3.79V189.39a3.8,3.8,0,0,1,3.8-3.79h15.18a3.79,3.79,0,0,1,3.79,3.79v20.25A3.79,3.79,0,0,1,839.22,213.43Zm-11.39-7.59h7.59V193.19h-7.59Z"/><path class="cls-1" d="M839.22,162.83H824a3.8,3.8,0,0,1-3.8-3.8V138.79A3.8,3.8,0,0,1,824,135h15.18a3.79,3.79,0,0,1,3.79,3.79V159A3.8,3.8,0,0,1,839.22,162.83Zm-11.39-7.59h7.59V142.59h-7.59Z"/><path class="cls-1" d="M796.2,246.32H730.42a3.79,3.79,0,0,1-3.79-3.79V229.88a3.79,3.79,0,0,1,3.79-3.8H796.2a3.8,3.8,0,0,1,3.8,3.8v12.65A3.8,3.8,0,0,1,796.2,246.32Zm-62-7.59h58.19v-5.06H734.22Z"/><path class="cls-1" d="M864.52,246.32H824a3.8,3.8,0,0,1-3.8-3.79V229.88a3.8,3.8,0,0,1,3.8-3.8h40.48a3.8,3.8,0,0,1,3.79,3.8v12.65A3.79,3.79,0,0,1,864.52,246.32Zm-36.69-7.59h32.89v-5.06H827.83Z"/><path class="cls-1" d="M824,246.32H796.2a3.79,3.79,0,0,1-3.79-3.79v-8.86H753.19a3.79,3.79,0,0,1-3.79-3.79V209.64a3.8,3.8,0,0,1,3.79-3.8h11.39V193.19H753.19a3.8,3.8,0,0,1-3.79-3.8V159a3.79,3.79,0,0,1,3.79-3.79h11.39V142.59H753.19a3.8,3.8,0,0,1-3.79-3.8V126.14a3.79,3.79,0,0,1,3.79-3.79h86a3.79,3.79,0,0,1,3.79,3.79v12.65a3.8,3.8,0,0,1-3.79,3.8H827.83v12.65h11.39A3.79,3.79,0,0,1,843,159v30.36a3.8,3.8,0,0,1-3.79,3.8H827.83v12.65h11.39a3.8,3.8,0,0,1,3.79,3.8v20.24a3.79,3.79,0,0,1-3.79,3.79H827.83v8.86A3.79,3.79,0,0,1,824,246.32Zm-24-7.59h20.24v-8.85a3.8,3.8,0,0,1,3.8-3.8h11.38V213.43H824a3.8,3.8,0,0,1-3.8-3.79V189.39a3.8,3.8,0,0,1,3.8-3.79h11.38V162.83H824a3.8,3.8,0,0,1-3.8-3.8V138.79A3.8,3.8,0,0,1,824,135h11.38v-5.06H757V135h11.38a3.8,3.8,0,0,1,3.8,3.79V159a3.8,3.8,0,0,1-3.8,3.8H757V185.6h11.38a3.8,3.8,0,0,1,3.8,3.79v20.25a3.8,3.8,0,0,1-3.8,3.79H757v12.65H796.2a3.8,3.8,0,0,1,3.8,3.8Z"/><path class="cls-1" d="M1116.85,246.32H962.51a3.8,3.8,0,1,1,0-7.59h154.34a3.8,3.8,0,0,1,0,7.59Z"/><path class="cls-1" d="M994.14,245.06a3.8,3.8,0,0,1-3.8-3.8v-24a3.8,3.8,0,1,1,7.59,0v24A3.8,3.8,0,0,1,994.14,245.06Z"/><path class="cls-1" d="M967.57,231.14a3.8,3.8,0,0,1-2.69-6.48l43-43a3.79,3.79,0,0,1,5.36,5.37l-43,43A3.78,3.78,0,0,1,967.57,231.14Z"/><path class="cls-1" d="M1042.21,245.06a3.8,3.8,0,0,1-3.8-3.8v-24a3.8,3.8,0,1,1,7.59,0v24A3.8,3.8,0,0,1,1042.21,245.06Z"/><path class="cls-1" d="M1015.64,231.14a3.8,3.8,0,0,1-2.68-6.48l43-43a3.8,3.8,0,0,1,5.37,5.37l-43,43A3.78,3.78,0,0,1,1015.64,231.14Z"/><path class="cls-1" d="M1090.28,245.06a3.8,3.8,0,0,1-3.79-3.8v-24a3.8,3.8,0,1,1,7.59,0v24A3.8,3.8,0,0,1,1090.28,245.06Z"/><path class="cls-1" d="M1063.71,231.14a3.8,3.8,0,0,1-2.68-6.48l43-43a3.8,3.8,0,0,1,5.37,5.37l-43,43A3.78,3.78,0,0,1,1063.71,231.14Z"/><path class="cls-1" d="M1356.53,246.32H1202.19a3.8,3.8,0,1,1,0-7.59h154.34a3.8,3.8,0,0,1,0,7.59Z"/><path class="cls-1" d="M1255.32,246.32H1219.9a3.8,3.8,0,0,1-3.8-3.79v-81a3.8,3.8,0,0,1,3.8-3.79h35.42a3.79,3.79,0,0,1,3.79,3.79v81A3.79,3.79,0,0,1,1255.32,246.32Zm-31.63-7.59h27.83V165.36h-27.83Z"/><path class="cls-1" d="M1288.21,246.32h-32.89a3.8,3.8,0,0,1-3.8-3.79V165.36h-16.44a3.8,3.8,0,0,1-3.8-3.8V93.25a3.8,3.8,0,0,1,3.8-3.8h53.13a3.8,3.8,0,0,1,3.8,3.8V242.53A3.8,3.8,0,0,1,1288.21,246.32Zm-29.1-7.59h25.31V97h-45.55v60.73h16.45a3.79,3.79,0,0,1,3.79,3.79Z"/><path class="cls-1" d="M1283.15,97h-43a3.79,3.79,0,0,1-3.66-4.81L1254.2,29a3.79,3.79,0,0,1,3.65-2.77h7.59a3.78,3.78,0,0,1,3.65,2.77l17.72,63.26a3.79,3.79,0,0,1-3.66,4.81Zm-38-7.59h33l-15.59-55.66h-1.83Z"/><path class="cls-1" d="M1338.82,246.32h-50.61a3.79,3.79,0,0,1-3.79-3.79V186.86a3.79,3.79,0,0,1,3.79-3.79h50.61a3.79,3.79,0,0,1,3.79,3.79v55.67A3.79,3.79,0,0,1,1338.82,246.32ZM1292,238.73h43V190.66h-43Z"/><path class="cls-1" d="M1596.2,246.32H1441.86a3.8,3.8,0,0,1,0-7.59H1596.2a3.8,3.8,0,1,1,0,7.59Z"/><path class="cls-1" d="M1489.94,246.32h-40.49a3.79,3.79,0,0,1-3.79-3.79V209.64a3.8,3.8,0,0,1,3.79-3.8h40.49a3.8,3.8,0,0,1,3.79,3.8v32.89A3.79,3.79,0,0,1,1489.94,246.32Zm-36.69-7.59h32.89v-25.3h-32.89Z"/><path class="cls-1" d="M1586.08,246.32h-27.83a3.79,3.79,0,0,1-3.79-3.79V227.35a3.8,3.8,0,0,1,3.79-3.8h27.83a3.8,3.8,0,0,1,3.8,3.8v15.18A3.8,3.8,0,0,1,1586.08,246.32Zm-24-7.59h20.24v-7.59h-20.24Z"/><path class="cls-1" d="M1570.9,228.61a3.79,3.79,0,0,1-3.79-3.79V213.37c-13.3-.38-58.06-2.93-91.09-20.05v15.05a3.8,3.8,0,1,1-7.59,0V186.86a3.8,3.8,0,0,1,5.75-3.25c36.59,21.95,96.13,22.23,96.72,22.23a3.8,3.8,0,0,1,3.8,3.8v15.18A3.8,3.8,0,0,1,1570.9,228.61Z"/><path class="cls-1" d="M1514.5,189.38a3.84,3.84,0,0,1-1.48-.3,3.79,3.79,0,0,1-2.21-4.37l7.66-32.42h-7.28a3.79,3.79,0,0,1-3.76-4.24l4.45-37.66a3.8,3.8,0,0,1,3.77-3.35h23.43a3.8,3.8,0,0,1,3.5,5.28L1535,130.19h12.54a3.79,3.79,0,0,1,3.19,5.84l-33.06,51.6A3.8,3.8,0,0,1,1514.5,189.38Zm1-44.68h7.81a3.83,3.83,0,0,1,3,1.44,3.78,3.78,0,0,1,.71,3.23l-3.64,15.42,17.31-27h-11.32a3.81,3.81,0,0,1-3.5-5.28l7.55-17.87H1519Z"/></svg>