<svg id="Calque_1" data-name="Calque 1" xmlns="http://www.w3.org/2000/svg" viewBox="0 0 1600 568.73"><defs><style>.cls-1,.cls-10{fill:#1C1717;}.cls-2{fill:#fff;}.cls-3{fill:#006ab4;}.cls-4{fill:#0091f5;}.cls-5{fill:#bfbfbf;}.cls-6{fill:#d6d6d6;}.cls-7{fill:#ab0000;}.cls-8{fill:#de3333;}.cls-9{fill:#8acfff;}.cls-10{font-size:36.27px;font-family:Montserrat-Bold, Montserrat;font-weight:700;}.cls-11{letter-spacing:-0.01em;}.cls-12{letter-spacing:0.01em;}.cls-13{letter-spacing:-0.02em;}.cls-14{letter-spacing:0.01em;}.cls-15{letter-spacing:0.01em;}.cls-16{letter-spacing:-0.01em;}.cls-17{letter-spacing:-0.01em;}</style></defs><title>network</title><path class="cls-1" d="M456.61,542l-.84-.34L10.91,366.42v-39l1-.19L708.29,192.13v39.08l-.28.34ZM13.39,364.73,455.83,539.06l250-308.73V195.14L13.39,329.46Z"/><polygon class="cls-2" points="456.22 503.41 12.15 328.44 262.97 18.66 707.05 193.63 456.22 503.41"/><path class="cls-1" d="M456.61,504.9l-.84-.34L10.12,329,262.58,17.17l.85.34L709.08,193.1ZM14.18,327.9l441.65,174L705,194.16l-441.66-174Z"/><path class="cls-1" d="M165.38,305.1a12.17,12.17,0,0,1-4.5-.83c-4.41-1.73-6-5.63-3.47-8.7l140.2-173.16c2.49-3.07,8.08-4.15,12.49-2.42s6,5.64,3.47,8.71L173.37,301.85C171.68,303.93,168.58,305.1,165.38,305.1Z"/><path class="cls-1" d="M165.38,305.1c-4.95,0-9-2.75-9.15-6.22s3.86-6.47,8.92-6.56L402.53,288c5.07-.09,9.27,2.69,9.4,6.22s-3.86,6.47-8.92,6.56L165.63,305.1Z"/><path class="cls-1" d="M393.57,427.64a11.81,11.81,0,0,1-5.58-1.33L159.8,303.77c-4-2.15-4.76-6.16-1.67-9s8.83-3.32,12.85-1.17L399.17,416.18c4,2.15,4.76,6.17,1.67,9A11,11,0,0,1,393.57,427.64Z"/><path class="cls-1" d="M393.59,427.64h-.48c-5.05-.18-8.94-3.18-8.68-6.71L393.62,294c.26-3.53,4.51-6.24,9.62-6.06s8.94,3.18,8.68,6.7l-9.19,126.89C402.48,425,398.43,427.64,393.59,427.64Z"/><ellipse class="cls-1" cx="274.73" cy="48.14" rx="4.07" ry="2.84"/><ellipse class="cls-1" cx="254.7" cy="72.88" rx="4.07" ry="2.84"/><ellipse class="cls-1" cx="234.67" cy="97.61" rx="4.07" ry="2.84"/><ellipse class="cls-1" cx="214.64" cy="122.35" rx="4.07" ry="2.84"/><ellipse class="cls-1" cx="194.61" cy="147.09" rx="4.07" ry="2.84"/><ellipse class="cls-1" cx="174.58" cy="171.82" rx="4.07" ry="2.84"/><ellipse class="cls-1" cx="154.55" cy="196.56" rx="4.07" ry="2.84"/><ellipse class="cls-1" cx="134.53" cy="221.29" rx="4.07" ry="2.84"/><ellipse class="cls-1" cx="114.5" cy="246.03" rx="4.07" ry="2.84"/><ellipse class="cls-1" cx="94.47" cy="270.77" rx="4.07" ry="2.84"/><ellipse class="cls-1" cx="74.44" cy="295.5" rx="4.07" ry="2.84"/><ellipse class="cls-1" cx="54.41" cy="320.24" rx="4.07" ry="2.84"/><ellipse class="cls-1" cx="310.19" cy="62.11" rx="4.07" ry="2.84"/><ellipse class="cls-1" cx="290.16" cy="86.85" rx="4.07" ry="2.84"/><ellipse class="cls-1" cx="270.13" cy="111.59" rx="4.07" ry="2.84"/><ellipse class="cls-1" cx="250.1" cy="136.32" rx="4.07" ry="2.84"/><ellipse class="cls-1" cx="230.07" cy="161.06" rx="4.07" ry="2.84"/><ellipse class="cls-1" cx="210.04" cy="185.79" rx="4.07" ry="2.84"/><ellipse class="cls-1" cx="190.01" cy="210.53" rx="4.07" ry="2.84"/><ellipse class="cls-1" cx="169.99" cy="235.27" rx="4.07" ry="2.84"/><ellipse class="cls-1" cx="149.96" cy="260" rx="4.07" ry="2.84"/><ellipse class="cls-1" cx="129.93" cy="284.74" rx="4.07" ry="2.84"/><ellipse class="cls-1" cx="109.9" cy="309.47" rx="4.07" ry="2.84"/><ellipse class="cls-1" cx="89.87" cy="334.21" rx="4.07" ry="2.84"/><ellipse class="cls-1" cx="345.65" cy="76.08" rx="4.07" ry="2.84"/><ellipse class="cls-1" cx="325.62" cy="100.82" rx="4.07" ry="2.84"/><ellipse class="cls-1" cx="305.59" cy="125.56" rx="4.07" ry="2.84"/><ellipse class="cls-1" cx="285.56" cy="150.29" rx="4.07" ry="2.84"/><ellipse class="cls-1" cx="265.53" cy="175.03" rx="4.07" ry="2.84"/><ellipse class="cls-1" cx="245.5" cy="199.76" rx="4.07" ry="2.84"/><ellipse class="cls-1" cx="225.47" cy="224.5" rx="4.07" ry="2.84"/><ellipse class="cls-1" cx="205.44" cy="249.24" rx="4.07" ry="2.84"/><ellipse class="cls-1" cx="185.42" cy="273.97" rx="4.07" ry="2.84"/><ellipse class="cls-1" cx="165.39" cy="298.71" rx="4.07" ry="2.84"/><ellipse class="cls-1" cx="145.36" cy="323.44" rx="4.07" ry="2.84"/><ellipse class="cls-1" cx="125.33" cy="348.18" rx="4.07" ry="2.84"/><ellipse class="cls-1" cx="381.11" cy="90.06" rx="4.07" ry="2.84"/><ellipse class="cls-1" cx="361.08" cy="114.79" rx="4.07" ry="2.84"/><ellipse class="cls-1" cx="341.05" cy="139.53" rx="4.07" ry="2.84"/><ellipse class="cls-1" cx="321.02" cy="164.26" rx="4.07" ry="2.84"/><ellipse class="cls-1" cx="300.99" cy="189" rx="4.07" ry="2.84"/><ellipse class="cls-1" cx="280.96" cy="213.74" rx="4.07" ry="2.84"/><ellipse class="cls-1" cx="260.93" cy="238.47" rx="4.07" ry="2.84"/><ellipse class="cls-1" cx="240.9" cy="263.21" rx="4.07" ry="2.84"/><ellipse class="cls-1" cx="220.88" cy="287.94" rx="4.07" ry="2.84"/><ellipse class="cls-1" cx="200.85" cy="312.68" rx="4.07" ry="2.84"/><ellipse class="cls-1" cx="180.82" cy="337.42" rx="4.07" ry="2.84"/><ellipse class="cls-1" cx="160.79" cy="362.15" rx="4.07" ry="2.84"/><ellipse class="cls-1" cx="416.57" cy="104.03" rx="4.07" ry="2.84"/><ellipse class="cls-1" cx="396.54" cy="128.76" rx="4.07" ry="2.84"/><ellipse class="cls-1" cx="376.51" cy="153.5" rx="4.07" ry="2.84"/><ellipse class="cls-1" cx="356.48" cy="178.24" rx="4.07" ry="2.84"/><ellipse class="cls-1" cx="336.45" cy="202.97" rx="4.07" ry="2.84"/><ellipse class="cls-1" cx="316.42" cy="227.71" rx="4.07" ry="2.84"/><ellipse class="cls-1" cx="296.39" cy="252.44" rx="4.07" ry="2.84"/><ellipse class="cls-1" cx="276.36" cy="277.18" rx="4.07" ry="2.84"/><ellipse class="cls-1" cx="256.34" cy="301.92" rx="4.07" ry="2.84"/><ellipse class="cls-1" cx="236.31" cy="326.65" rx="4.07" ry="2.84"/><ellipse class="cls-1" cx="216.28" cy="351.39" rx="4.07" ry="2.84"/><ellipse class="cls-1" cx="196.25" cy="376.12" rx="4.07" ry="2.84"/><ellipse class="cls-1" cx="452.03" cy="118" rx="4.07" ry="2.84"/><ellipse class="cls-1" cx="432" cy="142.74" rx="4.07" ry="2.84"/><ellipse class="cls-1" cx="411.97" cy="167.47" rx="4.07" ry="2.84"/><ellipse class="cls-1" cx="391.94" cy="192.21" rx="4.07" ry="2.84"/><ellipse class="cls-1" cx="371.91" cy="216.94" rx="4.07" ry="2.84"/><ellipse class="cls-1" cx="351.88" cy="241.68" rx="4.07" ry="2.84"/><ellipse class="cls-1" cx="331.85" cy="266.42" rx="4.07" ry="2.84"/><ellipse class="cls-1" cx="311.82" cy="291.15" rx="4.07" ry="2.84"/><ellipse class="cls-1" cx="291.8" cy="315.89" rx="4.07" ry="2.84"/><ellipse class="cls-1" cx="271.77" cy="340.62" rx="4.07" ry="2.84"/><ellipse class="cls-1" cx="251.74" cy="365.36" rx="4.07" ry="2.84"/><ellipse class="cls-1" cx="231.71" cy="390.1" rx="4.07" ry="2.84"/><ellipse class="cls-1" cx="487.49" cy="131.97" rx="4.07" ry="2.84"/><ellipse class="cls-1" cx="467.46" cy="156.71" rx="4.07" ry="2.84"/><ellipse class="cls-1" cx="447.43" cy="181.44" rx="4.07" ry="2.84"/><ellipse class="cls-1" cx="427.4" cy="206.18" rx="4.07" ry="2.84"/><ellipse class="cls-1" cx="407.37" cy="230.92" rx="4.07" ry="2.84"/><ellipse class="cls-1" cx="387.34" cy="255.65" rx="4.07" ry="2.84"/><ellipse class="cls-1" cx="367.31" cy="280.39" rx="4.07" ry="2.84"/><ellipse class="cls-1" cx="347.28" cy="305.12" rx="4.07" ry="2.84"/><ellipse class="cls-1" cx="327.26" cy="329.86" rx="4.07" ry="2.84"/><ellipse class="cls-1" cx="307.23" cy="354.6" rx="4.07" ry="2.84"/><ellipse class="cls-1" cx="287.2" cy="379.33" rx="4.07" ry="2.84"/><ellipse class="cls-1" cx="267.17" cy="404.07" rx="4.07" ry="2.84"/><ellipse class="cls-1" cx="522.94" cy="145.94" rx="4.07" ry="2.84"/><ellipse class="cls-1" cx="502.92" cy="170.68" rx="4.07" ry="2.84"/><ellipse class="cls-1" cx="482.89" cy="195.41" rx="4.07" ry="2.84"/><ellipse class="cls-1" cx="462.86" cy="220.15" rx="4.07" ry="2.84"/><ellipse class="cls-1" cx="442.83" cy="244.89" rx="4.07" ry="2.84"/><ellipse class="cls-1" cx="422.8" cy="269.62" rx="4.07" ry="2.84"/><ellipse class="cls-1" cx="402.77" cy="294.36" rx="4.07" ry="2.84"/><ellipse class="cls-1" cx="382.74" cy="319.09" rx="4.07" ry="2.84"/><ellipse class="cls-1" cx="362.72" cy="343.83" rx="4.07" ry="2.84"/><ellipse class="cls-1" cx="342.69" cy="368.57" rx="4.07" ry="2.84"/><ellipse class="cls-1" cx="322.66" cy="393.3" rx="4.07" ry="2.84"/><ellipse class="cls-1" cx="302.63" cy="418.04" rx="4.07" ry="2.84"/><ellipse class="cls-1" cx="558.4" cy="159.91" rx="4.07" ry="2.84"/><ellipse class="cls-1" cx="538.38" cy="184.65" rx="4.07" ry="2.84"/><ellipse class="cls-1" cx="518.35" cy="209.39" rx="4.07" ry="2.84"/><ellipse class="cls-1" cx="498.32" cy="234.12" rx="4.07" ry="2.84"/><ellipse class="cls-1" cx="478.29" cy="258.86" rx="4.07" ry="2.84"/><ellipse class="cls-1" cx="458.26" cy="283.59" rx="4.07" ry="2.84"/><ellipse class="cls-1" cx="438.23" cy="308.33" rx="4.07" ry="2.84"/><ellipse class="cls-1" cx="418.2" cy="333.07" rx="4.07" ry="2.84"/><ellipse class="cls-1" cx="398.17" cy="357.8" rx="4.07" ry="2.84"/><ellipse class="cls-1" cx="378.15" cy="382.54" rx="4.07" ry="2.84"/><ellipse class="cls-1" cx="358.12" cy="407.27" rx="4.07" ry="2.84"/><ellipse class="cls-1" cx="338.09" cy="432.01" rx="4.07" ry="2.84"/><ellipse class="cls-1" cx="593.86" cy="173.89" rx="4.07" ry="2.84"/><ellipse class="cls-1" cx="573.84" cy="198.62" rx="4.07" ry="2.84"/><ellipse class="cls-1" cx="553.81" cy="223.36" rx="4.07" ry="2.84"/><ellipse class="cls-1" cx="533.78" cy="248.09" rx="4.07" ry="2.84"/><ellipse class="cls-1" cx="513.75" cy="272.83" rx="4.07" ry="2.84"/><ellipse class="cls-1" cx="493.72" cy="297.57" rx="4.07" ry="2.84"/><ellipse class="cls-1" cx="473.69" cy="322.3" rx="4.07" ry="2.84"/><ellipse class="cls-1" cx="453.66" cy="347.04" rx="4.07" ry="2.84"/><ellipse class="cls-1" cx="433.63" cy="371.77" rx="4.07" ry="2.84"/><ellipse class="cls-1" cx="413.61" cy="396.51" rx="4.07" ry="2.84"/><ellipse class="cls-1" cx="393.58" cy="421.25" rx="4.07" ry="2.84"/><ellipse class="cls-1" cx="373.55" cy="445.98" rx="4.07" ry="2.84"/><ellipse class="cls-1" cx="629.32" cy="187.86" rx="4.07" ry="2.84"/><ellipse class="cls-1" cx="609.3" cy="212.59" rx="4.07" ry="2.84"/><ellipse class="cls-1" cx="589.27" cy="237.33" rx="4.07" ry="2.84"/><ellipse class="cls-1" cx="569.24" cy="262.07" rx="4.07" ry="2.84"/><ellipse class="cls-1" cx="549.21" cy="286.8" rx="4.07" ry="2.84"/><ellipse class="cls-1" cx="529.18" cy="311.54" rx="4.07" ry="2.84"/><ellipse class="cls-1" cx="509.15" cy="336.27" rx="4.07" ry="2.84"/><ellipse class="cls-1" cx="489.12" cy="361.01" rx="4.07" ry="2.84"/><ellipse class="cls-1" cx="469.09" cy="385.75" rx="4.07" ry="2.84"/><ellipse class="cls-1" cx="449.07" cy="410.48" rx="4.07" ry="2.84"/><ellipse class="cls-1" cx="429.04" cy="435.22" rx="4.07" ry="2.84"/><ellipse class="cls-1" cx="409.01" cy="459.95" rx="4.07" ry="2.84"/><ellipse class="cls-1" cx="664.78" cy="201.83" rx="4.07" ry="2.84"/><ellipse class="cls-1" cx="644.76" cy="226.57" rx="4.07" ry="2.84"/><ellipse class="cls-1" cx="624.73" cy="251.3" rx="4.07" ry="2.84"/><ellipse class="cls-1" cx="604.7" cy="276.04" rx="4.07" ry="2.84"/><ellipse class="cls-1" cx="584.67" cy="300.77" rx="4.07" ry="2.84"/><ellipse class="cls-1" cx="564.64" cy="325.51" rx="4.07" ry="2.84"/><ellipse class="cls-1" cx="544.61" cy="350.25" rx="4.07" ry="2.84"/><ellipse class="cls-1" cx="524.58" cy="374.98" rx="4.07" ry="2.84"/><ellipse class="cls-1" cx="504.55" cy="399.72" rx="4.07" ry="2.84"/><ellipse class="cls-1" cx="484.53" cy="424.45" rx="4.07" ry="2.84"/><ellipse class="cls-1" cx="464.5" cy="449.19" rx="4.07" ry="2.84"/><ellipse class="cls-1" cx="444.47" cy="473.93" rx="4.07" ry="2.84"/><polygon class="cls-2" points="177.42 288.81 131.32 270.65 157.36 238.5 203.46 256.66 177.42 288.81"/><path class="cls-1" d="M177.42,290.06A1.17,1.17,0,0,1,177,290l-46.1-18.17a1.22,1.22,0,0,1-.75-.83,1.25,1.25,0,0,1,.24-1.1l26-32.16a1.23,1.23,0,0,1,1.41-.37l46.1,18.17a1.22,1.22,0,0,1,.75.83,1.25,1.25,0,0,1-.24,1.1l-26,32.15A1.23,1.23,0,0,1,177.42,290.06Zm-44.07-19.94L177,287.33l24.4-30.14L157.75,240Z"/><polygon class="cls-2" points="177.42 288.81 131.32 270.65 131.32 303.23 177.42 321.39 177.42 288.81"/><path class="cls-1" d="M177.42,322.64a1.17,1.17,0,0,1-.45-.09l-46.1-18.16a1.25,1.25,0,0,1-.79-1.16V270.65a1.25,1.25,0,0,1,.54-1,1.23,1.23,0,0,1,1.16-.13l46.09,18.16a1.24,1.24,0,0,1,.79,1.15v32.58a1.24,1.24,0,0,1-.54,1A1.26,1.26,0,0,1,177.42,322.64Zm-44.86-20.25,43.62,17.18V289.66l-43.62-17.19Z"/><polygon class="cls-2" points="177.42 288.81 203.46 256.66 203.46 289.24 177.42 321.39 177.42 288.81"/><path class="cls-1" d="M177.42,322.64a1.15,1.15,0,0,1-.41-.08,1.23,1.23,0,0,1-.83-1.17V288.81a1.26,1.26,0,0,1,.28-.78l26-32.15a1.25,1.25,0,0,1,1.38-.39,1.24,1.24,0,0,1,.83,1.17v32.58a1.24,1.24,0,0,1-.28.78l-26,32.15A1.23,1.23,0,0,1,177.42,322.64Zm1.24-33.39v28.64l23.56-29.09V260.16Z"/><polygon class="cls-2" points="410.8 289.41 364.7 271.25 390.74 239.09 436.84 257.25 410.8 289.41"/><path class="cls-1" d="M410.8,290.65a1.38,1.38,0,0,1-.45-.08l-46.1-18.17a1.22,1.22,0,0,1-.75-.84,1.23,1.23,0,0,1,.24-1.09l26-32.16a1.23,1.23,0,0,1,1.41-.37l46.1,18.16a1.24,1.24,0,0,1,.75.84,1.25,1.25,0,0,1-.24,1.1l-26,32.15A1.22,1.22,0,0,1,410.8,290.65Zm-44.07-19.93,43.68,17.21,24.4-30.14-43.68-17.21Z"/><polygon class="cls-2" points="410.8 289.41 364.7 271.25 364.7 303.83 410.8 321.99 410.8 289.41"/><path class="cls-1" d="M410.8,323.23a1.38,1.38,0,0,1-.45-.08L364.25,305a1.22,1.22,0,0,1-.79-1.15V271.25a1.24,1.24,0,0,1,.54-1,1.26,1.26,0,0,1,1.16-.12l46.09,18.16a1.23,1.23,0,0,1,.79,1.15V322a1.23,1.23,0,0,1-1.24,1.24ZM365.94,303l43.62,17.19V290.26l-43.62-17.19Z"/><polygon class="cls-2" points="410.8 289.41 436.84 257.25 436.84 289.84 410.8 321.99 410.8 289.41"/><path class="cls-1" d="M410.8,323.23a1.14,1.14,0,0,1-.41-.07,1.23,1.23,0,0,1-.83-1.17V289.41a1.24,1.24,0,0,1,.28-.78l26-32.16a1.29,1.29,0,0,1,1.38-.39,1.25,1.25,0,0,1,.83,1.17v32.58a1.22,1.22,0,0,1-.28.78l-26,32.16A1.22,1.22,0,0,1,410.8,323.23ZM412,289.85v28.64L435.6,289.4V260.76Z"/><polygon class="cls-2" points="403.61 413.83 357.51 395.66 383.55 363.51 429.64 381.67 403.61 413.83"/><path class="cls-1" d="M403.61,415.07a1.25,1.25,0,0,1-.46-.09l-46.09-18.16a1.24,1.24,0,0,1-.51-1.94l26-32.15a1.23,1.23,0,0,1,1.42-.38l46.1,18.17a1.2,1.2,0,0,1,.74.84,1.23,1.23,0,0,1-.23,1.09l-26,32.16A1.26,1.26,0,0,1,403.61,415.07Zm-44.07-19.94,43.68,17.21,24.4-30.14L383.94,365Z"/><polygon class="cls-2" points="403.61 413.83 357.51 395.66 357.51 428.24 403.61 446.41 403.61 413.83"/><path class="cls-1" d="M403.61,447.65a1.22,1.22,0,0,1-.46-.09L357.06,429.4a1.25,1.25,0,0,1-.79-1.16V395.66a1.23,1.23,0,0,1,.54-1,1.21,1.21,0,0,1,1.15-.13l46.1,18.16a1.25,1.25,0,0,1,.79,1.16v32.58a1.25,1.25,0,0,1-.54,1A1.29,1.29,0,0,1,403.61,447.65ZM358.75,427.4l43.62,17.18V414.67l-43.62-17.19Z"/><polygon class="cls-2" points="403.61 413.83 429.64 381.67 429.64 414.25 403.61 446.41 403.61 413.83"/><path class="cls-1" d="M403.61,447.65a1.54,1.54,0,0,1-.42-.07,1.25,1.25,0,0,1-.82-1.17V413.83a1.27,1.27,0,0,1,.27-.78l26-32.16a1.24,1.24,0,0,1,2.21.78v32.58a1.24,1.24,0,0,1-.28.78l-26,32.16A1.26,1.26,0,0,1,403.61,447.65Zm1.24-33.39V442.9l23.55-29.09V385.17Z"/><polygon class="cls-2" points="315.62 118.14 269.52 99.97 295.56 67.82 341.66 85.98 315.62 118.14"/><path class="cls-1" d="M315.62,119.38a1.25,1.25,0,0,1-.46-.09l-46.09-18.16a1.24,1.24,0,0,1-.51-1.94l26-32.15a1.25,1.25,0,0,1,1.42-.38l46.1,18.17a1.23,1.23,0,0,1,.51,1.93l-26,32.16A1.26,1.26,0,0,1,315.62,119.38ZM271.55,99.44l43.68,17.21,24.4-30.14L296,69.3Z"/><polygon class="cls-2" points="315.62 118.14 269.52 99.97 269.52 132.55 315.62 150.72 315.62 118.14"/><path class="cls-1" d="M315.62,152a1.22,1.22,0,0,1-.46-.09l-46.09-18.16a1.25,1.25,0,0,1-.79-1.16V100a1.23,1.23,0,0,1,.54-1,1.26,1.26,0,0,1,1.16-.13L316.07,117a1.25,1.25,0,0,1,.79,1.16v32.58a1.23,1.23,0,0,1-.54,1A1.29,1.29,0,0,1,315.62,152Zm-44.86-20.25,43.62,17.18V119L270.76,101.8Z"/><polygon class="cls-2" points="315.62 118.14 341.66 85.98 341.66 118.56 315.62 150.72 315.62 118.14"/><path class="cls-1" d="M315.62,152a1.54,1.54,0,0,1-.42-.07,1.25,1.25,0,0,1-.82-1.17V118.14a1.27,1.27,0,0,1,.27-.78l26-32.16a1.24,1.24,0,0,1,2.21.78v32.58a1.24,1.24,0,0,1-.28.78l-26,32.16A1.25,1.25,0,0,1,315.62,152Zm1.24-33.39v28.64l23.56-29.09V89.48Z"/><rect class="cls-1" x="454.98" y="503.41" width="2.48" height="37.14"/><rect class="cls-3" x="1083.72" y="12.58" width="507.96" height="41.47"/><circle class="cls-4" cx="1103.76" cy="32.63" r="10.37"/><circle class="cls-4" cx="1134.86" cy="32.63" r="10.37"/><circle class="cls-4" cx="1165.96" cy="32.63" r="10.37"/><circle class="cls-4" cx="1197.06" cy="32.63" r="10.37"/><circle class="cls-4" cx="1228.16" cy="32.63" r="10.37"/><circle class="cls-4" cx="1259.26" cy="32.63" r="10.37"/><circle class="cls-4" cx="1290.36" cy="32.63" r="10.37"/><circle class="cls-4" cx="1321.46" cy="32.63" r="10.37"/><circle class="cls-4" cx="1352.56" cy="32.63" r="10.37"/><circle class="cls-4" cx="1383.66" cy="32.63" r="10.37"/><circle class="cls-4" cx="1414.76" cy="32.63" r="10.37"/><circle class="cls-4" cx="1445.86" cy="32.63" r="10.37"/><circle class="cls-4" cx="1476.96" cy="32.63" r="10.37"/><circle class="cls-4" cx="1508.06" cy="32.63" r="10.37"/><circle class="cls-4" cx="1539.16" cy="32.63" r="10.37"/><circle class="cls-4" cx="1570.26" cy="32.63" r="10.37"/><rect class="cls-5" x="1083.03" y="165.78" width="507.96" height="41.47"/><circle class="cls-6" cx="1103.76" cy="186.51" r="10.37"/><circle class="cls-6" cx="1134.86" cy="186.51" r="10.37"/><circle class="cls-6" cx="1165.96" cy="186.51" r="10.37"/><circle class="cls-6" cx="1197.06" cy="186.51" r="10.37"/><circle class="cls-6" cx="1228.16" cy="186.51" r="10.37"/><circle class="cls-6" cx="1259.26" cy="186.51" r="10.37"/><circle class="cls-6" cx="1290.36" cy="186.51" r="10.37"/><circle class="cls-6" cx="1321.46" cy="186.51" r="10.37"/><circle class="cls-6" cx="1352.56" cy="186.51" r="10.37"/><circle class="cls-6" cx="1383.66" cy="186.51" r="10.37"/><circle class="cls-6" cx="1414.76" cy="186.51" r="10.37"/><circle class="cls-6" cx="1445.86" cy="186.51" r="10.37"/><circle class="cls-6" cx="1476.96" cy="186.51" r="10.37"/><circle class="cls-6" cx="1508.06" cy="186.51" r="10.37"/><circle class="cls-6" cx="1539.16" cy="186.51" r="10.37"/><circle class="cls-6" cx="1570.26" cy="186.51" r="10.37"/><rect class="cls-7" x="1083.03" y="318.97" width="507.96" height="41.47"/><polygon class="cls-8" points="1113.29 344.84 1108.16 339.7 1113.29 334.57 1108.89 330.18 1103.76 335.31 1098.63 330.18 1094.23 334.57 1099.37 339.7 1094.23 344.84 1098.63 349.24 1103.76 344.1 1108.89 349.24 1113.29 344.84"/><polygon class="cls-8" points="1144.39 344.84 1139.26 339.7 1144.39 334.57 1139.99 330.18 1134.86 335.31 1129.73 330.18 1125.33 334.57 1130.46 339.7 1125.33 344.84 1129.73 349.24 1134.86 344.1 1139.99 349.24 1144.39 344.84"/><polygon class="cls-8" points="1175.49 344.84 1170.36 339.7 1175.49 334.57 1171.09 330.18 1165.96 335.31 1160.83 330.18 1156.43 334.57 1161.56 339.7 1156.43 344.84 1160.83 349.24 1165.96 344.1 1171.09 349.24 1175.49 344.84"/><polygon class="cls-8" points="1206.59 344.84 1201.46 339.7 1206.59 334.57 1202.19 330.18 1197.06 335.31 1191.93 330.18 1187.53 334.57 1192.66 339.7 1187.53 344.84 1191.93 349.24 1197.06 344.1 1202.19 349.24 1206.59 344.84"/><polygon class="cls-8" points="1237.69 344.84 1232.56 339.7 1237.69 334.57 1233.29 330.18 1228.16 335.31 1223.03 330.18 1218.63 334.57 1223.76 339.7 1218.63 344.84 1223.03 349.24 1228.16 344.1 1233.29 349.24 1237.69 344.84"/><polygon class="cls-8" points="1268.79 344.84 1263.66 339.7 1268.79 334.57 1264.39 330.18 1259.26 335.31 1254.13 330.18 1249.73 334.57 1254.86 339.7 1249.73 344.84 1254.13 349.24 1259.26 344.1 1264.39 349.24 1268.79 344.84"/><polygon class="cls-8" points="1299.89 344.84 1294.76 339.7 1299.89 334.57 1295.49 330.18 1290.36 335.31 1285.23 330.18 1280.83 334.57 1285.96 339.7 1280.83 344.84 1285.23 349.24 1290.36 344.1 1295.49 349.24 1299.89 344.84"/><polygon class="cls-8" points="1330.99 344.84 1325.86 339.7 1330.99 334.57 1326.59 330.18 1321.46 335.31 1316.33 330.18 1311.93 334.57 1317.06 339.7 1311.93 344.84 1316.33 349.24 1321.46 344.1 1326.59 349.24 1330.99 344.84"/><polygon class="cls-8" points="1362.09 344.84 1356.96 339.7 1362.09 334.57 1357.69 330.18 1352.56 335.31 1347.43 330.18 1343.03 334.57 1348.16 339.7 1343.03 344.84 1347.43 349.24 1352.56 344.1 1357.69 349.24 1362.09 344.84"/><polygon class="cls-8" points="1393.19 344.84 1388.06 339.7 1393.19 334.57 1388.79 330.18 1383.66 335.31 1378.53 330.18 1374.13 334.57 1379.26 339.7 1374.13 344.84 1378.53 349.24 1383.66 344.1 1388.79 349.24 1393.19 344.84"/><polygon class="cls-8" points="1424.29 344.84 1419.16 339.7 1424.29 334.57 1419.89 330.18 1414.76 335.31 1409.63 330.18 1405.23 334.57 1410.36 339.7 1405.23 344.84 1409.63 349.24 1414.76 344.1 1419.89 349.24 1424.29 344.84"/><polygon class="cls-8" points="1455.39 344.84 1450.26 339.7 1455.39 334.57 1450.99 330.18 1445.86 335.31 1440.73 330.18 1436.33 334.57 1441.46 339.7 1436.33 344.84 1440.73 349.24 1445.86 344.1 1450.99 349.24 1455.39 344.84"/><polygon class="cls-8" points="1486.49 344.84 1481.36 339.7 1486.49 334.57 1482.09 330.18 1476.96 335.31 1471.83 330.18 1467.43 334.57 1472.56 339.7 1467.43 344.84 1471.83 349.24 1476.96 344.1 1482.09 349.24 1486.49 344.84"/><polygon class="cls-8" points="1517.59 344.84 1512.45 339.7 1517.59 334.57 1513.19 330.18 1508.06 335.31 1502.93 330.18 1498.53 334.57 1503.66 339.7 1498.53 344.84 1502.93 349.24 1508.06 344.1 1513.19 349.24 1517.59 344.84"/><polygon class="cls-8" points="1548.69 344.84 1543.56 339.7 1548.69 334.57 1544.29 330.18 1539.16 335.31 1534.03 330.18 1529.63 334.57 1534.76 339.7 1529.63 344.84 1534.03 349.24 1539.16 344.1 1544.29 349.24 1548.69 344.84"/><polygon class="cls-8" points="1579.79 344.84 1574.65 339.7 1579.79 334.57 1575.39 330.18 1570.26 335.31 1565.13 330.18 1560.73 334.57 1565.86 339.7 1560.73 344.84 1565.13 349.24 1570.26 344.1 1575.39 349.24 1579.79 344.84"/><rect class="cls-4" x="1083.03" y="472.17" width="507.96" height="41.47"/><path class="cls-9" d="M1093.5,487.23c.6-.25,1.23-.53,1.88-.86s1.29-.67,1.91-1.05,1.22-.79,1.79-1.22a11.27,11.27,0,0,0,1.54-1.35h3.24V504.3h-4.64V488.78a13.2,13.2,0,0,1-2.08,1.14c-.77.34-1.51.64-2.24.89Z"/><path class="cls-9" d="M1111.16,487.23c.61-.25,1.23-.53,1.89-.86s1.29-.67,1.91-1.05,1.22-.79,1.79-1.22a11.9,11.9,0,0,0,1.54-1.35h3.23V504.3h-4.63V488.78a13.31,13.31,0,0,1-2.09,1.14c-.76.34-1.51.64-2.24.89Z"/><path class="cls-9" d="M1128.83,487.23c.6-.25,1.23-.53,1.88-.86s1.29-.67,1.91-1.05,1.22-.79,1.79-1.22a11.27,11.27,0,0,0,1.54-1.35h3.24V504.3h-4.64V488.78a13.2,13.2,0,0,1-2.08,1.14c-.77.34-1.52.64-2.24.89Z"/><path class="cls-9" d="M1160.92,493.48q0,5.44-2.06,8.35a7.06,7.06,0,0,1-11.42,0q-2.07-2.91-2.07-8.35a19.17,19.17,0,0,1,.55-4.79,10.31,10.31,0,0,1,1.57-3.51A6.89,6.89,0,0,1,1150,483a6.77,6.77,0,0,1,3.2-.75,6.63,6.63,0,0,1,5.71,2.91Q1160.92,488.07,1160.92,493.48Zm-4.72,0a26.06,26.06,0,0,0-.16-2.94,10.39,10.39,0,0,0-.5-2.29,3.59,3.59,0,0,0-.93-1.49,2.11,2.11,0,0,0-1.46-.53,2.09,2.09,0,0,0-1.45.53,3.81,3.81,0,0,0-.93,1.49,9.83,9.83,0,0,0-.51,2.29,23.9,23.9,0,0,0-.16,2.94,24.19,24.19,0,0,0,.16,2.95,9.78,9.78,0,0,0,.51,2.31,3.81,3.81,0,0,0,.93,1.49,2.09,2.09,0,0,0,1.45.53,2.11,2.11,0,0,0,1.46-.53,3.59,3.59,0,0,0,.93-1.49,10.33,10.33,0,0,0,.5-2.31A26.38,26.38,0,0,0,1156.2,493.48Z"/><path class="cls-9" d="M1178.59,493.48q0,5.44-2.07,8.35a7,7,0,0,1-11.41,0q-2.07-2.91-2.07-8.35a19.2,19.2,0,0,1,.54-4.79,10.51,10.51,0,0,1,1.57-3.51,7.06,7.06,0,0,1,2.46-2.18,6.77,6.77,0,0,1,3.2-.75,6.62,6.62,0,0,1,5.71,2.91Q1178.59,488.07,1178.59,493.48Zm-4.73,0a26.2,26.2,0,0,0-.15-2.94,11,11,0,0,0-.5-2.29,3.51,3.51,0,0,0-.94-1.49,2.11,2.11,0,0,0-1.46-.53,2,2,0,0,0-1.44.53,3.71,3.71,0,0,0-.94,1.49,10.36,10.36,0,0,0-.51,2.29,26.2,26.2,0,0,0-.15,2.94,26.52,26.52,0,0,0,.15,2.95,10.3,10.3,0,0,0,.51,2.31,3.71,3.71,0,0,0,.94,1.49,2,2,0,0,0,1.44.53,2.11,2.11,0,0,0,1.46-.53,3.51,3.51,0,0,0,.94-1.49,10.92,10.92,0,0,0,.5-2.31A26.52,26.52,0,0,0,1173.86,493.48Z"/><path class="cls-9" d="M1181.82,487.23c.6-.25,1.23-.53,1.88-.86s1.29-.67,1.92-1.05,1.21-.79,1.79-1.22a11.18,11.18,0,0,0,1.53-1.35h3.24V504.3h-4.64V488.78a13.2,13.2,0,0,1-2.08,1.14c-.77.34-1.51.64-2.24.89Z"/><path class="cls-9" d="M1213.92,493.48q0,5.44-2.07,8.35a7.06,7.06,0,0,1-11.42,0q-2.06-2.91-2.06-8.35a19.2,19.2,0,0,1,.54-4.79,10.51,10.51,0,0,1,1.57-3.51,7,7,0,0,1,2.46-2.18,6.77,6.77,0,0,1,3.2-.75,6.62,6.62,0,0,1,5.71,2.91Q1213.92,488.07,1213.92,493.48Zm-4.73,0a23.9,23.9,0,0,0-.16-2.94,11,11,0,0,0-.49-2.29,3.51,3.51,0,0,0-.94-1.49,2.11,2.11,0,0,0-1.46-.53,2,2,0,0,0-1.44.53,3.71,3.71,0,0,0-.94,1.49,9.83,9.83,0,0,0-.51,2.29,26.06,26.06,0,0,0-.16,2.94,26.38,26.38,0,0,0,.16,2.95,9.78,9.78,0,0,0,.51,2.31,3.71,3.71,0,0,0,.94,1.49,2,2,0,0,0,1.44.53,2.11,2.11,0,0,0,1.46-.53,3.51,3.51,0,0,0,.94-1.49,11,11,0,0,0,.49-2.31A24.19,24.19,0,0,0,1209.19,493.48Z"/><path class="cls-9" d="M1217.15,487.23c.6-.25,1.23-.53,1.88-.86s1.29-.67,1.91-1.05,1.22-.79,1.79-1.22a11.27,11.27,0,0,0,1.54-1.35h3.24V504.3h-4.64V488.78a13.2,13.2,0,0,1-2.08,1.14c-.77.34-1.51.64-2.24.89Z"/><path class="cls-9" d="M1249.24,493.48c0,3.63-.68,6.41-2.06,8.35a7.06,7.06,0,0,1-11.42,0c-1.38-1.94-2.06-4.72-2.06-8.35a19.2,19.2,0,0,1,.54-4.79,10.51,10.51,0,0,1,1.57-3.51,6.89,6.89,0,0,1,2.46-2.18,6.77,6.77,0,0,1,3.2-.75,6.62,6.62,0,0,1,5.71,2.91C1248.56,487.1,1249.24,489.87,1249.24,493.48Zm-4.72,0a23.9,23.9,0,0,0-.16-2.94,11,11,0,0,0-.49-2.29,3.51,3.51,0,0,0-.94-1.49,2.11,2.11,0,0,0-1.46-.53,2.09,2.09,0,0,0-1.45.53,3.81,3.81,0,0,0-.93,1.49,9.83,9.83,0,0,0-.51,2.29,23.9,23.9,0,0,0-.16,2.94,24.19,24.19,0,0,0,.16,2.95,9.78,9.78,0,0,0,.51,2.31,3.81,3.81,0,0,0,.93,1.49,2.09,2.09,0,0,0,1.45.53,2.11,2.11,0,0,0,1.46-.53,3.51,3.51,0,0,0,.94-1.49,11,11,0,0,0,.49-2.31A24.19,24.19,0,0,0,1244.52,493.48Z"/><path class="cls-9" d="M1252.48,487.23c.6-.25,1.23-.53,1.88-.86s1.29-.67,1.91-1.05,1.22-.79,1.79-1.22a11.27,11.27,0,0,0,1.54-1.35h3.24V504.3h-4.64V488.78a13.2,13.2,0,0,1-2.08,1.14c-.77.34-1.52.64-2.24.89Z"/><path class="cls-9" d="M1270.14,487.23c.61-.25,1.23-.53,1.89-.86s1.29-.67,1.91-1.05,1.22-.79,1.79-1.22a11.9,11.9,0,0,0,1.54-1.35h3.23V504.3h-4.63V488.78a13.78,13.78,0,0,1-2.09,1.14c-.76.34-1.51.64-2.24.89Z"/><path class="cls-9" d="M1302.24,493.48q0,5.44-2.07,8.35a7,7,0,0,1-11.41,0q-2.07-2.91-2.07-8.35a19.2,19.2,0,0,1,.54-4.79,10.51,10.51,0,0,1,1.57-3.51,7.06,7.06,0,0,1,2.46-2.18,6.77,6.77,0,0,1,3.2-.75,6.62,6.62,0,0,1,5.71,2.91Q1302.24,488.07,1302.24,493.48Zm-4.73,0a23.9,23.9,0,0,0-.16-2.94,10.42,10.42,0,0,0-.49-2.29,3.51,3.51,0,0,0-.94-1.49,2.11,2.11,0,0,0-1.46-.53,2,2,0,0,0-1.44.53,3.71,3.71,0,0,0-.94,1.49,10.36,10.36,0,0,0-.51,2.29,26.2,26.2,0,0,0-.15,2.94,26.52,26.52,0,0,0,.15,2.95,10.3,10.3,0,0,0,.51,2.31,3.71,3.71,0,0,0,.94,1.49,2,2,0,0,0,1.44.53,2.11,2.11,0,0,0,1.46-.53,3.51,3.51,0,0,0,.94-1.49,10.37,10.37,0,0,0,.49-2.31A24.19,24.19,0,0,0,1297.51,493.48Z"/><path class="cls-9" d="M1319.9,493.48q0,5.44-2.07,8.35a7,7,0,0,1-11.41,0q-2.07-2.91-2.07-8.35a18.72,18.72,0,0,1,.55-4.79,10.31,10.31,0,0,1,1.57-3.51,7,7,0,0,1,2.45-2.18,6.84,6.84,0,0,1,3.21-.75,6.6,6.6,0,0,1,5.7,2.91Q1319.9,488.07,1319.9,493.48Zm-4.72,0a26.06,26.06,0,0,0-.16-2.94,10.39,10.39,0,0,0-.5-2.29,3.59,3.59,0,0,0-.93-1.49,2.11,2.11,0,0,0-1.46-.53,2.09,2.09,0,0,0-1.45.53,3.81,3.81,0,0,0-.93,1.49,9.83,9.83,0,0,0-.51,2.29,23.9,23.9,0,0,0-.16,2.94,24.19,24.19,0,0,0,.16,2.95,9.78,9.78,0,0,0,.51,2.31,3.81,3.81,0,0,0,.93,1.49,2.09,2.09,0,0,0,1.45.53,2.11,2.11,0,0,0,1.46-.53,3.59,3.59,0,0,0,.93-1.49,10.33,10.33,0,0,0,.5-2.31A26.38,26.38,0,0,0,1315.18,493.48Z"/><path class="cls-9" d="M1337.57,493.48q0,5.44-2.07,8.35a7,7,0,0,1-11.41,0q-2.07-2.91-2.07-8.35a19.2,19.2,0,0,1,.54-4.79,10.51,10.51,0,0,1,1.57-3.51,7.06,7.06,0,0,1,2.46-2.18,6.77,6.77,0,0,1,3.2-.75,6.62,6.62,0,0,1,5.71,2.91Q1337.57,488.07,1337.57,493.48Zm-4.73,0a23.9,23.9,0,0,0-.16-2.94,11,11,0,0,0-.49-2.29,3.51,3.51,0,0,0-.94-1.49,2.11,2.11,0,0,0-1.46-.53,2,2,0,0,0-1.44.53,3.71,3.71,0,0,0-.94,1.49,9.83,9.83,0,0,0-.51,2.29,26.06,26.06,0,0,0-.16,2.94,26.38,26.38,0,0,0,.16,2.95,9.78,9.78,0,0,0,.51,2.31,3.71,3.71,0,0,0,.94,1.49,2,2,0,0,0,1.44.53,2.11,2.11,0,0,0,1.46-.53,3.51,3.51,0,0,0,.94-1.49,11,11,0,0,0,.49-2.31A24.19,24.19,0,0,0,1332.84,493.48Z"/><path class="cls-9" d="M1340.8,487.23c.6-.25,1.23-.53,1.88-.86s1.29-.67,1.91-1.05,1.22-.79,1.79-1.22a11.27,11.27,0,0,0,1.54-1.35h3.24V504.3h-4.64V488.78a13.2,13.2,0,0,1-2.08,1.14c-.77.34-1.51.64-2.24.89Z"/><path class="cls-9" d="M1372.89,493.48c0,3.63-.68,6.41-2.06,8.35a7.06,7.06,0,0,1-11.42,0c-1.38-1.94-2.06-4.72-2.06-8.35a19.2,19.2,0,0,1,.54-4.79,10.51,10.51,0,0,1,1.57-3.51,6.89,6.89,0,0,1,2.46-2.18,6.77,6.77,0,0,1,3.2-.75,6.62,6.62,0,0,1,5.71,2.91C1372.21,487.1,1372.89,489.87,1372.89,493.48Zm-4.72,0a23.9,23.9,0,0,0-.16-2.94,11,11,0,0,0-.49-2.29,3.51,3.51,0,0,0-.94-1.49,2.11,2.11,0,0,0-1.46-.53,2.09,2.09,0,0,0-1.45.53,3.81,3.81,0,0,0-.93,1.49,9.83,9.83,0,0,0-.51,2.29,23.9,23.9,0,0,0-.16,2.94,24.19,24.19,0,0,0,.16,2.95,9.78,9.78,0,0,0,.51,2.31,3.81,3.81,0,0,0,.93,1.49,2.09,2.09,0,0,0,1.45.53,2.11,2.11,0,0,0,1.46-.53,3.51,3.51,0,0,0,.94-1.49,11,11,0,0,0,.49-2.31A24.19,24.19,0,0,0,1368.17,493.48Z"/><path class="cls-9" d="M1376.13,487.23c.6-.25,1.23-.53,1.88-.86s1.29-.67,1.91-1.05,1.22-.79,1.79-1.22a11.27,11.27,0,0,0,1.54-1.35h3.24V504.3h-4.64V488.78a13.2,13.2,0,0,1-2.08,1.14c-.77.34-1.52.64-2.24.89Z"/><path class="cls-9" d="M1408.22,493.48q0,5.44-2.06,8.35a7.06,7.06,0,0,1-11.42,0q-2.07-2.91-2.07-8.35a19.17,19.17,0,0,1,.55-4.79,10.51,10.51,0,0,1,1.57-3.51,6.89,6.89,0,0,1,2.46-2.18,6.77,6.77,0,0,1,3.2-.75,6.62,6.62,0,0,1,5.71,2.91Q1408.22,488.07,1408.22,493.48Zm-4.72,0a23.9,23.9,0,0,0-.16-2.94,10.39,10.39,0,0,0-.5-2.29,3.49,3.49,0,0,0-.93-1.49,2.11,2.11,0,0,0-1.46-.53,2.09,2.09,0,0,0-1.45.53,3.81,3.81,0,0,0-.93,1.49,9.83,9.83,0,0,0-.51,2.29,23.9,23.9,0,0,0-.16,2.94,24.19,24.19,0,0,0,.16,2.95,9.78,9.78,0,0,0,.51,2.31,3.81,3.81,0,0,0,.93,1.49,2.09,2.09,0,0,0,1.45.53,2.11,2.11,0,0,0,1.46-.53,3.49,3.49,0,0,0,.93-1.49,10.33,10.33,0,0,0,.5-2.31A24.19,24.19,0,0,0,1403.5,493.48Z"/><path class="cls-9" d="M1425.89,493.48q0,5.44-2.07,8.35a7,7,0,0,1-11.41,0q-2.07-2.91-2.07-8.35a19.2,19.2,0,0,1,.54-4.79,10.71,10.71,0,0,1,1.57-3.51,7.06,7.06,0,0,1,2.46-2.18,6.77,6.77,0,0,1,3.2-.75,6.62,6.62,0,0,1,5.71,2.91Q1425.89,488.07,1425.89,493.48Zm-4.73,0a26.2,26.2,0,0,0-.15-2.94,11,11,0,0,0-.5-2.29,3.59,3.59,0,0,0-.93-1.49,2.16,2.16,0,0,0-1.47-.53,2,2,0,0,0-1.44.53,3.71,3.71,0,0,0-.94,1.49,11,11,0,0,0-.51,2.29,26.2,26.2,0,0,0-.15,2.94,26.52,26.52,0,0,0,.15,2.95,10.88,10.88,0,0,0,.51,2.31,3.71,3.71,0,0,0,.94,1.49,2,2,0,0,0,1.44.53,2.16,2.16,0,0,0,1.47-.53,3.59,3.59,0,0,0,.93-1.49,10.92,10.92,0,0,0,.5-2.31A26.52,26.52,0,0,0,1421.16,493.48Z"/><path class="cls-9" d="M1443.55,493.48q0,5.44-2.07,8.35a7,7,0,0,1-11.41,0q-2.07-2.91-2.07-8.35a18.72,18.72,0,0,1,.55-4.79,10.31,10.31,0,0,1,1.57-3.51,7,7,0,0,1,2.45-2.18,6.84,6.84,0,0,1,3.21-.75,6.6,6.6,0,0,1,5.7,2.91Q1443.55,488.07,1443.55,493.48Zm-4.72,0a26.06,26.06,0,0,0-.16-2.94,10.39,10.39,0,0,0-.5-2.29,3.59,3.59,0,0,0-.93-1.49,2.11,2.11,0,0,0-1.46-.53,2.09,2.09,0,0,0-1.45.53,3.81,3.81,0,0,0-.93,1.49,9.83,9.83,0,0,0-.51,2.29,23.9,23.9,0,0,0-.16,2.94,24.19,24.19,0,0,0,.16,2.95,9.78,9.78,0,0,0,.51,2.31,3.81,3.81,0,0,0,.93,1.49,2.09,2.09,0,0,0,1.45.53,2.11,2.11,0,0,0,1.46-.53,3.59,3.59,0,0,0,.93-1.49,10.33,10.33,0,0,0,.5-2.31A26.38,26.38,0,0,0,1438.83,493.48Z"/><path class="cls-9" d="M1446.79,487.23c.6-.25,1.23-.53,1.88-.86s1.29-.67,1.91-1.05,1.22-.79,1.79-1.22a11.9,11.9,0,0,0,1.54-1.35h3.23V504.3h-4.63V488.78a13.66,13.66,0,0,1-2.08,1.14c-.77.34-1.52.64-2.24.89Z"/><path class="cls-9" d="M1464.45,487.23c.6-.25,1.23-.53,1.88-.86s1.29-.67,1.92-1.05,1.21-.79,1.78-1.22a11.27,11.27,0,0,0,1.54-1.35h3.24V504.3h-4.64V488.78a13.2,13.2,0,0,1-2.08,1.14c-.77.34-1.51.64-2.24.89Z"/><path class="cls-9" d="M1496.54,493.48c0,3.63-.68,6.41-2.06,8.35a7.06,7.06,0,0,1-11.42,0c-1.38-1.94-2.06-4.72-2.06-8.35a19.2,19.2,0,0,1,.54-4.79,10.51,10.51,0,0,1,1.57-3.51,6.89,6.89,0,0,1,2.46-2.18,6.77,6.77,0,0,1,3.2-.75,6.62,6.62,0,0,1,5.71,2.91C1495.86,487.1,1496.54,489.87,1496.54,493.48Zm-4.72,0a23.9,23.9,0,0,0-.16-2.94,11,11,0,0,0-.49-2.29,3.51,3.51,0,0,0-.94-1.49,2.11,2.11,0,0,0-1.46-.53,2.09,2.09,0,0,0-1.45.53,3.81,3.81,0,0,0-.93,1.49,9.83,9.83,0,0,0-.51,2.29,23.9,23.9,0,0,0-.16,2.94,24.19,24.19,0,0,0,.16,2.95,9.78,9.78,0,0,0,.51,2.31,3.81,3.81,0,0,0,.93,1.49,2.09,2.09,0,0,0,1.45.53,2.11,2.11,0,0,0,1.46-.53,3.51,3.51,0,0,0,.94-1.49,11,11,0,0,0,.49-2.31A24.19,24.19,0,0,0,1491.82,493.48Z"/><path class="cls-9" d="M1514.21,493.48q0,5.44-2.07,8.35a7,7,0,0,1-11.41,0q-2.07-2.91-2.07-8.35a19.2,19.2,0,0,1,.54-4.79,10.71,10.71,0,0,1,1.57-3.51,7.06,7.06,0,0,1,2.46-2.18,6.8,6.8,0,0,1,3.2-.75,6.62,6.62,0,0,1,5.71,2.91Q1514.21,488.07,1514.21,493.48Zm-4.73,0a26.2,26.2,0,0,0-.15-2.94,11,11,0,0,0-.5-2.29,3.59,3.59,0,0,0-.93-1.49,2.14,2.14,0,0,0-1.47-.53,2,2,0,0,0-1.44.53,3.7,3.7,0,0,0-.93,1.49,10.34,10.34,0,0,0-.52,2.29,26.2,26.2,0,0,0-.15,2.94,26.52,26.52,0,0,0,.15,2.95,10.27,10.27,0,0,0,.52,2.31,3.7,3.7,0,0,0,.93,1.49,2,2,0,0,0,1.44.53,2.14,2.14,0,0,0,1.47-.53,3.59,3.59,0,0,0,.93-1.49,10.92,10.92,0,0,0,.5-2.31A26.52,26.52,0,0,0,1509.48,493.48Z"/><path class="cls-9" d="M1517.44,487.23c.61-.25,1.23-.53,1.89-.86s1.29-.67,1.91-1.05,1.22-.79,1.79-1.22a11.9,11.9,0,0,0,1.54-1.35h3.23V504.3h-4.63V488.78a13.78,13.78,0,0,1-2.09,1.14c-.76.34-1.51.64-2.24.89Z"/><path class="cls-9" d="M1535.11,487.23c.6-.25,1.23-.53,1.88-.86s1.29-.67,1.91-1.05,1.22-.79,1.79-1.22a11.9,11.9,0,0,0,1.54-1.35h3.23V504.3h-4.63V488.78a13.66,13.66,0,0,1-2.08,1.14c-.77.34-1.52.64-2.24.89Z"/><path class="cls-9" d="M1567.2,493.48q0,5.44-2.06,8.35a7.06,7.06,0,0,1-11.42,0q-2.07-2.91-2.07-8.35a19.17,19.17,0,0,1,.55-4.79,10.31,10.31,0,0,1,1.57-3.51,6.89,6.89,0,0,1,2.46-2.18,6.77,6.77,0,0,1,3.2-.75,6.63,6.63,0,0,1,5.71,2.91Q1567.2,488.07,1567.2,493.48Zm-4.72,0a26.06,26.06,0,0,0-.16-2.94,10.39,10.39,0,0,0-.5-2.29,3.59,3.59,0,0,0-.93-1.49,2.11,2.11,0,0,0-1.46-.53,2.09,2.09,0,0,0-1.45.53,3.81,3.81,0,0,0-.93,1.49,9.83,9.83,0,0,0-.51,2.29,23.9,23.9,0,0,0-.16,2.94,24.19,24.19,0,0,0,.16,2.95,9.78,9.78,0,0,0,.51,2.31,3.81,3.81,0,0,0,.93,1.49,2.09,2.09,0,0,0,1.45.53,2.11,2.11,0,0,0,1.46-.53,3.59,3.59,0,0,0,.93-1.49,10.33,10.33,0,0,0,.5-2.31A26.38,26.38,0,0,0,1562.48,493.48Z"/><path class="cls-9" d="M1570.44,487.23c.6-.25,1.23-.53,1.88-.86s1.29-.67,1.91-1.05,1.22-.79,1.79-1.22a11.9,11.9,0,0,0,1.54-1.35h3.23V504.3h-4.63V488.78a13.66,13.66,0,0,1-2.08,1.14c-.77.34-1.52.64-2.24.89Z"/><text class="cls-10" transform="translate(1083.15 96.15)"><tspan class="cls-11">A</tspan><tspan class="cls-12" x="27.6" y="0">c</tspan><tspan x="49.33" y="0">ti</tspan><tspan class="cls-13" x="76.03" y="0">v</tspan><tspan x="97.17" y="0">e</tspan></text><text class="cls-10" transform="translate(1082.82 247.28)">In<tspan class="cls-14" x="36.96" y="0">a</tspan><tspan class="cls-15" x="59.56" y="0">c</tspan><tspan x="81.28" y="0">ti</tspan><tspan class="cls-13" x="107.98" y="0">v</tspan><tspan x="129.13" y="0">e</tspan></text><text class="cls-10" transform="translate(1082.82 398.41)"><tspan class="cls-16">F</tspan><tspan x="22.63" y="0">ailu</tspan><tspan class="cls-17" x="91.77" y="0">r</tspan><tspan x="107.07" y="0">e</tspan></text><text class="cls-10" transform="translate(1082.82 549.54)">Data</text></svg>