<svg id="Calque_1" data-name="Calque 1" xmlns="http://www.w3.org/2000/svg" viewBox="0 0 1600 612.71"><defs><style>.cls-1{fill:#fff;}.cls-2{fill:#1C1717;}.cls-3{fill:#fa8272;}</style></defs><title>remote</title><polygon class="cls-1" points="70.56 267.97 70.56 347.79 329.7 601.27 1004.82 360.45 1004.82 280.63 70.56 267.97"/><path class="cls-2" d="M72.16,269.58l931.06,12.63v77.12L330.1,599.43,72.16,347.12V269.58M70.56,268v79.82L329.7,601.27l675.12-240.82V280.63L70.56,268Z"/><polygon class="cls-1" points="70.56 267.97 745.68 27.15 1004.82 280.63 329.7 521.45 70.56 267.97"/><path class="cls-2" d="M745.28,29l256.59,251L330.1,519.61l-256.6-251L745.28,29m.4-1.84L70.56,268,329.7,521.45l675.12-240.82L745.68,27.15Z"/><path class="cls-2" d="M529.34,375.89,251.19,276.68l314.4-82.1,226.32,57ZM305.33,279l223.15,79.6L744.86,256.22l-179.2-45.15Z"/><rect class="cls-2" x="328.9" y="521.45" width="1.6" height="79.82"/><polygon class="cls-1" points="233.76 219.76 233.76 273.71 264.27 303.55 311.07 286.82 311.07 232.88 233.76 219.76"/><path class="cls-2" d="M235.36,221.65l74.12,12.58V285.7l-44.81,16L235.36,273V221.65m-1.6-1.89v53.95l30.51,29.84,46.8-16.73V232.88l-77.31-13.12Z"/><polygon class="cls-1" points="233.76 219.76 280.56 203.04 311.07 232.88 264.27 249.61 233.76 219.76"/><path class="cls-2" d="M280.16,204.88l28,27.35-43.46,15.54-28-27.36,43.46-15.53m.4-1.84-46.8,16.72,30.51,29.85,46.8-16.73L280.56,203Z"/><rect class="cls-2" x="263.47" y="249.61" width="1.6" height="53.94"/><polygon class="cls-1" points="489.2 310.76 489.2 364.71 519.71 394.55 566.51 377.82 566.51 323.88 489.2 310.76"/><path class="cls-2" d="M490.8,312.65l74.11,12.58V376.7l-44.8,16L490.8,364V312.65m-1.6-1.89v53.95l30.51,29.84,46.8-16.73V323.88L489.2,310.76Z"/><polygon class="cls-1" points="489.2 310.76 536 294.04 566.51 323.88 519.71 340.61 489.2 310.76"/><path class="cls-2" d="M535.6,295.88l28,27.35-43.46,15.54-28-27.36,43.46-15.53M536,294l-46.8,16.72,30.51,29.85,46.8-16.73L536,294Z"/><rect class="cls-2" x="518.91" y="340.61" width="1.6" height="53.94"/><polygon class="cls-1" points="743.04 205.4 743.04 259.34 773.55 289.18 820.35 272.45 820.35 218.51 743.04 205.4"/><path class="cls-2" d="M744.64,207.29l74.12,12.57v51.47l-44.81,16-29.31-28.67V207.29M743,205.4v53.94l30.51,29.84,46.8-16.73V218.51L743,205.4Z"/><polygon class="cls-1" points="743.04 205.4 789.85 188.67 820.35 218.51 773.55 235.24 743.04 205.4"/><path class="cls-2" d="M789.44,190.51l28,27.36L774,233.4,746,206l43.45-15.53m.41-1.84L743,205.4l30.51,29.84,46.8-16.73-30.5-29.84Z"/><rect class="cls-2" x="772.75" y="235.24" width="1.6" height="53.94"/><polygon class="cls-1" points="516.34 154.31 516.34 208.25 546.85 238.09 593.65 221.37 593.65 167.42 516.34 154.31"/><path class="cls-2" d="M517.94,156.2l74.11,12.57v51.47l-44.8,16-29.31-28.67V156.2m-1.6-1.89v53.94l30.51,29.84,46.8-16.72v-54l-77.31-13.11Z"/><polygon class="cls-1" points="516.34 154.31 563.14 137.58 593.65 167.42 546.85 184.15 516.34 154.31"/><path class="cls-2" d="M562.74,139.42l28,27.36-43.46,15.53-28-27.36,43.46-15.53m.4-1.84-46.8,16.73,30.51,29.84,46.8-16.73-30.51-29.84Z"/><rect class="cls-2" x="546.05" y="184.15" width="1.6" height="53.94"/><path class="cls-3" d="M973.42,176a5.59,5.59,0,0,1-4.23-9.24,6.63,6.63,0,0,0-.69-9.35,5.59,5.59,0,0,1,7.29-8.47A17.83,17.83,0,0,1,977.66,174,5.58,5.58,0,0,1,973.42,176Z"/><path class="cls-3" d="M973.42,176a5.59,5.59,0,0,1-4.23-9.24,6.63,6.63,0,0,0-.69-9.35,5.59,5.59,0,0,1,7.29-8.47A17.83,17.83,0,0,1,977.66,174,5.58,5.58,0,0,1,973.42,176Z"/><path class="cls-3" d="M991.94,191.92a5.58,5.58,0,0,1-4.23-9.23,31.09,31.09,0,0,0-3.27-43.83,5.59,5.59,0,0,1,7.3-8.47A42.26,42.26,0,0,1,996.18,190,5.6,5.6,0,0,1,991.94,191.92Z"/><path class="cls-3" d="M1010.42,207.84a5.6,5.6,0,0,1-4.23-9.24,55.45,55.45,0,0,0-5.83-78.22,5.59,5.59,0,1,1,7.3-8.47,66.66,66.66,0,0,1,7,94A5.58,5.58,0,0,1,1010.42,207.84Z"/><path class="cls-3" d="M1029.4,224.18a5.59,5.59,0,0,1-4.23-9.24,80.5,80.5,0,0,0-8.46-113.54,5.59,5.59,0,1,1,7.29-8.47,91.69,91.69,0,0,1,9.64,129.31A5.6,5.6,0,0,1,1029.4,224.18Z"/><path class="cls-3" d="M1239.32,176a5.6,5.6,0,0,1-4.24-1.94,17.83,17.83,0,0,1,1.87-25.12,5.59,5.59,0,1,1,7.3,8.47,6.63,6.63,0,0,0-.7,9.35,5.59,5.59,0,0,1-4.23,9.24Z"/><path class="cls-3" d="M1239.32,176a5.6,5.6,0,0,1-4.24-1.94,17.83,17.83,0,0,1,1.87-25.12,5.59,5.59,0,1,1,7.3,8.47,6.63,6.63,0,0,0-.7,9.35,5.59,5.59,0,0,1-4.23,9.24Z"/><path class="cls-3" d="M1220.8,191.92a5.6,5.6,0,0,1-4.24-1.94,42.26,42.26,0,0,1,4.44-59.59,5.59,5.59,0,1,1,7.3,8.47,31.09,31.09,0,0,0-3.27,43.83,5.58,5.58,0,0,1-4.23,9.23Z"/><path class="cls-3" d="M1202.32,207.84a5.57,5.57,0,0,1-4.24-1.94,66.66,66.66,0,0,1,7-94,5.59,5.59,0,1,1,7.3,8.47,55.45,55.45,0,0,0-5.83,78.22,5.6,5.6,0,0,1-4.23,9.24Z"/><path class="cls-3" d="M1183.34,224.18a5.6,5.6,0,0,1-4.24-1.94,91.69,91.69,0,0,1,9.64-129.31,5.59,5.59,0,0,1,7.29,8.47,80.5,80.5,0,0,0-8.46,113.54,5.59,5.59,0,0,1-4.23,9.24Z"/><rect class="cls-1" x="1284.45" y="105.19" width="269.81" height="183.6" rx="12.47" transform="translate(121.34 -410.08) rotate(17.16)"/><path class="cls-2" d="M1508,320.32a20.54,20.54,0,0,1-6.1-.93l-219.74-67.86a20.75,20.75,0,0,1-13.68-25.9l42.43-137.38a20.74,20.74,0,0,1,25.9-13.67l219.75,67.87a20.74,20.74,0,0,1,13.67,25.9L1527.8,305.72A20.74,20.74,0,0,1,1508,320.32Zm-5.62-2.45a19.15,19.15,0,0,0,23.9-12.62l42.42-137.38a19.14,19.14,0,0,0-12.62-23.9L1336.34,76.1a19.14,19.14,0,0,0-23.9,12.62L1270,226.1a19.13,19.13,0,0,0,12.62,23.9Z"/><rect class="cls-1" x="1297.06" y="118.57" width="234.98" height="155.53" rx="4.62" transform="translate(120.93 -408.69) rotate(17.16)"/><path class="cls-2" d="M1499,304.26a8.15,8.15,0,0,1-2.43-.37l-210.42-65a8.18,8.18,0,0,1-5.4-10.22L1322.3,94.17a8.17,8.17,0,0,1,10.22-5.39l210.42,65a8.18,8.18,0,0,1,5.4,10.22L1506.79,298.5a8.18,8.18,0,0,1-7.79,5.76ZM1330.1,90a6.45,6.45,0,0,0-3.06.76,6.54,6.54,0,0,0-3.22,3.87l-41.54,134.51a6.59,6.59,0,0,0,4.34,8.23l210.43,65a6.58,6.58,0,0,0,8.22-4.34l41.54-134.51a6.59,6.59,0,0,0-4.34-8.23l-210.42-65A6.59,6.59,0,0,0,1330.1,90Z"/><circle class="cls-1" cx="1537.9" cy="236.52" r="6.79"/><path class="cls-2" d="M1537.89,244.11a7.5,7.5,0,0,1-2.23-.34,7.58,7.58,0,1,1,9.48-5h0A7.6,7.6,0,0,1,1537.89,244.11Zm0-13.58a6,6,0,1,0,1.76.27A6,6,0,0,0,1537.9,230.53Z"/><circle class="cls-1" cx="1478.45" cy="263.42" r="27.14" transform="translate(492.21 1395.91) rotate(-59.05)"/><path class="cls-2" d="M1478.43,291.36A27.94,27.94,0,1,1,1505,272.12h0A28,28,0,0,1,1478.43,291.36Zm0-54.28a26.34,26.34,0,1,0,25,34.55h0a26.33,26.33,0,0,0-25-34.54Z"/><polyline class="cls-1" points="1481.92 253.06 1488.89 266.84 1475.11 273.82"/><path class="cls-2" d="M1475.11,274.62a.8.8,0,0,1-.36-1.51l13.07-6.62-6.62-13.06a.81.81,0,0,1,.36-1.08.8.8,0,0,1,1.07.36l7,13.77a.81.81,0,0,1,0,.61.84.84,0,0,1-.4.47l-13.78,7A.74.74,0,0,1,1475.11,274.62Z"/><line class="cls-1" x1="1488.89" y1="266.84" x2="1468.01" y2="260"/><path class="cls-2" d="M1488.89,267.64a.77.77,0,0,1-.25,0l-20.88-6.84a.8.8,0,0,1,.5-1.52l20.88,6.84a.8.8,0,0,1-.25,1.56Z"/><circle class="cls-1" cx="1429.54" cy="247.39" r="15.87" transform="translate(482.2 1346.17) rotate(-59.05)"/><path class="cls-2" d="M1429.56,264.07a16.77,16.77,0,0,1-5.22-.84,16.67,16.67,0,0,1-10.65-21h0a16.66,16.66,0,1,1,15.87,21.88Zm-14.35-21.38a15.08,15.08,0,1,0,19-9.63,15,15,0,0,0-19,9.63Z"/><polyline class="cls-1" points="1427.51 253.44 1423.43 245.38 1431.49 241.31"/><path class="cls-2" d="M1427.51,254.24a.79.79,0,0,1-.71-.44l-4.08-8.05a.81.81,0,0,1,.35-1.08l8.06-4.08a.8.8,0,0,1,.72,1.43l-7.35,3.72,3.72,7.34a.81.81,0,0,1-.35,1.08A.94.94,0,0,1,1427.51,254.24Z"/><line class="cls-1" x1="1423.43" y1="245.39" x2="1435.64" y2="249.39"/><path class="cls-2" d="M1435.64,250.19a1,1,0,0,1-.24,0l-12.22-4a.78.78,0,0,1-.51-1,.8.8,0,0,1,1-.51l12.21,4a.8.8,0,0,1-.25,1.56Z"/><path class="cls-2" d="M1328.77,146.32l3.62-3.65a13.48,13.48,0,0,0,6.22,4.12c2.23.68,3.74.37,4.08-.75.84-2.76-9.61-4.28-7.64-10.74,1.35-4.43,6-6.18,12.11-4.33a15,15,0,0,1,6.86,4l-3.43,3.67a11,11,0,0,0-5.17-3.27c-2.4-.74-4-.25-4.3.86-.89,2.81,9.61,4.25,7.68,10.6-1.34,4.4-6.11,6.13-12.13,4.29A16.79,16.79,0,0,1,1328.77,146.32Z"/><path class="cls-2" d="M1360.25,140.45l-6.31-1.92,2.34-4.33,18.42,5.62-2.35,4.32-6.28-1.91-8.07,15-5.81-1.78Z"/><path class="cls-2" d="M1380.32,146.44l-1.73,3.26,9.13,2.79-2.18,4.09-9.16-2.8-1.88,3.54,10.78,3.28-2.31,4.21-16.48-5,10.38-19.3,16.09,4.91-2.28,4.22Z"/><path class="cls-2" d="M1411.63,158.3c-1.59,5.2-6.58,7.37-12.78,5.48l-4.11-1.25-2.7,5.05-5.81-1.78,10.38-19.3,8.69,2.65C1410.65,150.78,1412.9,154.13,1411.63,158.3Zm-6-1.29c.53-1.73-.43-2.89-2.46-3.51l-3.05-.93-3,5.65,3.46,1.06C1403.07,160.06,1404.91,159.27,1405.6,157Z"/><path class="cls-2" d="M1434.55,158.08l-10.38,19.3-5.81-1.78,8.1-15.08-3.82-1.17,2.28-4.21Z"/><path class="cls-2" d="M1447.16,157.36l5.14,1.57L1428.8,182l-5.14-1.57Z"/><path class="cls-2" d="M1457.66,176.32l2.43,12-6.28-1.92-1.23-7.11-7.26,4.53-7-2.13,13-7.64-2.23-11.53,6.2,1.89,1.19,6.81,7-4.3,6.58,2Z"/><path class="cls-2" d="M628.83,171.39c-4.39-4.66-2.8-9.67,3.61-12a17.88,17.88,0,0,1,11.4-.27l-1.29,3.82a10.18,10.18,0,0,0-6.45-.07c-3.31,1.21-4,3.8-1.5,6.42a9.28,9.28,0,0,0,9.74,2.33,4.13,4.13,0,0,0,3.07-3.53l6,1.17c-.21,2.57-2.25,4.69-6,6C641,177.63,633.21,176,628.83,171.39Z"/><path class="cls-2" d="M649.69,163.8c-4.32-4.59-2.73-9.68,3.73-12s14.39-.72,18.72,3.87,2.73,9.69-3.73,12S654,168.39,649.69,163.8Zm16.68-6.06a9.3,9.3,0,0,0-9.57-2.39c-3.06,1.11-3.83,3.71-1.34,6.36a9.27,9.27,0,0,0,9.57,2.38C668.09,163,668.86,160.38,666.37,157.74Z"/><path class="cls-2" d="M687.15,139.92l14.42,15.3-4.71,1.7L680.27,152l7.68,8.16-5.6,2-14.41-15.3,4.7-1.71,16.6,4.91L681.55,142Z"/><path class="cls-2" d="M698.73,140.31l-6.21,2.26-3.23-3.43,18.09-6.58,3.24,3.43-6.18,2.25,11.18,11.87-5.71,2.07Z"/><path class="cls-2" d="M737,137.85l3.15,3.34-16.21,5.89-14.42-15.29L725.36,126l3.15,3.34-10.18,3.7,2.43,2.58,9-3.26,3,3.23-9,3.27,2.64,2.79Z"/><path class="cls-2" d="M748.13,117.75l14.42,15.3-4.71,1.71-16.59-4.91,7.68,8.15-5.6,2-14.42-15.29,4.71-1.71,16.59,4.91-7.68-8.15Z"/><path class="cls-2" d="M759.71,118.15l-6.21,2.25L750.27,117l18.09-6.57,3.23,3.43-6.17,2.24,11.18,11.87L770.89,130Z"/></svg>