<svg id="Calque_1" data-name="Calque 1" xmlns="http://www.w3.org/2000/svg" viewBox="0 0 564.17 348.33"><defs><style>.cls-1,.cls-2{fill:none;stroke:#000;stroke-miterlimit:10;}.cls-1{stroke-width:3px;}</style></defs><title>fibonacci</title><rect class="cls-1" x="174.17" y="87.83" width="43.17" height="43.17"/><rect class="cls-1" x="131" y="87.83" width="43.17" height="43.17"/><rect class="cls-1" x="131" y="1.5" width="86.33" height="86.33"/><rect class="cls-1" x="1.5" y="1.5" width="129.5" height="129.5"/><rect class="cls-1" x="1.5" y="131" width="215.83" height="215.83"/><rect class="cls-1" x="217.33" y="1.5" width="345.33" height="345.33"/><path class="cls-2" d="M131,87.83A43.17,43.17,0,0,0,174.17,131"/><path class="cls-2" d="M174.17,131a43.16,43.16,0,0,0,43.16-43.17"/><path class="cls-2" d="M217.34,87.83A86.34,86.34,0,0,0,131,1.5"/><path class="cls-2" d="M131,1.52A129.5,129.5,0,0,0,1.51,131"/><path class="cls-2" d="M1.5,131C1.5,250.06,98,346.58,217.08,346.58"/><path class="cls-2" d="M217.33,346.84c190.78,0,345.44-154.66,345.44-345.44"/><path d="M153.23,99.92a10.48,10.48,0,0,0,2.24-.19,3,3,0,0,0,1.32-.6,2,2,0,0,0,.63-1.07,6.79,6.79,0,0,0,.17-1.63h1.95V117.5h-2.1V101.61h-4.21Z"/><path d="M184.15,99.92a10.59,10.59,0,0,0,2.25-.19,3,3,0,0,0,1.32-.6,2,2,0,0,0,.63-1.07,6.79,6.79,0,0,0,.17-1.63h1.95V117.5h-2.1V101.61h-4.22Z"/><path d="M139.54,24.75a8.46,8.46,0,0,1,1.17-2.84,6.93,6.93,0,0,1,2-1.93,20.52,20.52,0,0,1,2.71-1.46c.62-.26,1.22-.53,1.8-.82a7.13,7.13,0,0,0,1.54-1,4.3,4.3,0,0,0,1.05-1.4,4.46,4.46,0,0,0,.39-1.95A3.71,3.71,0,0,0,149,10.46a4.54,4.54,0,0,0-3.19-1.05,5.19,5.19,0,0,0-1.9.33,4.24,4.24,0,0,0-1.46.95,4.17,4.17,0,0,0-.94,1.47,5.37,5.37,0,0,0-.34,1.94h-2a6.9,6.9,0,0,1,.51-2.69,6.34,6.34,0,0,1,1.4-2.09A6,6,0,0,1,143.17,8a7.4,7.4,0,0,1,2.66-.47,8.11,8.11,0,0,1,2.63.41,5.6,5.6,0,0,1,2,1.17A5.32,5.32,0,0,1,151.76,11a6.63,6.63,0,0,1,.45,2.5,5.46,5.46,0,0,1-.57,2.56,7,7,0,0,1-1.43,1.86,9.14,9.14,0,0,1-1.87,1.31c-.67.35-1.3.65-1.88.89A17.53,17.53,0,0,0,144,21.44a6.28,6.28,0,0,0-1.53,1.45,4.77,4.77,0,0,0-.8,1.79,11,11,0,0,0-.22,2.36H152.3V28.9H139.15A18.81,18.81,0,0,1,139.54,24.75Z"/><path d="M7.39,114.43a4.8,4.8,0,0,0,.38,1.94,4.31,4.31,0,0,0,1,1.48,4.46,4.46,0,0,0,1.58.94,5.6,5.6,0,0,0,2,.34,5.86,5.86,0,0,0,2-.32,4.3,4.3,0,0,0,1.5-.89,4,4,0,0,0,.95-1.34,4.07,4.07,0,0,0,.33-1.64A4.22,4.22,0,0,0,16,111.87a4.8,4.8,0,0,0-3.56-1.2h-1.6v-1.83h1.6a4.49,4.49,0,0,0,3.28-1.09,3.78,3.78,0,0,0,1.08-2.8,3.4,3.4,0,0,0-1.19-2.76,4.74,4.74,0,0,0-3.17-1A4.49,4.49,0,0,0,9,102.34a4.1,4.1,0,0,0-1.13,3h-2a6.32,6.32,0,0,1,.46-2.47A5.56,5.56,0,0,1,7.63,101a6.07,6.07,0,0,1,2-1.24,7.46,7.46,0,0,1,2.62-.43,8,8,0,0,1,2.6.4,6.35,6.35,0,0,1,2.06,1.15,5.25,5.25,0,0,1,1.37,1.79,5.35,5.35,0,0,1,.5,2.31,5,5,0,0,1-1,3.13,4.66,4.66,0,0,1-2.7,1.69,5.32,5.32,0,0,1,3,1.79,5.12,5.12,0,0,1,1.1,3.35,6,6,0,0,1-.51,2.49,5.61,5.61,0,0,1-1.45,1.92,6.86,6.86,0,0,1-2.2,1.25,8.06,8.06,0,0,1-2.73.45,8.19,8.19,0,0,1-2.73-.45,6.36,6.36,0,0,1-2.21-1.31,6.13,6.13,0,0,1-1.47-2.08,6.71,6.71,0,0,1-.54-2.75Z"/><path d="M181.27,312.13h12V314H183.16v8.21a3.89,3.89,0,0,1,.87-1.11,5.4,5.4,0,0,1,1.21-.8,6.9,6.9,0,0,1,2.83-.65,7,7,0,0,1,2.87.55,6.16,6.16,0,0,1,2.11,1.47,6.47,6.47,0,0,1,1.31,2.2,7.88,7.88,0,0,1,.45,2.67,7.25,7.25,0,0,1-.5,2.68,6.82,6.82,0,0,1-1.41,2.23,6.7,6.7,0,0,1-2.22,1.52,7.29,7.29,0,0,1-2.91.55,7.15,7.15,0,0,1-2.88-.55,6.73,6.73,0,0,1-3.61-3.75,7.25,7.25,0,0,1-.49-2.68h2.07a5.51,5.51,0,0,0,.35,2,4.73,4.73,0,0,0,1,1.61,4.65,4.65,0,0,0,1.55,1.1,4.86,4.86,0,0,0,2,.41,5.13,5.13,0,0,0,2.07-.41,4.58,4.58,0,0,0,1.58-1.1,4.73,4.73,0,0,0,1-1.61,5.66,5.66,0,0,0,0-3.92,4.64,4.64,0,0,0-1-1.61,4.82,4.82,0,0,0-1.58-1.08,5,5,0,0,0-2.07-.41,4.85,4.85,0,0,0-2.64.69,4.51,4.51,0,0,0-1.7,2.05h-2.16Z"/><path d="M540.06,33.23a8.44,8.44,0,0,1-2.9-.47A6.46,6.46,0,0,1,535,31.47a5.74,5.74,0,0,1-1.38-1.94,5.9,5.9,0,0,1-.49-2.41,6,6,0,0,1,.25-1.72,4.84,4.84,0,0,1,1.95-2.72,5.09,5.09,0,0,1,1.72-.74,4.44,4.44,0,0,1-2.65-1.8,5.2,5.2,0,0,1-.84-2.89A5.73,5.73,0,0,1,534,15a5.34,5.34,0,0,1,1.29-1.83,5.88,5.88,0,0,1,2.05-1.22,8,8,0,0,1,2.73-.44,7.66,7.66,0,0,1,2.71.45,6.49,6.49,0,0,1,2.05,1.22A5.21,5.21,0,0,1,546.11,15a5.73,5.73,0,0,1,.45,2.26,5.2,5.2,0,0,1-.84,2.89,4.44,4.44,0,0,1-2.65,1.8,5.18,5.18,0,0,1,1.72.74,4.8,4.8,0,0,1,1.22,1.2,5.31,5.31,0,0,1,.73,1.54,6.07,6.07,0,0,1,.24,1.7,6,6,0,0,1-.48,2.38,5.74,5.74,0,0,1-1.38,1.94,6.65,6.65,0,0,1-2.18,1.3A7.91,7.91,0,0,1,540.06,33.23Zm0-1.9a5.82,5.82,0,0,0,2-.33,4.78,4.78,0,0,0,1.53-.89,3.74,3.74,0,0,0,1-1.32,4,4,0,0,0,.35-1.67,4.11,4.11,0,0,0-.33-1.64,3.85,3.85,0,0,0-1-1.34,4.77,4.77,0,0,0-1.54-.9,5.92,5.92,0,0,0-2.05-.33,6,6,0,0,0-2.07.33,4.92,4.92,0,0,0-1.54.88,3.81,3.81,0,0,0-1,1.33,4.18,4.18,0,0,0-.33,1.67,4,4,0,0,0,1.32,3A4.56,4.56,0,0,0,538,31,5.9,5.9,0,0,0,540.06,31.33Zm0-10.11a4.57,4.57,0,0,0,3.28-1.11,3.64,3.64,0,0,0,1.18-2.77,3.72,3.72,0,0,0-1.19-2.81,4.52,4.52,0,0,0-3.27-1.13,4.59,4.59,0,0,0-3.26,1.11,3.72,3.72,0,0,0-1.19,2.83,3.67,3.67,0,0,0,1.17,2.77A4.6,4.6,0,0,0,540.06,21.22Z"/></svg>