<svg id="Calque_1" data-name="Calque 1" xmlns="http://www.w3.org/2000/svg" viewBox="0 0 585.77 215.35"><title>logo_stairway</title><path d="M4.68,184.09q.12.72.42,1.89A18.07,18.07,0,0,0,6,188.5a20.35,20.35,0,0,0,1.44,2.76,13.1,13.1,0,0,0,2.13,2.61,12.45,12.45,0,0,0,2.67,2.1A11.49,11.49,0,0,0,14.67,197a9.15,9.15,0,0,0,2.22.36l1.95,0a12,12,0,0,0,5.22-1A9.25,9.25,0,0,0,27.27,194a8.86,8.86,0,0,0,1.65-3,9.83,9.83,0,0,0,.48-2.79,6.05,6.05,0,0,0-1-3.66,8.42,8.42,0,0,0-2.79-2.4,20,20,0,0,0-4-1.62L17,179.14a44,44,0,0,1-4.56-1.62,15.17,15.17,0,0,1-4-2.4,11,11,0,0,1-2.79-3.63,12.32,12.32,0,0,1-1.05-5.4,10.44,10.44,0,0,1,1.08-4.62,12.63,12.63,0,0,1,3-3.93,15.17,15.17,0,0,1,4.59-2.76,15.68,15.68,0,0,1,5.79-1.05,15,15,0,0,1,3.48.36q1.5.36,2.64.75t2,.75a4.2,4.2,0,0,0,1.59.36,1.62,1.62,0,0,0,1.11-.27,3.21,3.21,0,0,0,.57-1h1v11.4h-.78Q30,164,29.19,162a15.42,15.42,0,0,0-2.07-3.69,9.62,9.62,0,0,0-3.18-2.67,10.3,10.3,0,0,0-4.86-1,12.44,12.44,0,0,0-4.23.66A9.8,9.8,0,0,0,11.76,157a7.71,7.71,0,0,0-1.92,2.4,6,6,0,0,0-.66,2.7,5.38,5.38,0,0,0,1.11,3.48,9.62,9.62,0,0,0,2.91,2.37,22.27,22.27,0,0,0,4.11,1.71l4.74,1.5q2.43.78,4.74,1.71a16.24,16.24,0,0,1,4.11,2.37,11.37,11.37,0,0,1,2.91,3.48,10.43,10.43,0,0,1,1.11,5,13.33,13.33,0,0,1-1.2,5.58,14,14,0,0,1-3.39,4.62,16.61,16.61,0,0,1-5.22,3.15,18.6,18.6,0,0,1-6.75,1.17,19.07,19.07,0,0,1-3.69-.36q-1.83-.36-3.42-.75t-2.82-.75A7.28,7.28,0,0,0,6.6,196a2,2,0,0,0-1.2.27,2.4,2.4,0,0,0-.66,1.11h-1V184.09Z"/><path d="M46.77,164.53a7.1,7.1,0,0,0,3.66,0,15,15,0,0,0,1.83-.6v7.74h7v.84h-7v20.1a11.06,11.06,0,0,0,.12,1.68,4.49,4.49,0,0,0,.45,1.41,2.41,2.41,0,0,0,1,1,3.31,3.31,0,0,0,1.65.36,3.76,3.76,0,0,0,2-.48,5.17,5.17,0,0,0,1.41-1.23,6.84,6.84,0,0,0,1-1.71,15.7,15.7,0,0,0,.63-1.86l.9.18a8,8,0,0,1-1.23,3.27,6.54,6.54,0,0,1-2,1.89,6.78,6.78,0,0,1-2.37.87,14.62,14.62,0,0,1-2.4.21,12.85,12.85,0,0,1-4.83-.72,5.94,5.94,0,0,1-2.52-1.8,4.57,4.57,0,0,1-.93-2.34q-.12-1.26-.12-2.34V172.51h-4v-.84h4v-7.74A15,15,0,0,0,46.77,164.53Z"/><path d="M89.07,198a20,20,0,0,1-3,.24,7.68,7.68,0,0,1-4.53-1.08,4.63,4.63,0,0,1-1.83-3h-.12A5.81,5.81,0,0,1,77,197.35a11.16,11.16,0,0,1-4.86.84,15,15,0,0,1-2.94-.3,10.24,10.24,0,0,1-2.76-1,5.45,5.45,0,0,1-2-1.83,5,5,0,0,1-.78-2.85,5.65,5.65,0,0,1,.69-2.91,6.54,6.54,0,0,1,1.8-2A10,10,0,0,1,68.61,186q1.41-.51,2.91-1,2.46-.72,4-1.23a9.86,9.86,0,0,0,2.37-1.08,3.22,3.22,0,0,0,1.17-1.29,4.49,4.49,0,0,0,.33-1.86v-3.66A5.67,5.67,0,0,0,78.6,173a3.12,3.12,0,0,0-2.94-1.32,4.47,4.47,0,0,0-2.4.63,2.49,2.49,0,0,0-1,2.31,5.6,5.6,0,0,0,.06.63q.06.45.12,1t.12,1a6.39,6.39,0,0,1,.06.66,2.16,2.16,0,0,1-.42,1.41,2.56,2.56,0,0,1-1,.75,3.5,3.5,0,0,1-1.2.27l-1,0a8.69,8.69,0,0,1-1.23-.09,2.57,2.57,0,0,1-1.11-.42,2.65,2.65,0,0,1-.81-.93,3.37,3.37,0,0,1-.33-1.62,4.71,4.71,0,0,1,.87-2.79,6.94,6.94,0,0,1,2.31-2,12.2,12.2,0,0,1,3.27-1.23,17,17,0,0,1,3.81-.42,24.33,24.33,0,0,1,4.29.36,9.28,9.28,0,0,1,3.48,1.32,6.88,6.88,0,0,1,2.34,2.61,8.89,8.89,0,0,1,.87,4.17v14.88a5.65,5.65,0,0,0,.33,2q.33.87,1.65.87a2.51,2.51,0,0,0,1.29-.3,4.18,4.18,0,0,0,1-.84l.54.54A3.39,3.39,0,0,1,89.07,198Zm-9.81-15.42a1.78,1.78,0,0,1-.45.69,4.72,4.72,0,0,1-1.17.75q-1.14.54-2.28,1.05a8.21,8.21,0,0,0-2,1.29,6.14,6.14,0,0,0-1.47,1.92,6.58,6.58,0,0,0-.57,2.94q0,.72.09,1.68a6.08,6.08,0,0,0,.48,1.86A4,4,0,0,0,73,196.24a3.35,3.35,0,0,0,2.16.63,3.5,3.5,0,0,0,1.53-.36,3.9,3.9,0,0,0,1.35-1.11,5.71,5.71,0,0,0,1-2,10.68,10.68,0,0,0,.36-3v-7.92Z"/><path d="M105.72,171.67v24.9h4v.84H94.38v-.84h4V172.51h-4v-.84Zm-6.66-15.9a4.2,4.2,0,1,1-1.26,3A4.1,4.1,0,0,1,99.06,155.77Z"/><path d="M124.68,171.67v5h.12a12.35,12.35,0,0,1,2.91-3.93,6.94,6.94,0,0,1,4.83-1.65,6,6,0,0,1,4.08,1.35,4.7,4.7,0,0,1,1.56,3.75,4.21,4.21,0,0,1-.87,2.82,3.48,3.48,0,0,1-2.79,1,5.56,5.56,0,0,1-2.52-.57,2.16,2.16,0,0,1-1.14-2.13,5.6,5.6,0,0,1,.06-.63q.06-.45.15-1t.15-.93q.06-.42.06-.48a2.74,2.74,0,0,0-.18-.75,1.26,1.26,0,0,0-.39-.48,1.31,1.31,0,0,0-.81-.21,3,3,0,0,0-1.5.57,6.23,6.23,0,0,0-1.68,1.65,11,11,0,0,0-1.35,2.61,9.83,9.83,0,0,0-.57,3.45v15.36h4.74v.84h-16v-.84h3.9V172.51h-3.9v-.84Z"/><path d="M137.46,172.51v-.84H152.7v.84h-3.9l6.18,15.6,4.74-12.78-1.2-2.82h-3.06v-.84h15v.84h-4l6.18,15.6,5.76-15.6h-4.2v-.84h8.1v.84h-2.94L169.5,199h-.42l-8.88-22.44L151.86,199h-.42L141,172.51Z"/><path d="M210.21,198a20,20,0,0,1-3,.24,7.68,7.68,0,0,1-4.53-1.08,4.63,4.63,0,0,1-1.83-3h-.12a5.81,5.81,0,0,1-2.64,3.24,11.16,11.16,0,0,1-4.86.84,15,15,0,0,1-2.94-.3,10.24,10.24,0,0,1-2.76-1,5.45,5.45,0,0,1-2-1.83,5,5,0,0,1-.78-2.85,5.65,5.65,0,0,1,.69-2.91,6.54,6.54,0,0,1,1.8-2,10,10,0,0,1,2.52-1.32q1.41-.51,2.91-1,2.46-.72,4-1.23a9.86,9.86,0,0,0,2.37-1.08,3.22,3.22,0,0,0,1.17-1.29,4.49,4.49,0,0,0,.33-1.86v-3.66a5.67,5.67,0,0,0-.78-2.94,3.12,3.12,0,0,0-2.94-1.32,4.47,4.47,0,0,0-2.4.63,2.49,2.49,0,0,0-1,2.31,5.6,5.6,0,0,0,.06.63q.06.45.12,1t.12,1a6.39,6.39,0,0,1,.06.66,2.16,2.16,0,0,1-.42,1.41,2.56,2.56,0,0,1-1,.75,3.5,3.5,0,0,1-1.2.27l-1,0a8.69,8.69,0,0,1-1.23-.09,2.57,2.57,0,0,1-1.11-.42,2.65,2.65,0,0,1-.81-.93,3.37,3.37,0,0,1-.33-1.62,4.71,4.71,0,0,1,.87-2.79,6.94,6.94,0,0,1,2.31-2,12.2,12.2,0,0,1,3.27-1.23,17,17,0,0,1,3.81-.42,24.33,24.33,0,0,1,4.29.36,9.28,9.28,0,0,1,3.48,1.32,6.88,6.88,0,0,1,2.34,2.61,8.89,8.89,0,0,1,.87,4.17v14.88a5.65,5.65,0,0,0,.33,2q.33.87,1.65.87a2.51,2.51,0,0,0,1.29-.3,4.18,4.18,0,0,0,1-.84l.54.54A3.39,3.39,0,0,1,210.21,198Zm-9.81-15.42a1.78,1.78,0,0,1-.45.69,4.72,4.72,0,0,1-1.17.75q-1.14.54-2.28,1.05a8.21,8.21,0,0,0-2,1.29,6.14,6.14,0,0,0-1.47,1.92,6.58,6.58,0,0,0-.57,2.94q0,.72.09,1.68a6.08,6.08,0,0,0,.48,1.86,4,4,0,0,0,1.17,1.53,3.35,3.35,0,0,0,2.16.63,3.5,3.5,0,0,0,1.53-.36,3.9,3.9,0,0,0,1.35-1.11,5.71,5.71,0,0,0,1-2,10.68,10.68,0,0,0,.36-3v-7.92Z"/><path d="M238.92,172.51h-5v-.84h8.7v.84h-2.76q-3.36,7.2-5.76,12.9T230,195.55l-3.12,7.83q-1.35,3.39-2.55,6a10.86,10.86,0,0,1-2.7,4,6,6,0,0,1-4,1.26,7.13,7.13,0,0,1-4.41-1.29,4.22,4.22,0,0,1-1.71-3.57,2.86,2.86,0,0,1,1.11-2.52,4.53,4.53,0,0,1,2.67-.78,4,4,0,0,1,2.16.63,2.08,2.08,0,0,1,1,1.89,3.4,3.4,0,0,1-.39,1.74,3,3,0,0,0-.39,1.56,1.28,1.28,0,0,0,.36,1,1.2,1.2,0,0,0,.84.33,3.07,3.07,0,0,0,2-.78,8.51,8.51,0,0,0,1.68-2,17.35,17.35,0,0,0,1.32-2.49q.57-1.32,1-2.4l2.58-6.42-11.28-27h-3.18v-.84h15.24v.84H224l7.32,17.34Z"/><path d="M288.72,196.57l14.76-41h-.12l-28.92,41.88.84-41.88h-.18l-14.58,41h6.84l-.24.84H253.2l.24-.84h6.18l14.7-41h-6.9l.24-.84H280.5l-.72,33.3h.12l23-33.3H315.3l-.24.84h-6.18l-14.7,41H301l-.24.84H282.24l.24-.84Z"/><path d="M330.87,192.85a10,10,0,0,0-.39,2.58q0,1.56,1.5,1.56a3.61,3.61,0,0,0,2.16-.69,8.19,8.19,0,0,0,1.65-1.56,10.79,10.79,0,0,0,1.14-1.74l.63-1.23.78.42q-.31.66-.9,1.68a9.61,9.61,0,0,1-1.56,1.95,10.23,10.23,0,0,1-2.22,1.62,6.05,6.05,0,0,1-2.94.69q-4,0-4-3.6a10.24,10.24,0,0,1,.18-1.47,10.42,10.42,0,0,1,.48-1.89h-.12q-.84,1-1.92,2.25A17.61,17.61,0,0,1,323,195.7a13.31,13.31,0,0,1-3,1.74,9.1,9.1,0,0,1-3.6.69,6.71,6.71,0,0,1-2.43-.45,5.7,5.7,0,0,1-2.07-1.38,6.31,6.31,0,0,1-1.41-2.37,10,10,0,0,1-.51-3.42,12.84,12.84,0,0,1,1-4.8,22.27,22.27,0,0,1,2.49-4.59,25.08,25.08,0,0,1,3.54-4.05,32.88,32.88,0,0,1,4.08-3.24,21,21,0,0,1,4.08-2.16,10,10,0,0,1,3.57-.78,4.71,4.71,0,0,1,3.06,1,3.3,3.3,0,0,1,1.26,2.7h.12l1-2.94h4.2l-6.54,18.18C331.44,190.89,331.12,191.89,330.87,192.85Zm1.38-16a5.73,5.73,0,0,0,.21-1.41,5.07,5.07,0,0,0-.15-1.17,3.28,3.28,0,0,0-.54-1.17,3.53,3.53,0,0,0-1-.93,3.4,3.4,0,0,0-1.74-.39,7.55,7.55,0,0,0-3.87,1.11,15.39,15.39,0,0,0-3.54,2.91,24.56,24.56,0,0,0-3,4.11,36.73,36.73,0,0,0-2.37,4.68,30.86,30.86,0,0,0-1.53,4.59,16.78,16.78,0,0,0-.54,3.9,5.72,5.72,0,0,0,.75,3.12,2.7,2.7,0,0,0,2.49,1.2,6.86,6.86,0,0,0,3.54-1.08,17.08,17.08,0,0,0,3.3-2.58,25.5,25.5,0,0,0,2.58-3,11.09,11.09,0,0,0,1.38-2.34l3.18-8.82Q332,177.61,332.25,176.8Z"/><path d="M345.24,172.51l.24-.84H355l-2.46,7.38h.12q5.82-7.74,11-7.74a5.65,5.65,0,0,1,4,1.35,4.32,4.32,0,0,1,1.48,3.33,6.61,6.61,0,0,1-.33,2c-.23.66-.49,1.45-.81,2.37l-3.9,11.1c-.24.68-.47,1.35-.66,2a6.38,6.38,0,0,0-.3,2,2.79,2.79,0,0,0,.3,1.32,1.25,1.25,0,0,0,1.26.6,3.52,3.52,0,0,0,2-.6,8.62,8.62,0,0,0,1.65-1.44,10.8,10.8,0,0,0,1.29-1.77c.36-.62.63-1.15.84-1.59l.66.3c-.21.4-.48.93-.84,1.59a11.13,11.13,0,0,1-1.41,1.95,8.08,8.08,0,0,1-2.13,1.65,6.16,6.16,0,0,1-3,.69,5.89,5.89,0,0,1-3.24-.84,3,3,0,0,1-1.32-2.76,6.67,6.67,0,0,1,.21-1.62c.14-.56.3-1.16.51-1.8l5-14.34a8.15,8.15,0,0,0,.47-2.4,2.55,2.55,0,0,0-.5-1.5,2.09,2.09,0,0,0-1.83-.72,6.36,6.36,0,0,0-3.06,1,16.81,16.81,0,0,0-3.48,2.7,24.32,24.32,0,0,0-3.27,4,22.53,22.53,0,0,0-2.49,5l-4.5,12.54h-4.14l8.64-24.9Z"/><path d="M395.3,192.85a10,10,0,0,0-.39,2.58q0,1.56,1.5,1.56a3.61,3.61,0,0,0,2.16-.69,8.19,8.19,0,0,0,1.65-1.56,10.79,10.79,0,0,0,1.14-1.74l.63-1.23.78.42a19,19,0,0,1-.9,1.68,9.28,9.28,0,0,1-1.56,1.95,10.23,10.23,0,0,1-2.22,1.62,6,6,0,0,1-2.94.69q-4,0-4-3.6a10.24,10.24,0,0,1,.18-1.47,11.32,11.32,0,0,1,.48-1.89h-.12q-.84,1-1.92,2.25a17.61,17.61,0,0,1-2.43,2.28,13.31,13.31,0,0,1-3,1.74,9.1,9.1,0,0,1-3.6.69,6.71,6.71,0,0,1-2.43-.45,5.7,5.7,0,0,1-2.07-1.38,6.44,6.44,0,0,1-1.41-2.37,10.26,10.26,0,0,1-.51-3.42,12.84,12.84,0,0,1,1-4.8,22.75,22.75,0,0,1,2.49-4.59,25.08,25.08,0,0,1,3.54-4.05,32.88,32.88,0,0,1,4.08-3.24,21.25,21.25,0,0,1,4.08-2.16,10,10,0,0,1,3.57-.78,4.71,4.71,0,0,1,3.06,1,3.3,3.3,0,0,1,1.26,2.7h.12l1-2.94h4.2l-6.54,18.18Q395.69,191.41,395.3,192.85Zm1.38-16a5.73,5.73,0,0,0,.21-1.41,5.07,5.07,0,0,0-.15-1.17,3.28,3.28,0,0,0-.54-1.17,3.19,3.19,0,0,0-2.79-1.32,7.55,7.55,0,0,0-3.87,1.11,15.39,15.39,0,0,0-3.54,2.91,25.12,25.12,0,0,0-3,4.11,36.73,36.73,0,0,0-2.37,4.68,30.86,30.86,0,0,0-1.53,4.59,16.78,16.78,0,0,0-.54,3.9,5.81,5.81,0,0,0,.75,3.12,2.71,2.71,0,0,0,2.49,1.2,6.86,6.86,0,0,0,3.54-1.08,17.08,17.08,0,0,0,3.3-2.58,24.59,24.59,0,0,0,2.58-3,10.66,10.66,0,0,0,1.38-2.34l3.18-8.82Q396.47,177.61,396.68,176.8Z"/><path d="M426.62,196.81q2.25,1.5,2.25,5a10.6,10.6,0,0,1-1,4.32,14.42,14.42,0,0,1-2.94,4.23,16,16,0,0,1-15.54,3.84,14.53,14.53,0,0,1-3.69-1.65,8.18,8.18,0,0,1-2.49-2.4,5.11,5.11,0,0,1-.9-2.82,5.53,5.53,0,0,1,.69-2.7,11.83,11.83,0,0,1,1.65-2.31,12.87,12.87,0,0,1,2-1.8q1-.75,1.77-1.17l1.68-.9-1.35-.42a5.4,5.4,0,0,1-1.44-.72,3.7,3.7,0,0,1-1.14-1.32,4.7,4.7,0,0,1-.45-2.22,6,6,0,0,1,1-3.33,8.46,8.46,0,0,1,3.24-2.67l2.22-1.2a8.91,8.91,0,0,1-1.29-2,6.27,6.27,0,0,1-.51-2.73,8.18,8.18,0,0,1,1.14-4.14,13.28,13.28,0,0,1,2.94-3.51,15,15,0,0,1,4-2.43,10.88,10.88,0,0,1,4.2-.9,9.31,9.31,0,0,1,2.73.36,8.55,8.55,0,0,1,2.07.93,7.26,7.26,0,0,1,1.5,1.23,8.11,8.11,0,0,1,1,1.26,15.07,15.07,0,0,1,1.74-2.13,3.83,3.83,0,0,1,2.88-1,3.9,3.9,0,0,1,2.73,1.08,3.46,3.46,0,0,1,1.17,2.64,2.6,2.6,0,0,1-.6,1.77,2.5,2.5,0,0,1-2,.69,2.31,2.31,0,0,1-1.41-.42,1.29,1.29,0,0,1-.57-1.08,1.64,1.64,0,0,1,.18-.84,2.79,2.79,0,0,1,.42-.54,2.48,2.48,0,0,0,.42-.57,2,2,0,0,0,.18-.93.92.92,0,0,0-.3-.66,1.14,1.14,0,0,0-.84-.3,2.74,2.74,0,0,0-1.89.9,7.84,7.84,0,0,0-1.59,2.28,4.46,4.46,0,0,1,.63,1.41,6.17,6.17,0,0,1,.27,1.71,7.3,7.3,0,0,1-1.11,3.78,13.4,13.4,0,0,1-2.88,3.36,15.25,15.25,0,0,1-3.87,2.4,11.24,11.24,0,0,1-8.31.21,23.9,23.9,0,0,1-2.25-1.17l-1.26.6a8.93,8.93,0,0,0-2.91,2,3.33,3.33,0,0,0-1,2.19,2.06,2.06,0,0,0,1.29,2,11.85,11.85,0,0,0,4.17.81l7.68.36A11.32,11.32,0,0,1,426.62,196.81Zm-19.53,6.09a9.16,9.16,0,0,0-.84,4.17,7.29,7.29,0,0,0,.63,3.21,6.12,6.12,0,0,0,1.68,2.13,6.46,6.46,0,0,0,2.4,1.2,10.55,10.55,0,0,0,2.73.36,13.76,13.76,0,0,0,4.89-.87,15.42,15.42,0,0,0,4.08-2.25,10.74,10.74,0,0,0,2.79-3.18,7.45,7.45,0,0,0,1-3.72,5.12,5.12,0,0,0-.33-1.83,4,4,0,0,0-1.11-1.56,6.12,6.12,0,0,0-2.1-1.14,11.23,11.23,0,0,0-3.24-.51l-8.46-.3-1.68,1.32A9.26,9.26,0,0,0,407.09,202.9Zm8.7-15.72a5.38,5.38,0,0,0,3.54,1,5.29,5.29,0,0,0,3.45-1.2,9.84,9.84,0,0,0,2.43-3,14.44,14.44,0,0,0,1.41-3.84,18,18,0,0,0,.45-3.81q0-2.64-1.35-3.66a5.36,5.36,0,0,0-3.33-1,4.94,4.94,0,0,0-3.3,1.23,11.54,11.54,0,0,0-2.46,3,15.26,15.26,0,0,0-1.56,3.72,13.62,13.62,0,0,0-.54,3.54Q414.53,186.13,415.79,187.18Z"/><path d="M456.77,193.06a11,11,0,0,1-2,2.22,13.25,13.25,0,0,1-3.09,2,11.65,11.65,0,0,1-8.76,0,8.4,8.4,0,0,1-2.88-2.16,8.54,8.54,0,0,1-1.62-2.91,10.09,10.09,0,0,1-.51-3.09,14.88,14.88,0,0,1,1.47-6.21,23.64,23.64,0,0,1,3.84-5.88,21.72,21.72,0,0,1,5.37-4.41,12.07,12.07,0,0,1,6.12-1.74,10.9,10.9,0,0,1,2.4.27,7.93,7.93,0,0,1,2.16.81,4.74,4.74,0,0,1,1.56,1.38,3.42,3.42,0,0,1,.6,2,4.81,4.81,0,0,1-.87,2.85,7.82,7.82,0,0,1-2.25,2.1,15.76,15.76,0,0,1-3,1.47,23.85,23.85,0,0,1-3.21.93q-1.56.33-2.85.48a18.3,18.3,0,0,1-1.89.15q-1,0-2-.06a16.68,16.68,0,0,1-1.68-.18q-.66,1.92-1.11,3.81a17.18,17.18,0,0,0-.45,4,6.35,6.35,0,0,0,1.68,4.83,6,6,0,0,0,4.26,1.59,7.36,7.36,0,0,0,3.39-.75,11.53,11.53,0,0,0,2.58-1.77,13.47,13.47,0,0,0,1.86-2.07q.75-1,1.23-1.65l.72.42A16.19,16.19,0,0,0,456.77,193.06Zm.24-20.49a3,3,0,0,0-2.4-.84,6.59,6.59,0,0,0-3.57,1.08,13.93,13.93,0,0,0-3.09,2.67,20.23,20.23,0,0,0-2.4,3.42,21.51,21.51,0,0,0-1.56,3.39,17.93,17.93,0,0,0,3.06.24,12.46,12.46,0,0,0,4.08-.66,12.6,12.6,0,0,0,3.39-1.74,8.72,8.72,0,0,0,2.34-2.52,5.72,5.72,0,0,0,.87-3A3,3,0,0,0,457,172.57Z"/><path d="M466.19,172.51l.24-.84h9.48l-2.28,6.84h.12a27.63,27.63,0,0,1,1.83-2.28,18.51,18.51,0,0,1,2.49-2.34,16,16,0,0,1,2.94-1.83,7.15,7.15,0,0,1,3.12-.75,4.51,4.51,0,0,1,3.51,1.35,4.76,4.76,0,0,1,1.23,3.33,9.41,9.41,0,0,1-.3,2.28h.12a23.37,23.37,0,0,1,1.62-2.1,19.18,19.18,0,0,1,2.31-2.28,14.28,14.28,0,0,1,2.79-1.83,6.66,6.66,0,0,1,3-.75,5.67,5.67,0,0,1,4,1.35,4.34,4.34,0,0,1,1.47,3.33,6.32,6.32,0,0,1-.33,2q-.33,1-.81,2.37l-3.9,11.1q-.36,1-.66,2.16a8.11,8.11,0,0,0-.3,2,2.38,2.38,0,0,0,.3,1.11,1.29,1.29,0,0,0,1.26.57,3.49,3.49,0,0,0,2-.6,7.89,7.89,0,0,0,1.62-1.44,11.89,11.89,0,0,0,1.26-1.77q.54-.93.9-1.59l.66.3q-.3.6-.84,1.59a10.18,10.18,0,0,1-1.41,1.95,8.08,8.08,0,0,1-2.13,1.65,6.16,6.16,0,0,1-3,.69,5.92,5.92,0,0,1-3.24-.84,3,3,0,0,1-1.32-2.76A9.11,9.11,0,0,1,494,193a9.92,9.92,0,0,1,.6-1.92l5-14.34a7.9,7.9,0,0,0,.48-2.4,2.52,2.52,0,0,0-.48-1.62,2.3,2.3,0,0,0-1.86-.6,5.44,5.44,0,0,0-2.85,1,16.32,16.32,0,0,0-3.18,2.76,27.74,27.74,0,0,0-3,4,27.05,27.05,0,0,0-2.4,4.89l-4.5,12.54h-4.2l7-19.38a13.47,13.47,0,0,0,.84-3.48,3.2,3.2,0,0,0-.42-1.74,1.64,1.64,0,0,0-1.5-.66,6.18,6.18,0,0,0-2.67.81,14.3,14.3,0,0,0-3.27,2.4,23.3,23.3,0,0,0-3.27,4,25.17,25.17,0,0,0-2.73,5.55l-4.5,12.54H463l8.64-24.9Z"/><path d="M527.87,193.06a11,11,0,0,1-2,2.22,13.25,13.25,0,0,1-3.09,2,11.65,11.65,0,0,1-8.76,0,8.4,8.4,0,0,1-2.88-2.16,8.54,8.54,0,0,1-1.62-2.91,10.09,10.09,0,0,1-.51-3.09,14.88,14.88,0,0,1,1.47-6.21,23.64,23.64,0,0,1,3.84-5.88,21.72,21.72,0,0,1,5.37-4.41,12.07,12.07,0,0,1,6.12-1.74,10.9,10.9,0,0,1,2.4.27,7.93,7.93,0,0,1,2.16.81,4.74,4.74,0,0,1,1.56,1.38,3.42,3.42,0,0,1,.6,2,4.81,4.81,0,0,1-.87,2.85,7.82,7.82,0,0,1-2.25,2.1,15.76,15.76,0,0,1-3,1.47,23.85,23.85,0,0,1-3.21.93q-1.56.33-2.85.48a18.3,18.3,0,0,1-1.89.15q-1,0-2-.06a16.68,16.68,0,0,1-1.68-.18q-.66,1.92-1.11,3.81a17.18,17.18,0,0,0-.45,4,6.35,6.35,0,0,0,1.68,4.83,6,6,0,0,0,4.26,1.59,7.36,7.36,0,0,0,3.39-.75,11.53,11.53,0,0,0,2.58-1.77,13.47,13.47,0,0,0,1.86-2.07q.75-1,1.23-1.65l.72.42A16.19,16.19,0,0,0,527.87,193.06Zm.24-20.49a3,3,0,0,0-2.4-.84,6.59,6.59,0,0,0-3.57,1.08,13.93,13.93,0,0,0-3.09,2.67,20.23,20.23,0,0,0-2.4,3.42,21.51,21.51,0,0,0-1.56,3.39,17.93,17.93,0,0,0,3.06.24,12.46,12.46,0,0,0,4.08-.66,12.6,12.6,0,0,0,3.39-1.74,8.72,8.72,0,0,0,2.34-2.52,5.72,5.72,0,0,0,.87-3A3,3,0,0,0,528.11,172.57Z"/><path d="M537.47,172.51l.24-.84h9.48l-2.46,7.38h.12q5.82-7.74,11-7.74a5.67,5.67,0,0,1,4,1.35,4.34,4.34,0,0,1,1.47,3.33,6.32,6.32,0,0,1-.33,2q-.33,1-.81,2.37l-3.9,11.1q-.36,1-.66,2a6.7,6.7,0,0,0-.3,2,2.91,2.91,0,0,0,.3,1.32,1.27,1.27,0,0,0,1.26.6,3.49,3.49,0,0,0,2-.6,8.62,8.62,0,0,0,1.65-1.44,10.8,10.8,0,0,0,1.29-1.77q.54-.93.84-1.59l.66.3q-.3.6-.84,1.59a10.18,10.18,0,0,1-1.41,1.95,8.08,8.08,0,0,1-2.13,1.65,6.16,6.16,0,0,1-3,.69,5.92,5.92,0,0,1-3.24-.84,3,3,0,0,1-1.32-2.76,6.67,6.67,0,0,1,.21-1.62q.21-.84.51-1.8l5-14.34a7.9,7.9,0,0,0,.48-2.4,2.56,2.56,0,0,0-.51-1.5,2.09,2.09,0,0,0-1.83-.72,6.39,6.39,0,0,0-3.06,1,17.08,17.08,0,0,0-3.48,2.7,24.84,24.84,0,0,0-3.27,4,23,23,0,0,0-2.49,5l-4.5,12.54h-4.14l8.64-24.9Z"/><path d="M581.39,165.79l-2.16,5.88h6.54l-.24.84H579l-6.84,19.08q-.3.9-.6,1.86a6.41,6.41,0,0,0-.3,1.92,2.18,2.18,0,0,0,.45,1.44,1.81,1.81,0,0,0,1.47.54,3.54,3.54,0,0,0,2-.66,9.74,9.74,0,0,0,1.74-1.53,11.61,11.61,0,0,0,1.32-1.77,14.25,14.25,0,0,0,.78-1.44l.72.3q-.24.48-.78,1.47a10.31,10.31,0,0,1-1.44,2,8.25,8.25,0,0,1-2.25,1.71,6.73,6.73,0,0,1-3.21.72,4.72,4.72,0,0,1-3.42-1.11,3.59,3.59,0,0,1-1.14-2.67,9.8,9.8,0,0,1,.45-2.73q.45-1.53.93-2.79l5.88-16.32h-5.4l.24-.84H575l2.16-5.88Z"/><rect x="547.79" width="30.23" height="15.87" transform="translate(1125.81 15.87) rotate(-180)"/><rect x="487.34" y="26.75" width="60.46" height="15.87" transform="translate(1035.13 69.36) rotate(-180)"/><rect x="396.65" y="53.49" width="90.68" height="15.87" transform="translate(883.99 122.86) rotate(-180)"/><rect x="245.51" y="80.24" width="151.14" height="15.87" transform="translate(642.16 176.35) rotate(-180)"/><rect x="3.69" y="105.98" width="241.82" height="15.87" transform="translate(249.2 227.84) rotate(-180)"/></svg>