<svg id="Calque_1" data-name="Calque 1" xmlns="http://www.w3.org/2000/svg" viewBox="0 0 577.36 389.95"><defs><style>.cls-1,.cls-2{fill:none;}.cls-1{stroke:#999;stroke-linecap:round;stroke-dasharray:2 4;}.cls-1,.cls-2,.cls-4{stroke-miterlimit:10;}.cls-2{stroke:#000;stroke-width:3px;}.cls-3{font-size:26px;font-family:GTWalsheimLight, GT Walsheim;}.cls-4{fill:#1C1717;stroke:#1C1717;}</style></defs><title>stairs</title><line class="cls-1" x1="1.43" y1="243.41" x2="1.43" y2="267.59"/><line class="cls-1" x1="31.66" y1="243.41" x2="31.66" y2="294.34"/><line class="cls-1" x1="92.11" y1="243.41" x2="92.11" y2="321.08"/><line class="cls-1" x1="182.8" y1="243.41" x2="182.8" y2="347.83"/><line class="cls-1" x1="333.94" y1="243.41" x2="333.94" y2="373.58"/><line class="cls-1" x1="575.76" y1="243.41" x2="575.76" y2="373.58"/><rect class="cls-2" x="1.5" y="213.11" width="30.23" height="30.23"/><rect class="cls-2" x="31.73" y="182.88" width="60.46" height="60.46"/><rect class="cls-2" x="92.19" y="152.65" width="90.69" height="90.69"/><rect class="cls-2" x="182.88" y="92.19" width="151.15" height="151.15"/><rect class="cls-2" x="334.02" y="1.5" width="241.84" height="241.84"/><text class="cls-3" transform="translate(16.79 239.08)">1</text><text class="cls-3" transform="translate(72.07 239.08)">2</text><text class="cls-3" transform="translate(163 239.08)">3</text><text class="cls-3" transform="translate(314.24 239.08)">5</text><text class="cls-3" transform="translate(556.12 239.08)">8</text><rect class="cls-4" x="1.43" y="267.59" width="30.23" height="15.87"/><rect class="cls-4" x="31.66" y="294.34" width="60.46" height="15.87"/><rect class="cls-4" x="92.11" y="321.08" width="90.68" height="15.87"/><rect class="cls-4" x="182.8" y="347.83" width="151.14" height="15.87"/><rect class="cls-4" x="333.94" y="373.58" width="241.82" height="15.87"/></svg>