<?xml version="1.0" encoding="utf-8"?>
<!-- Generator: Adobe Illustrator 24.0.3, SVG Export Plug-In . SVG Version: 6.00 Build 0)  -->
<svg version="1.1" id="Calque_1" xmlns="http://www.w3.org/2000/svg" xmlns:xlink="http://www.w3.org/1999/xlink" x="0px" y="0px"
	 viewBox="0 0 16 20" style="enable-background:new 0 0 16 20;" xml:space="preserve">
	 <style>
	 .st0{fill:white;}
	 </style>
<path class="st0" d="M14.2,8.8h-0.7v-3c0-3-2.5-5.5-5.5-5.5S2.5,2.7,2.5,5.8v3H1.8c-1,0-1.8,0.8-1.8,1.8v7.4c0,1,0.8,1.8,1.8,1.8h12.4
	c1,0,1.8-0.8,1.8-1.8v-7.4C16,9.6,15.2,8.8,14.2,8.8z M5.5,5.8c0-1.4,1.1-2.5,2.5-2.5s2.5,1.1,2.5,2.5v3h-5V5.8z"/>
</svg>
