<svg width="180.27mm" height="69.706mm" version="1.1" viewBox="0 0 180.27 69.706" xmlns="http://www.w3.org/2000/svg">
 <defs>
  <clipPath id="clipPath1232">
   <path d="m-66.366 138.98h531.6v-295.12h-531.6z"/>
  </clipPath>
  <clipPath id="clipPath1238">
   <path d="m-189.42 139.42h531.6v-295.12h-531.6z"/>
  </clipPath>
  <clipPath id="clipPath1244">
   <path d="m-224.08 80.931h531.6v-295.12h-531.6z"/>
  </clipPath>
  <clipPath id="clipPath1250">
   <path d="m-331.69 80.931h531.6v-295.12h-531.6z"/>
  </clipPath>
  <clipPath id="clipPath1256">
   <path d="m-498.56 146.93h531.6v-295.12h-531.6z"/>
  </clipPath>
  <clipPath id="clipPath1262">
   <path d="m-39.215 169.7h531.6v-295.12h-531.6z"/>
  </clipPath>
  <clipPath id="clipPath1268">
   <path d="m-145.06 238.9h531.6v-295.12h-531.6z"/>
  </clipPath>
  <clipPath id="clipPath1274">
   <path d="m-198.03 169.7h531.6v-295.12h-531.6z"/>
  </clipPath>
  <clipPath id="clipPath1280">
   <path d="m-275.18 172.9h531.6v-295.12h-531.6z"/>
  </clipPath>
  <clipPath id="clipPath1286">
   <path d="m-386.54 196.08h531.6v-295.12h-531.6z"/>
  </clipPath>
  <clipPath id="clipPath1292">
   <path d="m-493.26 238.9h531.6v-295.12h-531.6z"/>
  </clipPath>
 </defs>
 <g transform="translate(-1.6519 -2.272)" fill="#FFFFFF">
  <path transform="matrix(.35278 0 0 -.35278 21.82 36.729)" d="m0 0h20.085c8.057 0 14.79 6.512 14.79 15.009 0 7.947-6.291 14.899-14.79 14.899h-20.085zm0 37.414h16.665c6.07 0 11.256 5.297 11.256 11.697 0 6.291-4.744 11.699-11.256 11.699h-16.665zm16.665 31.342c10.263 0 19.645-8.829 19.645-19.645 0-5.297-2.428-10.374-5.96-13.795 7.504-3.863 12.47-11.256 12.912-20.307 0-12.471-10.153-22.955-23.177-22.955h-28.031v76.702z" clip-path="url(#clipPath1232)"/>
  <path transform="matrix(.35278 0 0 -.35278 65.232 36.884)" d="m0 0v-7.505h-46.352v76.702h7.946v-69.197z" clip-path="url(#clipPath1238)"/>
  <path transform="matrix(.35278 0 0 -.35278 77.458 16.249)" d="m0 0c0-17.437 13.905-31.785 31.343-31.785 17.327 0 31.232 14.348 31.232 31.785 0 17.328-13.905 31.675-31.232 31.675-17.438 0-31.343-14.347-31.343-31.675m70.963 0c0-21.299-17.547-39.178-39.62-39.73-20.969 0-39.731 17.658-39.731 39.73 0 20.97 17.659 39.621 39.731 39.621 20.969 0 39.62-17.548 39.62-39.621" clip-path="url(#clipPath1244)"/>
  <path transform="matrix(.35278 0 0 -.35278 115.42 16.249)" d="m0 0c0-17.437 13.905-31.785 31.345-31.785 17.325 0 31.23 14.348 31.23 31.785 0 17.328-13.905 31.675-31.23 31.675-17.44 0-31.345-14.347-31.345-31.675m70.965 0c0-21.299-17.549-39.178-39.62-39.73-20.971 0-39.733 17.658-39.733 39.73 0 20.97 17.659 39.621 39.733 39.621 20.968 0 39.62-17.548 39.62-39.621" clip-path="url(#clipPath1250)"/>
  <path transform="matrix(.35278 0 0 -.35278 174.29 39.532)" d="m0 0v58.823l-27.48-31.894-27.481 31.894v-58.823h-7.947v78.91l35.428-40.945 35.425 40.945v-78.91z" clip-path="url(#clipPath1256)"/>
  <path transform="matrix(.35278 0 0 -.35278 12.242 47.567)" d="m0 0v-69.198h-7.947v69.198h-22.072v7.504h52.09v-7.504z" clip-path="url(#clipPath1262)"/>
  <path transform="matrix(.35278 0 0 -.35278 49.58 71.978)" d="m0 0v34.654h-46.022v-34.654h-7.946v76.702h7.946v-34.544h46.022v34.544h7.945v-76.702z" clip-path="url(#clipPath1268)"/>
  <path transform="matrix(.35278 0 0 -.35278 68.269 47.567)" d="m0 0v-25.273h32.225v-7.505h-32.225v-28.915h39.842v-7.505h-47.788v76.702h47.455v-7.504z" clip-path="url(#clipPath1274)"/>
  <path transform="matrix(.35278 0 0 -.35278 95.485 48.695)" d="m0 0c0-17.437 13.905-31.785 31.344-31.785 17.326 0 31.231 14.348 31.231 31.785 0 17.328-13.905 31.675-31.231 31.675-17.439 0-31.344-14.347-31.344-31.675m70.965 0c0-21.299-17.549-39.178-39.621-39.729-20.97 0-39.732 17.657-39.732 39.729 0 20.97 17.659 39.621 39.732 39.621 20.969 0 39.621-17.547 39.621-39.621" clip-path="url(#clipPath1280)"/>
  <path transform="matrix(.35278 0 0 -.35278 134.77 56.872)" d="m0 0h18.982c9.932 0 15.451 5.076 15.451 13.243 0 8.829-6.18 13.133-15.451 13.133h-18.982zm18.982 33.881c14.126 0 23.287-8.278 23.287-20.638 0-9.711-6.401-17.217-15.23-19.534l18.542-36.53h-9.05l-17.658 35.316h-18.873v-35.316h-7.946v76.702z" clip-path="url(#clipPath1286)"/>
  <path transform="matrix(.35278 0 0 -.35278 172.42 71.978)" d="m0 0h-7.947v34.765l-26.928 41.937h9.49l21.411-33.991 21.411 33.991h9.492l-26.929-41.937z" clip-path="url(#clipPath1292)"/>
 </g>
</svg>
