<?xml version="1.0" encoding="UTF-8"?>
<svg width="577px" height="402px" viewBox="0 0 577 402" version="1.1" xmlns="http://www.w3.org/2000/svg" xmlns:xlink="http://www.w3.org/1999/xlink">
    <title>logo</title>
    <defs>
        <polygon id="path-1" points="0 0.885402717 0 175.47205 121.522741 175.47205 121.522741 0.885402717 2.49142551e-20 0.885402717"></polygon>
    </defs>
    <g id="logo" stroke="none" stroke-width="1" fill="none" fill-rule="evenodd">
        <g id="sources/logotypes/Logo" transform="translate(-22.000000, 0.500000)">
            <g id="Page-1" stroke-width="1" fill-rule="evenodd">
                <g id="Group-6" transform="translate(0.000000, 4.597693)"></g>
                <g id="Group-19" transform="translate(551.112458, 50.601720)"></g>
            </g>
            <g id="sources/logotypes/thumb-updown-rouge-vert" transform="translate(204.496183, 0.000000)" fill-rule="evenodd" stroke-width="1">
                <g id="Page-1">
                    <g id="Group-6" transform="translate(0.000000, 27.417508)">
                        <mask id="mask-2" fill="white">
                            <use xlink:href="#path-1"></use>
                        </mask>
                        <g id="Clip-5"></g>
                        <g id="sources/icons/thumb/red-copy" mask="url(#mask-2)" fill="#ED2C5C">
                            <path d="M72.9491238,175.472781 C69.7338539,175.472781 66.6307232,174.913464 63.9596042,173.485925 C55.3304008,168.865161 46.4052234,152.356166 46.4052234,132.732542 C46.4052234,125.362716 47.3685176,118.460815 48.5468983,112.776252 L33.2169181,112.776252 C22.0085131,112.776252 12.645809,107.879485 6.84949915,98.9870733 C2.30326565,92.0120594 -0.000183834755,82.8637509 -0.000183834755,71.7998726 C-0.000183834755,43.567151 16.6773052,0.885402717 41.8148696,0.885402717 L81.8117973,0.885402717 C87.8287088,0.885402717 92.7058449,5.73647376 92.7058449,11.718974 C92.7058449,17.7014741 87.8287088,22.5507174 81.8117973,22.5507174 L41.8148696,22.5507174 C36.093932,22.9254233 20.9919069,48.6375621 21.8191633,73.5746993 C22.3964044,91.1109373 30.2553402,91.1109373 33.2169181,91.1109373 L62.8896859,91.1109373 C66.4946855,91.1109373 69.8643766,92.8839361 71.8957506,95.8468548 C73.923448,98.8097734 74.3481062,102.580595 73.024496,105.914564 C72.9877291,106.013267 68.1933186,118.462643 68.1933186,132.732542 C68.1933186,142.425545 71.4012351,149.744192 73.590707,153.098267 C73.9326397,145.595009 75.0209414,134.567687 78.1828992,123.039539 C84.4351193,100.242795 104.250668,88.4039153 105.092631,87.9104002 C110.282286,84.8688847 116.953649,86.5870485 120.010821,91.7378843 C123.056963,96.8740974 121.354653,103.489028 116.212795,106.541511 C115.876377,106.748056 103.052065,114.715584 99.2044035,128.740553 C94.5533842,145.701023 95.2685014,161.551998 95.2758548,161.71102 C95.5074866,166.468871 92.5863523,170.822772 88.0768858,172.433093 C83.6611749,174.008686 78.1590007,175.472781 72.9491238,175.472781" id="Fill-4"></path>
                        </g>
                    </g>
                    <g id="Group-6-Copy" transform="translate(157.178716, 87.736025) rotate(180.000000) translate(-157.178716, -87.736025) translate(95.594073, 0.000000)" fill="#33DC88">
                        <g id="sources/icons/thumb/green">
                            <path d="M72.9491238,175.472781 C69.7338539,175.472781 66.6307232,174.913464 63.9596042,173.485925 C55.3304008,168.865161 46.4052234,152.356166 46.4052234,132.732542 C46.4052234,125.362716 47.3685176,118.460815 48.5468983,112.776252 L33.2169181,112.776252 C22.0085131,112.776252 12.645809,107.879485 6.84949915,98.9870733 C2.30326565,92.0120594 -0.000183834755,82.8637509 -0.000183834755,71.7998726 C-0.000183834755,43.567151 16.6773052,0.885402717 41.8148696,0.885402717 L81.8117973,0.885402717 C87.8287088,0.885402717 92.7058449,5.73647376 92.7058449,11.718974 C92.7058449,17.7014741 87.8287088,22.5507174 81.8117973,22.5507174 L41.8148696,22.5507174 C36.093932,22.9254233 20.9919069,48.6375621 21.8191633,73.5746993 C22.3964044,91.1109373 30.2553402,91.1109373 33.2169181,91.1109373 L62.8896859,91.1109373 C66.4946855,91.1109373 69.8643766,92.8839361 71.8957506,95.8468548 C73.923448,98.8097734 74.3481062,102.580595 73.024496,105.914564 C72.9877291,106.013267 68.1933186,118.462643 68.1933186,132.732542 C68.1933186,142.425545 71.4012351,149.744192 73.590707,153.098267 C73.9326397,145.595009 75.0209414,134.567687 78.1828992,123.039539 C84.4351193,100.242795 104.250668,88.4039153 105.092631,87.9104002 C110.282286,84.8688847 116.953649,86.5870485 120.010821,91.7378843 C123.056963,96.8740974 121.354653,103.489028 116.212795,106.541511 C115.876377,106.748056 103.052065,114.715584 99.2044035,128.740553 C94.5533842,145.701023 95.2685014,161.551998 95.2758548,161.71102 C95.5074866,166.468871 92.5863523,170.822772 88.0768858,172.433093 C83.6611749,174.008686 78.1590007,175.472781 72.9491238,175.472781" id="Fill-4"></path>
                        </g>
                    </g>
                </g>
            </g>
            <path d="M167.972214,309.456522 L167.972214,282.51 L192.131298,243.280435 L176.34229,243.280435 L160.93374,270.322174 L145.525191,243.280435 L129.736183,243.280435 L153.895267,282.51 L153.895267,309.456522 L167.972214,309.456522 Z M219.524275,310.694348 C226.087176,310.694348 231.318473,308.218696 234.932824,303.933913 L234.932824,309.456522 L247.963511,309.456522 L247.963511,259.276957 L234.932824,259.276957 L234.932824,265.37087 C231.318473,261.276522 226.087176,258.991304 219.524275,258.991304 C205.06687,258.991304 194.604275,269.37 194.604275,284.414348 C194.604275,299.363478 205.06687,310.694348 219.524275,310.694348 Z M221.521679,298.22087 C214.007634,298.22087 208.586107,292.412609 208.586107,284.414348 C208.586107,276.416087 214.007634,270.512609 221.521679,270.512609 C229.225954,270.512609 234.457252,276.225652 234.457252,284.414348 C234.457252,292.603043 229.225954,298.22087 221.521679,298.22087 Z M280.682901,310.694348 C287.150687,310.694348 292.381985,308.313913 296.09145,304.314783 L296.09145,309.456522 L309.122137,309.456522 L309.122137,239.852609 L295.045191,239.852609 L295.045191,263.656957 C291.335725,260.133913 286.294656,258.134348 280.302443,258.134348 C265.940153,258.134348 255.762901,269.37 255.762901,284.414348 C255.762901,299.363478 266.225496,310.694348 280.682901,310.694348 Z M282.680305,298.22087 C275.16626,298.22087 269.744733,292.412609 269.744733,284.414348 C269.744733,276.416087 275.16626,270.512609 282.680305,270.512609 C290.38458,270.512609 295.615878,276.225652 295.615878,284.414348 C295.615878,292.603043 290.38458,298.22087 282.680305,298.22087 Z M333.851908,255.087391 L357.250076,241.566522 L350.877405,231.283043 L328.240153,246.041739 L333.851908,255.087391 Z M343.458473,310.694348 C355.728244,310.694348 362.196031,305.647826 366.095725,299.934783 L355.347786,292.793478 C353.160153,296.792609 350.021374,298.982609 343.838931,298.982609 C337.180916,298.982609 332.044733,295.26913 330.427786,288.69913 L367.998015,288.69913 C368.188244,287.461304 368.283359,285.556957 368.283359,283.366957 C368.283359,270.798261 358.676794,258.134348 342.507328,258.134348 C328.145038,258.134348 316.636183,269.846087 316.636183,284.414348 C316.636183,299.363478 327.193893,310.694348 343.458473,310.694348 Z M355.062443,279.463043 L330.237557,279.463043 C331.664275,272.607391 336.42,268.798696 342.887786,268.798696 C349.355573,268.798696 353.73084,272.893043 355.062443,279.463043 Z M404.141527,310.694348 C418.598931,310.694348 429.061527,299.363478 429.061527,284.414348 C429.061527,269.37 418.979389,258.134348 404.521985,258.134348 C398.529771,258.134348 393.488702,260.133913 389.779237,263.656957 L389.779237,239.852609 L375.70229,239.852609 L375.70229,309.456522 L388.732977,309.456522 L388.732977,304.219565 C392.442443,308.313913 397.67374,310.694348 404.141527,310.694348 Z M402.239237,298.22087 C394.439847,298.22087 389.20855,292.603043 389.20855,284.414348 C389.20855,276.225652 394.439847,270.512609 402.239237,270.512609 C409.658168,270.512609 415.079695,276.416087 415.079695,284.414348 C415.079695,292.412609 409.658168,298.22087 402.239237,298.22087 Z M459.498168,310.694348 C466.061069,310.694348 471.292366,308.218696 474.906718,303.933913 L474.906718,309.456522 L487.937405,309.456522 L487.937405,259.276957 L474.906718,259.276957 L474.906718,265.37087 C471.292366,261.276522 466.061069,258.991304 459.498168,258.991304 C445.040763,258.991304 434.578168,269.37 434.578168,284.414348 C434.578168,299.363478 445.040763,310.694348 459.498168,310.694348 Z M461.495573,298.22087 C453.981527,298.22087 448.56,292.412609 448.56,284.414348 C448.56,276.416087 453.981527,270.512609 461.495573,270.512609 C469.199847,270.512609 474.431145,276.225652 474.431145,284.414348 C474.431145,292.603043 469.199847,298.22087 461.495573,298.22087 Z" id="Yadéba" fill="#4A4A4A" fill-rule="nonzero"></path>
            <path d="M54.5097134,399.913043 L54.7883692,388.782651 L53.4786871,388.782651 C52.6427198,391.776792 51.7185115,393.961957 50.7060621,395.338145 C49.6936128,396.714334 48.6254324,397.606997 47.5015208,398.016135 C46.3776091,398.425272 44.6545876,398.62984 42.3324562,398.62984 L42.3324562,398.62984 L39.4623017,398.62984 C37.2887867,398.62984 35.8722865,398.43922 35.2128012,398.057978 C34.5533158,397.676737 34.149265,397.142069 34.0006486,396.453974 C33.8520321,395.76588 33.7777239,394.054942 33.7777239,391.321162 L33.7777239,391.321162 L33.7777239,371.5152 C33.7777239,368.372283 33.8752535,366.382388 34.0703125,365.545516 C34.2653715,364.708645 34.6508454,364.136782 35.226734,363.82993 C35.8026226,363.523077 37.0194194,363.36965 38.8771246,363.36965 L38.8771246,363.36965 L40.5490592,363.36965 L40.5490592,362.086447 L22.4085684,362.086447 L22.4085684,363.36965 L23.2445357,363.36965 C25.157972,363.36965 26.3979902,363.537024 26.9645903,363.871773 C27.5311904,364.206522 27.9027314,364.810929 28.0792134,365.684995 C28.2556954,366.559061 28.3439364,368.502463 28.3439364,371.5152 L28.3406682,391.07716 C28.3232379,393.660556 28.2360863,395.336596 28.0792134,396.105278 C27.9027314,396.970045 27.5033248,397.606997 26.8809936,398.016135 C26.2586623,398.425272 25.139395,398.62984 23.5231915,398.62984 L23.5231915,398.62984 L22.4085684,398.62984 L22.4085684,399.913043 L54.5097134,399.913043 Z M76.7464441,400.498854 C79.7001953,400.498854 81.2606676,398.908798 81.4278611,395.728685 L81.4278611,395.728685 L80.3968347,395.728685 C80.0996019,397.551206 79.3379428,398.462466 78.1118574,398.462466 C77.3687753,398.462466 76.885772,398.155613 76.6628474,397.541907 C76.4399228,396.928201 76.3284605,395.542714 76.3284605,393.385445 L76.3284605,393.385445 L76.3284605,384.151962 C76.3284605,382.199261 76.1194686,380.748684 75.701485,379.800229 C75.2835013,378.851775 74.4243127,378.005605 73.1239191,377.261719 C71.8235255,376.517833 69.9936859,376.14589 67.6344003,376.14589 C64.4577245,376.14589 62.117016,376.754947 60.6122749,377.97306 C59.1075337,379.191173 58.3551631,380.330248 58.3551631,381.390285 C58.3551631,382.46892 58.9217632,383.008237 60.0549633,383.008237 C61.3182028,383.008237 62.098439,382.059783 62.3956718,380.162874 C62.7114817,378.303159 64.2626655,377.373302 67.0492232,377.373302 C68.4425021,377.373302 69.5664137,377.652259 70.4209581,378.210173 C71.2755024,378.768088 71.8049484,379.400391 72.009296,380.107082 C72.2136435,380.813774 72.3158173,381.957498 72.3158173,383.538256 L72.3158173,383.538256 L72.3158173,384.654085 L67.9966529,386.411515 C64.7085147,387.769107 62.1309488,389.163893 60.2639552,390.595873 C58.3969615,392.027853 57.4634646,393.701596 57.4634646,395.617103 C57.4634646,397.086277 58.0207762,398.267196 59.1353993,399.159859 C60.2500224,400.052522 61.5782815,400.498854 63.1201768,400.498854 C64.3276852,400.498854 65.6977427,400.164105 67.2303495,399.494608 C68.7629562,398.82511 70.4581122,397.830163 72.3158173,396.509766 C72.5387419,397.830163 73.017101,398.82511 73.7508946,399.494608 C74.4846881,400.164105 75.4832046,400.498854 76.7464441,400.498854 Z M65.4051542,398.462466 C64.4205704,398.462466 63.6217572,398.104471 63.0087145,397.388481 C62.3956718,396.672491 62.0891505,395.728685 62.0891505,394.557065 C62.0891505,391.600119 64.4855901,389.145296 69.2784694,387.192595 L69.2784694,387.192595 L72.3158173,385.965183 L72.3158173,395.003397 C70.8853844,396.15642 69.5942793,397.021187 68.4425021,397.597699 C67.2907249,398.17421 66.2782756,398.462466 65.4051542,398.462466 Z M108.875455,399.913043 L108.875455,398.62984 C107.51933,398.62984 106.595122,398.490362 106.10283,398.211405 C105.610538,397.932447 105.313305,397.509362 105.211131,396.942149 C105.108958,396.374936 105.057871,394.752335 105.057871,392.074346 L105.057871,392.074346 L105.057871,378.349652 L112.832367,378.349652 C114.374262,378.349652 115.391356,378.470533 115.883647,378.712296 C116.375939,378.954059 116.696393,379.358547 116.84501,379.92576 C116.993626,380.492973 117.067934,381.771527 117.067934,383.761422 L117.067934,383.761422 L117.067934,392.074346 C117.067934,394.882515 117.002915,396.551609 116.872875,397.081628 C116.742836,397.611647 116.427026,398.002187 115.925446,398.253248 C115.423865,398.50431 114.504301,398.62984 113.166754,398.62984 L113.166754,398.62984 L113.166754,399.913043 L124.814565,399.913043 L124.814565,398.62984 C123.495594,398.62984 122.589963,398.485712 122.097671,398.197457 C121.605379,397.909201 121.312791,397.476817 121.219905,396.900306 C121.12702,396.323794 121.080578,394.715141 121.080578,392.074346 L121.080578,392.074346 L121.080578,376.14589 L120.411804,376.14589 C118.721292,376.759596 115.9626,377.066449 112.135727,377.066449 L112.135727,377.066449 L105.057871,377.066449 L105.057871,375.16954 C105.057871,372.472953 105.183266,370.264542 105.434056,368.544306 C105.684846,366.82407 106.413995,365.433933 107.621504,364.373896 C108.829012,363.313859 110.278022,362.78384 111.968534,362.78384 C113.807662,362.78384 115.238095,363.583517 116.259833,365.182872 C117.151531,366.614852 118.061807,367.330842 118.990659,367.330842 C119.473663,367.330842 119.882358,367.154169 120.216745,366.800824 C120.551132,366.447478 120.718325,366.019744 120.718325,365.517621 C120.718325,364.513375 120.003109,363.602114 118.572676,362.78384 C117.142243,361.965566 115.228806,361.556428 112.832367,361.556428 C110.398773,361.556428 108.220614,362.105044 106.297889,363.202276 C104.375164,364.299507 103.023684,365.777981 102.243447,367.637695 C101.463211,369.49741 101.073093,371.915039 101.073093,374.890583 L101.073093,374.890583 L101.073093,377.066449 L96.5867352,377.066449 L96.5867352,378.349652 L101.073093,378.349652 L101.070685,392.96236 C101.057842,395.218814 100.993625,396.582604 100.878034,397.053732 C100.747995,397.583751 100.436829,397.97894 99.9445372,398.2393 C99.4522453,398.49966 98.5651911,398.62984 97.2833746,398.62984 L97.2833746,398.62984 L97.2833746,399.913043 L108.875455,399.913043 Z M138.524429,399.913043 L138.524429,398.62984 C137.186881,398.62984 136.271961,398.485712 135.77967,398.197457 C135.287378,397.909201 134.990145,397.476817 134.887971,396.900306 C134.785797,396.323794 134.73471,394.715141 134.73471,392.074346 L134.73471,382.757176 C135.830757,381.139224 136.996466,379.92576 138.23184,379.116784 C139.467214,378.307808 140.762964,377.90332 142.119088,377.90332 C143.30802,377.90332 144.287959,378.200875 145.058907,378.795983 C145.829854,379.391092 146.303569,380.074537 146.480051,380.846319 C146.656533,381.6181 146.744774,382.905953 146.744774,384.709876 L146.744774,384.709876 L146.743742,392.886077 C146.738238,394.95059 146.710716,396.214278 146.661178,396.67714 C146.605446,397.19786 146.373233,397.65349 145.964538,398.04403 C145.555843,398.43457 144.682722,398.62984 143.345174,398.62984 L143.345174,398.62984 L142.815728,398.62984 L142.815728,399.913043 L154.491405,399.913043 L154.491405,398.62984 C153.172434,398.62984 152.266803,398.485712 151.774511,398.197457 C151.282219,397.909201 150.989631,397.476817 150.896745,396.900306 C150.80386,396.323794 150.757417,394.715141 150.757417,392.074346 L150.757417,384.933042 C150.757417,382.812967 150.590224,381.199665 150.255837,380.093134 C149.92145,378.986604 149.173724,378.052097 148.012658,377.289614 C146.851592,376.527131 145.360784,376.14589 143.540233,376.14589 C141.942606,376.14589 140.41,376.53643 138.942413,377.31751 C137.474826,378.09859 136.072258,379.279509 134.73471,380.860267 C134.678979,378.870372 134.437478,377.298913 134.010205,376.14589 L134.010205,376.14589 L133.257835,376.14589 C131.121474,376.778193 129.031556,377.205927 126.98808,377.429093 L126.98808,377.429093 L126.98808,378.712296 C128.325628,378.712296 129.240547,378.856424 129.732839,379.14468 C130.225131,379.432936 130.522364,379.86067 130.624538,380.427883 C130.726712,380.995096 130.777798,382.608398 130.777798,385.26779 L130.777798,385.26779 L130.777798,392.074346 C130.777798,394.863918 130.717423,396.523713 130.596672,397.053732 C130.475921,397.583751 130.164756,397.97894 129.663175,398.2393 C129.161595,398.49966 128.269897,398.62984 126.98808,398.62984 L126.98808,398.62984 L126.98808,399.913043 L138.524429,399.913043 Z M191.998472,400.833602 C194.097679,400.405868 196.494118,400.164105 199.187791,400.108314 L199.187791,400.108314 L199.187791,398.82511 C197.850243,398.82511 196.935323,398.685632 196.443031,398.406675 C195.95074,398.127717 195.658151,397.699983 195.565266,397.123471 C195.47238,396.54696 195.425938,394.929008 195.425938,392.269616 L195.425938,392.269616 L195.425938,361.556428 L194.840761,361.556428 C192.165665,362.281717 189.704206,362.672257 187.456383,362.728049 L187.456383,362.728049 L187.456383,364.011252 L188.04156,364.011252 C189.230491,364.011252 190.05717,364.178626 190.521596,364.513375 C190.986022,364.848123 191.250745,365.331649 191.315765,365.963952 C191.380785,366.596255 191.413295,368.13052 191.413295,370.566746 L191.413295,370.566746 L191.413295,379.493376 C190.187209,378.377548 188.886816,377.540676 187.512114,376.982762 C186.137412,376.424847 184.679113,376.14589 183.137218,376.14589 C180.109159,376.14589 177.499083,377.294264 175.306991,379.591011 C173.114899,381.887759 172.018853,384.895847 172.018853,388.615277 C172.018853,391.999958 173.091678,394.882515 175.237327,397.26295 C177.382977,399.643385 179.932677,400.833602 182.886428,400.833602 C184.4469,400.833602 185.956286,400.489555 187.414584,399.801461 C188.872883,399.113366 190.289383,398.081225 191.664085,396.705036 C191.664085,398.583347 191.775547,399.959536 191.998472,400.833602 Z M184.140379,399.159859 C182.022595,399.159859 180.243842,398.276495 178.804121,396.509766 C177.364399,394.743037 176.644539,391.999958 176.644539,388.280528 C176.644539,384.61689 177.345822,381.976095 178.74839,380.358144 C180.150957,378.740192 181.901844,377.931216 184.001051,377.931216 C185.245714,377.931216 186.485732,378.196225 187.721106,378.726244 C188.95648,379.256263 190.187209,380.051291 191.413295,381.111328 L191.413295,381.111328 L191.413295,395.142875 C190.391557,396.48187 189.276934,397.486116 188.069425,398.155613 C186.861917,398.82511 185.552235,399.159859 184.140379,399.159859 Z M213.204176,400.833602 C215.284806,400.833602 217.207531,400.298934 218.972351,399.229598 C220.737171,398.160262 221.916813,396.67714 222.511279,394.780231 L222.511279,394.780231 L221.173731,394.780231 C219.761875,397.811566 217.365436,399.327233 213.984412,399.327233 C211.495087,399.327233 209.623449,398.318338 208.369498,396.300548 C207.115547,394.282757 206.488572,391.26537 206.488572,387.248387 C206.488572,386.709069 206.525726,385.890795 206.600034,384.793563 L206.600034,384.793563 L222.511279,384.793563 C222.418394,382.673488 221.554561,380.702191 219.91978,378.879671 C218.285,377.05715 215.972157,376.14589 212.981251,376.14589 C209.804576,376.14589 207.157346,377.340757 205.039562,379.73049 C202.921778,382.120223 201.862886,385.119013 201.862886,388.72686 C201.862886,391.274669 202.410909,393.441236 203.506955,395.226563 C204.603001,397.011889 206.010213,398.392727 207.72859,399.369077 C209.446967,400.345427 211.272163,400.833602 213.204176,400.833602 Z M217.634803,383.677734 L206.711497,383.677734 C207.361693,379.474779 209.377303,377.373302 212.758327,377.373302 C214.151606,377.373302 215.326604,377.824282 216.283322,378.726244 C217.240041,379.628206 217.7184,380.897461 217.7184,382.53401 C217.7184,382.868758 217.690534,383.25 217.634803,383.677734 L217.634803,383.677734 Z M234.911461,400.833602 C236.899205,400.833602 238.547919,400.210598 239.857601,398.964589 C241.167283,397.71858 241.822124,396.100628 241.822124,394.110734 C241.822124,392.846128 241.46916,391.52573 240.763232,390.149541 C240.057304,388.79195 238.125291,387.397164 234.967192,385.965183 C232.867985,385.016729 231.446841,384.170559 230.703759,383.426673 C229.9421,382.701384 229.56127,381.836617 229.56127,380.832371 C229.56127,379.921111 229.904945,379.121433 230.592296,378.433339 C231.279647,377.745245 232.180634,377.401197 233.295257,377.401197 C234.744267,377.401197 236.002863,378.010254 237.071043,379.228367 C238.139224,380.44648 238.859084,381.901707 239.230625,383.594047 L239.230625,383.594047 L240.261652,383.594047 L240.261652,376.53643 L239.230625,376.53643 C238.784776,377.615065 238.422524,378.29386 238.143868,378.572818 C236.843474,376.954866 235.199405,376.14589 233.211661,376.14589 C231.26107,376.14589 229.74704,376.829335 228.669572,378.196225 C227.592103,379.563116 227.053368,380.999745 227.053368,382.506114 C227.053368,384.086872 227.554948,385.416568 228.558109,386.495202 C229.56127,387.592434 231.214628,388.708263 233.518182,389.842689 C235.710274,390.921323 237.18715,391.841882 237.948809,392.604365 C238.691891,393.366848 239.063432,394.343198 239.063432,395.533415 C239.063432,396.556258 238.715112,397.495414 238.018473,398.350883 C237.321833,399.206352 236.267586,399.634086 234.85573,399.634086 C231.604746,399.634086 229.347634,397.467519 228.084394,393.134383 L228.084394,393.134383 L226.997637,393.134383 L226.997637,400.638332 L228.084394,400.638332 C228.400204,399.596892 228.808899,398.797215 229.31048,398.2393 C230.94526,399.968835 232.812254,400.833602 234.911461,400.833602 Z M279.997965,400.833602 C282.097172,400.405868 284.493611,400.164105 287.187284,400.108314 L287.187284,400.108314 L287.187284,398.82511 C285.849736,398.82511 284.934816,398.685632 284.442524,398.406675 C283.950233,398.127717 283.657644,397.699983 283.564759,397.123471 C283.471874,396.54696 283.425431,394.929008 283.425431,392.269616 L283.425431,392.269616 L283.425431,361.556428 L282.840254,361.556428 C280.165158,362.281717 277.703699,362.672257 275.455876,362.728049 L275.455876,362.728049 L275.455876,364.011252 L276.041053,364.011252 C277.229984,364.011252 278.056663,364.178626 278.521089,364.513375 C278.985516,364.848123 279.250239,365.331649 279.315258,365.963952 C279.380278,366.596255 279.412788,368.13052 279.412788,370.566746 L279.412788,379.493376 C278.186702,378.377548 276.886309,377.540676 275.511607,376.982762 C274.136905,376.424847 272.678607,376.14589 271.136711,376.14589 C268.108652,376.14589 265.498576,377.294264 263.306484,379.591011 C261.114392,381.887759 260.018346,384.895847 260.018346,388.615277 C260.018346,391.999958 261.091171,394.882515 263.23682,397.26295 C265.38247,399.643385 267.93217,400.833602 270.885921,400.833602 C272.446393,400.833602 273.955779,400.489555 275.414077,399.801461 C276.872376,399.113366 278.288876,398.081225 279.663578,396.705036 C279.663578,398.583347 279.77504,399.959536 279.997965,400.833602 Z M272.139872,399.159859 C270.022088,399.159859 268.243336,398.276495 266.803614,396.509766 C265.363893,394.743037 264.644032,391.999958 264.644032,388.280528 C264.644032,384.61689 265.345315,381.976095 266.747883,380.358144 C268.15045,378.740192 269.901337,377.931216 272.000544,377.931216 C273.245207,377.931216 274.485225,378.196225 275.720599,378.726244 C276.955973,379.256263 278.186702,380.051291 279.412788,381.111328 L279.412788,381.111328 L279.412788,395.142875 C278.39105,396.48187 277.276427,397.486116 276.068918,398.155613 C274.86141,398.82511 273.551728,399.159859 272.139872,399.159859 Z M297.35822,371.961532 L301.593787,368.446671 C303.730148,366.661345 304.998032,365.536218 305.397439,365.071289 C305.796845,364.60636 305.996548,364.122835 305.996548,363.620712 C305.996548,363.248769 305.847932,362.900072 305.550699,362.574622 C305.253466,362.249172 304.835483,362.086447 304.296748,362.086447 C303.683706,362.086447 303.131038,362.314262 302.638746,362.769892 C302.146455,363.225522 301.473036,364.122835 300.618492,365.461829 L300.618492,365.461829 L296.438655,371.961532 L297.35822,371.961532 Z M301.203669,400.833602 C303.284299,400.833602 305.207024,400.298934 306.971844,399.229598 C308.736664,398.160262 309.916306,396.67714 310.510772,394.780231 L310.510772,394.780231 L309.173224,394.780231 C307.761368,397.811566 305.364929,399.327233 301.983905,399.327233 C299.49458,399.327233 297.622943,398.318338 296.368992,396.300548 C295.115041,394.282757 294.488065,391.26537 294.488065,387.248387 C294.488065,386.709069 294.525219,385.890795 294.599527,384.793563 L294.599527,384.793563 L310.510772,384.793563 C310.417887,382.673488 309.554054,380.702191 307.919273,378.879671 C306.284493,377.05715 303.97165,376.14589 300.980745,376.14589 C297.804069,376.14589 295.156839,377.340757 293.039055,379.73049 C290.921271,382.120223 289.862379,385.119013 289.862379,388.72686 C289.862379,391.274669 290.410402,393.441236 291.506448,395.226563 C292.602494,397.011889 294.009706,398.392727 295.728083,399.369077 C297.446461,400.345427 299.271656,400.833602 301.203669,400.833602 Z M305.634296,383.677734 L294.71099,383.677734 C295.361186,379.474779 297.376797,377.373302 300.75782,377.373302 C302.151099,377.373302 303.326097,377.824282 304.282815,378.726244 C305.239534,379.628206 305.717893,380.897461 305.717893,382.53401 C305.717893,382.868758 305.690027,383.25 305.634296,383.677734 L305.634296,383.677734 Z M318.173806,400.833602 C318.916888,399.234248 319.892183,397.830163 321.099691,396.621349 C321.954236,398.016135 323.017772,399.066873 324.2903,399.773565 C325.562828,400.480256 327.044348,400.833602 328.73486,400.833602 C332.171614,400.833602 334.96746,399.643385 337.122398,397.26295 C339.277336,394.882515 340.354805,391.906972 340.354805,388.33632 C340.354805,384.784265 339.305202,381.864513 337.205995,379.577064 C335.106788,377.289614 332.413116,376.14589 329.124978,376.14589 C327.750276,376.14589 326.394151,376.434146 325.056603,377.010657 C323.719056,377.587169 322.400085,378.461235 321.099691,379.632855 L321.099691,379.632855 L321.099691,361.556428 L320.514514,361.556428 C319.957203,361.816788 318.907599,362.077148 317.365704,362.337508 C315.823809,362.597869 314.504838,362.728049 313.408792,362.728049 L313.408792,362.728049 L313.408792,364.011252 C314.634877,364.011252 315.494066,364.169327 315.986358,364.485479 C316.47865,364.80163 316.785171,365.285156 316.905922,365.936056 C317.026673,366.586957 317.087048,368.028235 317.087048,370.259893 L317.087048,400.833602 L318.173806,400.833602 Z M327.871027,399.522503 C326.310554,399.522503 324.945141,399.057575 323.774787,398.127717 C322.604433,397.19786 321.865995,396.226159 321.559473,395.212615 C321.252952,394.19907 321.099691,392.539275 321.099691,390.233229 L321.099691,390.233229 L321.099691,381.278702 C322.288623,380.051291 323.491487,379.135381 324.708284,378.530974 C325.925081,377.926567 327.165099,377.624363 328.428338,377.624363 C330.639007,377.624363 332.408471,378.512377 333.736731,380.288404 C335.06499,382.064432 335.729119,384.654085 335.729119,388.057362 C335.729119,391.758195 335.018547,394.59426 333.597403,396.565557 C332.176258,398.536855 330.267466,399.522503 327.871027,399.522503 Z M363.901218,400.498854 C366.854969,400.498854 368.415442,398.908798 368.582635,395.728685 L368.582635,395.728685 L367.551609,395.728685 C367.254376,397.551206 366.492717,398.462466 365.266631,398.462466 C364.523549,398.462466 364.040546,398.155613 363.817621,397.541907 C363.594697,396.928201 363.483234,395.542714 363.483234,393.385445 L363.483234,393.385445 L363.483234,384.151962 C363.483234,382.199261 363.274243,380.748684 362.856259,379.800229 C362.438275,378.851775 361.579087,378.005605 360.278693,377.261719 C358.978299,376.517833 357.14846,376.14589 354.789174,376.14589 C351.612499,376.14589 349.27179,376.754947 347.767049,377.97306 C346.262308,379.191173 345.509937,380.330248 345.509937,381.390285 C345.509937,382.46892 346.076537,383.008237 347.209737,383.008237 C348.472977,383.008237 349.253213,382.059783 349.550446,380.162874 C349.866256,378.303159 351.417439,377.373302 354.203997,377.373302 C355.597276,377.373302 356.721188,377.652259 357.575732,378.210173 C358.430276,378.768088 358.959722,379.400391 359.16407,380.107082 C359.368418,380.813774 359.470591,381.957498 359.470591,383.538256 L359.470591,383.538256 L359.470591,384.654085 L355.151427,386.411515 C351.863289,387.769107 349.285723,389.163893 347.418729,390.595873 C345.551735,392.027853 344.618239,393.701596 344.618239,395.617103 C344.618239,397.086277 345.17555,398.267196 346.290173,399.159859 C347.404796,400.052522 348.733056,400.498854 350.274951,400.498854 C351.482459,400.498854 352.852517,400.164105 354.385123,399.494608 C355.91773,398.82511 357.612886,397.830163 359.470591,396.509766 C359.693516,397.830163 360.171875,398.82511 360.905669,399.494608 C361.639462,400.164105 362.637979,400.498854 363.901218,400.498854 Z M352.559928,398.462466 C351.575344,398.462466 350.776531,398.104471 350.163488,397.388481 C349.550446,396.672491 349.243924,395.728685 349.243924,394.557065 C349.243924,391.600119 351.640364,389.145296 356.433243,387.192595 L356.433243,387.192595 L359.470591,385.965183 L359.470591,395.003397 C358.040158,396.15642 356.749053,397.021187 355.597276,397.597699 C354.445499,398.17421 353.43305,398.462466 352.559928,398.462466 Z M379.756732,400.833602 C380.908509,400.833602 382.046353,400.5221 383.170265,399.899096 C384.294176,399.276091 385.144077,398.350883 385.719965,397.123471 L385.719965,397.123471 L384.828267,396.593453 C383.843683,398.118419 382.682617,398.880902 381.345069,398.880902 C380.657719,398.880902 380.012166,398.657736 379.408412,398.211405 C378.804658,397.765073 378.409895,397.174614 378.224125,396.440026 C378.038354,395.705439 377.945469,394.278108 377.945469,392.158033 L377.945469,392.158033 L377.945469,378.349652 L384.828267,378.349652 L384.828267,377.066449 L377.945469,377.066449 L377.945469,369.897249 L377.053771,369.897249 C376.719384,372.147503 375.948436,373.895635 374.740928,375.141644 C373.533419,376.387653 372.168006,377.029254 370.644688,377.066449 L370.644688,377.066449 L370.644688,378.349652 L373.960691,378.349652 L373.960691,391.293266 C373.960691,393.952658 374.086087,395.812373 374.336877,396.87241 C374.587667,397.932447 375.219287,398.857655 376.231736,399.648034 C377.244185,400.438413 378.419184,400.833602 379.756732,400.833602 Z M396.030229,400.833602 C398.017973,400.833602 399.666687,400.210598 400.976369,398.964589 C402.286051,397.71858 402.940892,396.100628 402.940892,394.110734 C402.940892,392.846128 402.587928,391.52573 401.882,390.149541 C401.176072,388.79195 399.244059,387.397164 396.08596,385.965183 C393.986753,385.016729 392.565609,384.170559 391.822527,383.426673 C391.060867,382.701384 390.680038,381.836617 390.680038,380.832371 C390.680038,379.921111 391.023713,379.121433 391.711064,378.433339 C392.398415,377.745245 393.299402,377.401197 394.414025,377.401197 C395.863035,377.401197 397.12163,378.010254 398.189811,379.228367 C399.257991,380.44648 399.977852,381.901707 400.349393,383.594047 L400.349393,383.594047 L401.38042,383.594047 L401.38042,376.53643 L400.349393,376.53643 C399.903544,377.615065 399.541291,378.29386 399.262636,378.572818 C397.962242,376.954866 396.318173,376.14589 394.330428,376.14589 C392.379838,376.14589 390.865808,376.829335 389.788339,378.196225 C388.71087,379.563116 388.172136,380.999745 388.172136,382.506114 C388.172136,384.086872 388.673716,385.416568 389.676877,386.495202 C390.680038,387.592434 392.333395,388.708263 394.63695,389.842689 C396.829042,390.921323 398.305918,391.841882 399.067577,392.604365 C399.810659,393.366848 400.1822,394.343198 400.1822,395.533415 C400.1822,396.556258 399.83388,397.495414 399.137241,398.350883 C398.440601,399.206352 397.386353,399.634086 395.974498,399.634086 C392.723514,399.634086 390.466402,397.467519 389.203162,393.134383 L389.203162,393.134383 L388.116405,393.134383 L388.116405,400.638332 L389.203162,400.638332 C389.518972,399.596892 389.927667,398.797215 390.429248,398.2393 C392.064028,399.968835 393.931022,400.833602 396.030229,400.833602 Z M429.329594,400.833602 C431.317338,400.833602 432.966051,400.210598 434.275734,398.964589 C435.585416,397.71858 436.240257,396.100628 436.240257,394.110734 C436.240257,392.846128 435.887293,391.52573 435.181365,390.149541 C434.475437,388.79195 432.543423,387.397164 429.385325,385.965183 C427.286118,385.016729 425.864973,384.170559 425.121891,383.426673 C424.360232,382.701384 423.979403,381.836617 423.979403,380.832371 C423.979403,379.921111 424.323078,379.121433 425.010429,378.433339 C425.69778,377.745245 426.598767,377.401197 427.71339,377.401197 C429.1624,377.401197 430.420995,378.010254 431.489176,379.228367 C432.557356,380.44648 433.277217,381.901707 433.648758,383.594047 L433.648758,383.594047 L434.679784,383.594047 L434.679784,376.53643 L433.648758,376.53643 C433.202909,377.615065 432.840656,378.29386 432.562001,378.572818 C431.261607,376.954866 429.617538,376.14589 427.629793,376.14589 C425.679203,376.14589 424.165173,376.829335 423.087704,378.196225 C422.010235,379.563116 421.471501,380.999745 421.471501,382.506114 C421.471501,384.086872 421.973081,385.416568 422.976242,386.495202 C423.979403,387.592434 425.63276,388.708263 427.936315,389.842689 C430.128407,390.921323 431.605282,391.841882 432.366941,392.604365 C433.110024,393.366848 433.481565,394.343198 433.481565,395.533415 C433.481565,396.556258 433.133245,397.495414 432.436605,398.350883 C431.739966,399.206352 430.685718,399.634086 429.273862,399.634086 C426.022878,399.634086 423.765767,397.467519 422.502527,393.134383 L422.502527,393.134383 L421.41577,393.134383 L421.41577,400.638332 L422.502527,400.638332 C422.818337,399.596892 423.227032,398.797215 423.728613,398.2393 C425.363393,399.968835 427.230387,400.833602 429.329594,400.833602 Z M459.619476,400.498854 C462.573227,400.498854 464.1337,398.908798 464.300893,395.728685 L464.300893,395.728685 L463.269867,395.728685 C462.972634,397.551206 462.210975,398.462466 460.984889,398.462466 C460.241807,398.462466 459.758804,398.155613 459.535879,397.541907 C459.312955,396.928201 459.201492,395.542714 459.201492,393.385445 L459.201492,393.385445 L459.201492,384.151962 C459.201492,382.199261 458.992501,380.748684 458.574517,379.800229 C458.156533,378.851775 457.297345,378.005605 455.996951,377.261719 C454.696557,376.517833 452.866718,376.14589 450.507432,376.14589 C447.330757,376.14589 444.990048,376.754947 443.485307,377.97306 C441.980566,379.191173 441.228195,380.330248 441.228195,381.390285 C441.228195,382.46892 441.794795,383.008237 442.927995,383.008237 C444.191235,383.008237 444.971471,382.059783 445.268704,380.162874 C445.584514,378.303159 447.135697,377.373302 449.922255,377.373302 C451.315534,377.373302 452.439446,377.652259 453.29399,378.210173 C454.148534,378.768088 454.67798,379.400391 454.882328,380.107082 C455.086676,380.813774 455.188849,381.957498 455.188849,383.538256 L455.188849,383.538256 L455.188849,384.654085 L450.869685,386.411515 C447.581547,387.769107 445.003981,389.163893 443.136987,390.595873 C441.269993,392.027853 440.336497,393.701596 440.336497,395.617103 C440.336497,397.086277 440.893808,398.267196 442.008431,399.159859 C443.123054,400.052522 444.451314,400.498854 445.993209,400.498854 C447.200717,400.498854 448.570775,400.164105 450.103381,399.494608 C451.635988,398.82511 453.331144,397.830163 455.188849,396.509766 C455.411774,397.830163 455.890133,398.82511 456.623927,399.494608 C457.35772,400.164105 458.356237,400.498854 459.619476,400.498854 Z M448.278186,398.462466 C447.293602,398.462466 446.494789,398.104471 445.881746,397.388481 C445.268704,396.672491 444.962182,395.728685 444.962182,394.557065 C444.962182,391.600119 447.358622,389.145296 452.151501,387.192595 L452.151501,387.192595 L455.188849,385.965183 L455.188849,395.003397 C453.758416,396.15642 452.467311,397.021187 451.315534,397.597699 C450.163757,398.17421 449.151308,398.462466 448.278186,398.462466 Z M478.010757,399.913043 L478.010757,398.62984 C476.673209,398.62984 475.75829,398.485712 475.265998,398.197457 C474.773706,397.909201 474.476473,397.476817 474.374299,396.900306 C474.272125,396.323794 474.221039,394.715141 474.221039,392.074346 L474.221039,392.074346 L474.221039,382.757176 C475.317085,381.139224 476.482795,379.92576 477.718169,379.116784 C478.953542,378.307808 480.249292,377.90332 481.605417,377.90332 C482.794348,377.90332 483.774287,378.200875 484.545235,378.795983 C485.316183,379.391092 485.789897,380.074537 485.966379,380.846319 C486.142861,381.6181 486.231102,382.905953 486.231102,384.709876 L486.231102,384.709876 L486.231102,392.074346 C486.231102,394.622155 486.203237,396.15642 486.147506,396.67714 C486.091775,397.19786 485.859561,397.65349 485.450866,398.04403 C485.042171,398.43457 484.16905,398.62984 482.831502,398.62984 L482.831502,398.62984 L482.302056,398.62984 L482.302056,399.913043 L493.977733,399.913043 L493.977733,398.62984 C492.658762,398.62984 491.753131,398.485712 491.260839,398.197457 C490.768547,397.909201 490.475959,397.476817 490.383073,396.900306 C490.290188,396.323794 490.243746,394.715141 490.243746,392.074346 L490.243746,392.074346 L490.243746,384.933042 C490.243746,382.812967 490.076552,381.199665 489.742165,380.093134 C489.407778,378.986604 488.660052,378.052097 487.498986,377.289614 C486.33792,376.527131 484.847112,376.14589 483.026561,376.14589 C481.428935,376.14589 479.896328,376.53643 478.428741,377.31751 C476.961154,378.09859 475.558586,379.279509 474.221039,380.860267 C474.165307,378.870372 473.923806,377.298913 473.496534,376.14589 L473.496534,376.14589 L472.744163,376.14589 C470.607802,376.778193 468.517884,377.205927 466.474408,377.429093 L466.474408,377.429093 L466.474408,378.712296 C467.811956,378.712296 468.726876,378.856424 469.219167,379.14468 C469.711459,379.432936 470.008692,379.86067 470.110866,380.427883 C470.21304,380.995096 470.264127,382.608398 470.264127,385.26779 L470.26189,392.96236 C470.249964,395.218814 470.190334,396.582604 470.083,397.053732 C469.96225,397.583751 469.651084,397.97894 469.149504,398.2393 C468.647923,398.49966 467.756225,398.62984 466.474408,398.62984 L466.474408,398.62984 L466.474408,399.913043 L478.010757,399.913043 Z M505.430485,400.833602 C507.41823,400.833602 509.066943,400.210598 510.376625,398.964589 C511.686307,397.71858 512.341148,396.100628 512.341148,394.110734 C512.341148,392.846128 511.988184,391.52573 511.282256,390.149541 C510.576328,388.79195 508.644315,387.397164 505.486216,385.965183 C503.387009,385.016729 501.965865,384.170559 501.222783,383.426673 C500.461124,382.701384 500.080294,381.836617 500.080294,380.832371 C500.080294,379.921111 500.42397,379.121433 501.111321,378.433339 C501.798672,377.745245 502.699659,377.401197 503.814282,377.401197 C505.263292,377.401197 506.521887,378.010254 507.590067,379.228367 C508.658248,380.44648 509.378109,381.901707 509.74965,383.594047 L509.74965,383.594047 L510.780676,383.594047 L510.780676,376.53643 L509.74965,376.53643 C509.3038,377.615065 508.941548,378.29386 508.662892,378.572818 C507.362499,376.954866 505.718429,376.14589 503.730685,376.14589 C501.780095,376.14589 500.266065,376.829335 499.188596,378.196225 C498.111127,379.563116 497.572392,380.999745 497.572392,382.506114 C497.572392,384.086872 498.073973,385.416568 499.077134,386.495202 C500.080294,387.592434 501.733652,388.708263 504.037206,389.842689 C506.229298,390.921323 507.706174,391.841882 508.467833,392.604365 C509.210915,393.366848 509.582456,394.343198 509.582456,395.533415 C509.582456,396.556258 509.234136,397.495414 508.537497,398.350883 C507.840858,399.206352 506.78661,399.634086 505.374754,399.634086 C502.12377,399.634086 499.866658,397.467519 498.603419,393.134383 L498.603419,393.134383 L497.516661,393.134383 L497.516661,400.638332 L498.603419,400.638332 C498.919229,399.596892 499.327924,398.797215 499.829504,398.2393 C501.464285,399.968835 503.331278,400.833602 505.430485,400.833602 Z M541.098424,399.913043 L541.098424,398.62984 C539.742299,398.62984 538.818091,398.490362 538.325799,398.211405 C537.833507,397.932447 537.536274,397.509362 537.434101,396.942149 C537.331927,396.374936 537.28084,394.752335 537.28084,392.074346 L537.28084,378.349652 L545.055336,378.349652 C546.597231,378.349652 547.614325,378.470533 548.106617,378.712296 C548.598909,378.954059 548.919363,379.358547 549.067979,379.92576 C549.216596,380.492973 549.290904,381.771527 549.290904,383.761422 L549.288496,392.968215 C549.275652,395.239362 549.211435,396.6105 549.095845,397.081628 C548.965805,397.611647 548.649996,398.002187 548.148415,398.253248 C547.646835,398.50431 546.727271,398.62984 545.389723,398.62984 L545.389723,398.62984 L545.389723,399.913043 L557.037534,399.913043 L557.037534,398.62984 C555.718564,398.62984 554.812932,398.485712 554.320641,398.197457 C553.828349,397.909201 553.53576,397.476817 553.442875,396.900306 C553.34999,396.323794 553.303547,394.715141 553.303547,392.074346 L553.303547,392.074346 L553.303547,376.14589 L552.634773,376.14589 C550.944261,376.759596 548.185569,377.066449 544.358697,377.066449 L544.358697,377.066449 L537.28084,377.066449 L537.28084,375.16954 C537.28084,372.472953 537.406235,370.264542 537.657025,368.544306 C537.907815,366.82407 538.636965,365.433933 539.844473,364.373896 C541.051981,363.313859 542.500991,362.78384 544.191503,362.78384 C546.030631,362.78384 547.461064,363.583517 548.482802,365.182872 C549.374501,366.614852 550.284776,367.330842 551.213629,367.330842 C551.696632,367.330842 552.105327,367.154169 552.439714,366.800824 C552.774101,366.447478 552.941294,366.019744 552.941294,365.517621 C552.941294,364.513375 552.226078,363.602114 550.795645,362.78384 C549.365212,361.965566 547.451776,361.556428 545.055336,361.556428 C542.621742,361.556428 540.443583,362.105044 538.520858,363.202276 C536.598133,364.299507 535.246653,365.777981 534.466417,367.637695 C533.686181,369.49741 533.296062,371.915039 533.296062,374.890583 L533.296062,374.890583 L533.296062,377.066449 L528.809704,377.066449 L528.809704,378.349652 L533.296062,378.349652 L533.293654,392.96236 C533.280811,395.218814 533.216594,396.582604 533.101003,397.053732 C532.970964,397.583751 532.659798,397.97894 532.167507,398.2393 C531.675215,398.49966 530.78816,398.62984 529.506344,398.62984 L529.506344,398.62984 L529.506344,399.913043 L541.098424,399.913043 Z M570.747398,399.913043 L570.747398,398.62984 C569.409851,398.62984 568.494931,398.485712 568.002639,398.197457 C567.510347,397.909201 567.213114,397.476817 567.11094,396.900306 C567.008767,396.323794 566.95768,394.715141 566.95768,392.074346 L566.95768,392.074346 L566.95768,382.757176 C568.053726,381.139224 569.219436,379.92576 570.45481,379.116784 C571.690184,378.307808 572.985933,377.90332 574.342058,377.90332 C575.530989,377.90332 576.510929,378.200875 577.281876,378.795983 C578.052824,379.391092 578.526539,380.074537 578.703021,380.846319 C578.879503,381.6181 578.967744,382.905953 578.967744,384.709876 L578.967744,384.709876 L578.967744,392.074346 C578.967744,394.622155 578.939878,396.15642 578.884147,396.67714 C578.828416,397.19786 578.596203,397.65349 578.187507,398.04403 C577.778812,398.43457 576.905691,398.62984 575.568143,398.62984 L575.568143,398.62984 L575.038697,398.62984 L575.038697,399.913043 L586.714374,399.913043 L586.714374,398.62984 C585.395403,398.62984 584.489772,398.485712 583.99748,398.197457 C583.505188,397.909201 583.2126,397.476817 583.119715,396.900306 C583.026829,396.323794 582.980387,394.715141 582.980387,392.074346 L582.980387,392.074346 L582.980387,384.933042 C582.980387,382.812967 582.813193,381.199665 582.478806,380.093134 C582.144419,378.986604 581.396693,378.052097 580.235627,377.289614 C579.074562,376.527131 577.583753,376.14589 575.763202,376.14589 C574.165576,376.14589 572.632969,376.53643 571.165382,377.31751 C569.697795,378.09859 568.295228,379.279509 566.95768,380.860267 C566.901949,378.870372 566.660447,377.298913 566.233175,376.14589 L566.233175,376.14589 L565.480804,376.14589 C563.344443,376.778193 561.254525,377.205927 559.211049,377.429093 L559.211049,377.429093 L559.211049,378.712296 C560.548597,378.712296 561.463517,378.856424 561.955809,379.14468 C562.448101,379.432936 562.745333,379.86067 562.847507,380.427883 C562.949681,380.995096 563.000768,382.608398 563.000768,385.26779 L562.998532,392.96236 C562.986606,395.218814 562.926976,396.582604 562.819642,397.053732 C562.698891,397.583751 562.387725,397.97894 561.886145,398.2393 C561.384564,398.49966 560.492866,398.62984 559.211049,398.62984 L559.211049,398.62984 L559.211049,399.913043 L570.747398,399.913043 Z M595.018316,400.833602 C595.835706,400.833602 596.541634,400.540697 597.1361,399.954887 C597.730566,399.369077 598.027798,398.657736 598.027798,397.820864 C598.027798,397.00259 597.73521,396.300548 597.150033,395.714738 C596.564856,395.128927 595.854283,394.836022 595.018316,394.836022 C594.200926,394.836022 593.499642,395.128927 592.914465,395.714738 C592.329288,396.300548 592.036699,397.00259 592.036699,397.820864 C592.036699,398.620542 592.324644,399.322584 592.900532,399.926991 C593.476421,400.531399 594.182349,400.833602 595.018316,400.833602 Z" id="Lafndesdébatssansfn." fill="#4A4A4A" fill-rule="nonzero"></path>
        </g>
    </g>
</svg>